module.exports = {"glyphs":{"0":{"ha":863,"x_min":84,"x_max":779,"o":"m 431 -16 q 175 125 267 -16 q 84 503 84 266 q 174 874 84 742 q 433 1006 264 1006 q 689 871 599 1006 q 779 503 779 736 q 740 232 779 347 q 622 50 701 116 q 431 -16 543 -16 m 434 132 q 603 502 603 132 q 594 635 603 574 q 567 748 585 696 q 514 829 548 800 q 435 859 481 859 q 351 829 387 859 q 297 748 316 800 q 269 635 278 696 q 260 501 260 574 q 269 353 260 417 q 297 237 278 288 q 351 159 317 186 q 434 132 386 132 z "},"1":{"ha":863,"x_min":176,"x_max":723,"o":"m 199 0 l 199 137 l 373 137 l 373 812 q 176 735 276 767 l 176 891 q 393 987 275 923 l 545 987 l 545 134 l 723 134 l 723 0 l 199 0 z "},"2":{"ha":863,"x_min":85,"x_max":708,"o":"m 407 1004 q 626 922 543 1004 q 708 684 708 839 q 702 620 708 651 q 689 565 696 589 q 666 513 682 541 q 639 469 650 486 q 606 425 629 452 q 572 387 583 399 q 536 348 562 375 l 339 141 l 701 141 l 701 0 l 128 0 l 128 124 l 414 441 q 461 495 448 480 q 495 537 474 509 q 524 583 517 566 q 538 624 532 600 q 545 675 545 648 q 540 729 545 694 q 520 792 534 766 q 486 832 506 819 q 443 852 466 846 q 392 859 420 859 q 353 856 373 859 q 313 847 332 852 q 275 836 294 842 q 240 822 256 829 q 209 808 224 815 q 182 794 193 801 q 161 783 170 788 q 148 774 153 778 l 143 772 l 85 907 q 101 917 91 911 q 144 941 111 924 q 212 970 177 958 q 300 994 247 983 q 407 1004 354 1004 z "},"3":{"ha":863,"x_min":101,"x_max":750,"o":"m 422 -16 q 313 -7 366 -16 q 226 14 260 1 q 164 38 191 26 q 125 60 138 51 l 113 68 l 165 197 q 201 178 176 191 q 284 149 227 165 q 393 132 341 132 q 533 173 484 132 q 582 288 582 215 q 516 403 582 365 q 332 441 450 441 l 311 441 l 267 440 l 266 586 l 315 586 q 500 621 446 586 q 554 744 554 655 q 503 828 554 798 q 386 859 452 859 q 325 853 354 859 q 272 838 296 848 q 233 820 248 828 q 200 801 218 812 q 178 787 182 789 l 101 911 q 242 985 180 964 q 409 1006 303 1006 q 527 989 471 1006 q 628 942 583 973 q 700 861 673 911 q 727 748 727 811 q 709 649 727 696 q 648 565 691 602 q 543 519 605 528 q 695 435 640 501 q 750 280 750 369 q 723 156 750 212 q 651 62 696 99 q 547 5 606 25 q 422 -16 488 -16 m 165 197 l 165 197 l 165 197 z "},"4":{"ha":863,"x_min":73,"x_max":818,"o":"m 264 393 l 494 393 l 494 769 q 264 393 479 745 m 491 0 l 491 258 l 73 258 l 73 387 l 469 987 l 663 987 l 663 393 l 818 393 l 818 258 l 666 258 l 666 0 l 491 0 z "},"5":{"ha":863,"x_min":109,"x_max":778,"o":"m 422 -16 q 254 19 336 -16 q 109 120 172 54 l 199 249 q 304 162 246 192 q 418 132 363 132 q 547 181 494 132 q 600 322 600 231 q 565 447 600 395 q 469 498 529 498 q 356 454 387 498 l 184 477 l 184 987 l 733 987 l 733 840 l 336 840 l 328 587 q 504 651 376 651 q 697 555 616 651 q 778 319 778 460 q 758 199 778 254 q 704 104 738 143 q 624 38 669 65 q 527 -3 578 10 q 422 -16 475 -16 z "},"6":{"ha":863,"x_min":103,"x_max":802,"o":"m 461 132 q 580 185 534 132 q 625 321 625 239 q 585 458 625 404 q 471 511 545 511 q 342 457 390 511 q 294 318 294 404 q 309 240 294 276 q 349 180 324 203 q 402 144 373 157 q 461 132 431 132 m 466 -16 q 264 46 347 -16 q 142 217 182 108 q 103 473 103 326 q 129 680 103 584 q 204 849 155 776 q 330 964 254 922 q 502 1006 407 1006 q 753 918 658 1006 l 696 789 q 503 859 608 859 q 350 770 410 859 q 284 549 290 682 q 481 652 357 652 q 715 563 628 652 q 802 323 802 474 q 710 80 802 175 q 466 -16 618 -16 z "},"7":{"ha":863,"x_min":98,"x_max":785,"o":"m 212 0 l 586 846 l 98 846 l 98 987 l 785 987 l 785 856 l 397 0 l 212 0 z "},"8":{"ha":864,"x_min":94,"x_max":767,"o":"m 430 582 q 534 643 497 602 q 572 743 572 684 q 531 824 572 794 q 429 854 490 854 q 326 824 363 854 q 288 734 288 794 q 325 640 288 680 q 430 582 363 600 m 431 135 q 550 171 507 135 q 593 280 593 207 q 547 389 593 338 q 435 457 501 439 q 316 392 362 441 q 270 277 270 343 q 313 172 270 209 q 431 135 356 135 m 433 -16 q 260 17 336 -16 q 139 115 184 50 q 94 268 94 180 q 139 415 94 350 q 262 518 183 479 q 114 745 114 602 q 202 936 114 866 q 429 1006 290 1006 q 662 934 576 1006 q 747 738 747 863 q 601 516 747 587 q 720 411 673 480 q 767 262 767 341 q 720 111 767 176 q 597 16 672 47 q 433 -16 522 -16 z "},"9":{"ha":863,"x_min":74,"x_max":760,"o":"m 408 494 q 536 544 487 494 q 585 689 585 594 q 540 809 585 760 q 420 859 495 859 q 295 808 342 859 q 248 675 248 758 q 289 544 248 595 q 408 494 330 494 m 378 -18 q 123 52 264 -18 l 185 192 q 364 133 274 133 q 449 150 410 133 q 520 200 488 166 q 570 292 552 234 q 589 427 589 350 l 589 444 q 391 351 527 351 q 160 439 247 351 q 74 672 74 528 q 167 911 74 817 q 413 1006 260 1006 q 670 883 579 1006 q 760 523 760 760 q 716 243 760 364 q 585 52 672 121 q 378 -18 498 -18 z "},"\r":{"ha":406,"x_min":0,"x_max":0,"o":""}," ":{"ha":408,"x_min":0,"x_max":0,"o":""},"!":{"ha":467,"x_min":122,"x_max":335,"o":"m 180 262 l 130 987 l 330 987 l 279 262 l 180 262 m 122 0 l 122 185 l 335 185 l 335 0 l 122 0 z "},"\"":{"ha":477,"x_min":42,"x_max":436,"o":"m 311 649 l 275 987 l 436 987 l 401 649 l 311 649 m 78 649 l 42 987 l 204 987 l 170 649 l 78 649 z "},"#":{"ha":994,"x_min":60,"x_max":935,"o":"m 407 412 l 563 412 l 598 590 l 442 590 l 407 412 m 160 -7 l 220 304 l 60 304 l 66 412 l 242 412 l 277 590 l 96 590 l 102 697 l 299 697 l 357 991 l 522 991 l 464 697 l 620 697 l 678 991 l 843 991 l 785 697 l 935 697 l 930 590 l 763 590 l 728 412 l 899 412 l 894 304 l 707 304 l 646 -7 l 481 -7 l 542 304 l 386 304 l 325 -7 l 160 -7 z "},"$":{"ha":840,"x_min":78,"x_max":774,"o":"m 392 854 l 392 606 q 287 664 311 635 q 262 745 262 692 q 297 819 262 791 q 392 854 332 846 m 460 134 l 460 409 q 530 378 504 393 q 570 345 557 363 q 587 311 583 328 q 591 269 591 295 q 460 134 591 151 m 392 -149 l 460 -149 l 460 -14 q 579 7 525 -10 q 679 57 634 25 q 749 143 724 90 q 774 265 774 196 q 726 439 774 376 q 558 549 679 501 q 460 583 539 557 l 460 857 q 675 778 595 854 l 764 892 q 637 976 703 950 q 460 1005 572 1002 l 460 1103 l 392 1103 l 392 1005 q 165 929 252 999 q 79 737 79 860 q 134 567 79 630 q 311 458 189 505 q 336 450 322 454 q 366 440 349 446 q 392 432 383 435 l 392 132 q 264 161 334 136 q 151 220 195 186 l 78 97 q 213 19 128 48 q 392 -15 298 -11 l 392 -149 z "},"%":{"ha":1288,"x_min":66,"x_max":1222,"o":"m 972 -14 q 791 59 860 -14 q 723 243 723 132 q 791 428 723 353 q 972 502 860 502 q 1153 427 1084 502 q 1222 243 1222 353 q 1154 59 1222 131 q 972 -14 1085 -14 m 972 92 q 1052 128 1025 92 q 1079 243 1079 164 q 1053 357 1079 319 q 972 395 1027 395 q 891 358 917 395 q 865 244 865 321 q 892 129 865 165 q 972 92 918 92 m 262 0 l 893 987 l 1031 987 l 399 0 l 262 0 m 315 485 q 133 553 200 485 q 66 742 66 621 q 133 930 66 861 q 315 1000 200 1000 q 497 930 430 1000 q 565 742 565 860 q 498 553 565 621 q 315 485 431 485 m 315 591 q 395 626 369 591 q 422 741 422 662 q 396 856 422 818 q 315 894 371 894 q 234 856 260 894 q 209 742 209 819 q 235 627 209 663 q 315 591 262 591 z "},"&":{"ha":1076,"x_min":77,"x_max":1038,"o":"m 415 651 q 492 713 465 682 q 519 782 519 745 q 495 840 519 821 q 436 859 470 859 q 375 839 398 859 q 352 780 352 820 q 415 651 352 715 m 427 126 q 627 213 533 126 l 385 473 q 281 393 318 435 q 244 287 244 350 q 296 172 244 217 q 427 126 348 126 m 426 -19 q 175 63 274 -19 q 77 286 77 146 q 93 383 77 338 q 141 463 109 427 q 207 526 173 499 q 290 581 241 552 q 210 684 235 641 q 186 783 186 728 q 255 941 186 885 q 429 997 324 997 q 522 984 477 997 q 603 946 567 971 q 661 881 640 922 q 683 789 683 840 q 515 549 683 658 l 717 328 q 785 640 785 456 l 940 607 q 909 395 941 503 q 825 206 878 287 q 877 159 851 179 q 936 125 903 140 q 984 104 968 110 q 1038 86 1000 98 l 928 -13 q 823 22 861 -1 q 728 105 785 45 q 426 -19 594 -19 z "},"'":{"ha":328,"x_min":89,"x_max":264,"o":"m 115 617 l 89 987 l 264 987 l 239 617 l 115 617 z "},"(":{"ha":467,"x_min":80,"x_max":433,"o":"m 275 -116 q 134 165 187 18 q 80 451 80 313 q 269 1028 80 728 l 433 1028 q 296 739 345 889 q 248 450 248 589 q 299 172 248 322 q 433 -116 349 21 l 275 -116 z "},")":{"ha":467,"x_min":35,"x_max":388,"o":"m 35 -130 q 172 159 123 9 q 220 450 220 309 q 169 728 220 577 q 35 1015 118 878 l 193 1015 q 334 733 281 881 q 388 448 388 586 q 199 -130 388 170 l 35 -130 z "},"*":{"ha":715,"x_min":62,"x_max":625,"o":"m 457 437 l 342 605 l 228 436 l 104 522 l 251 680 l 62 753 l 120 874 l 285 789 l 264 987 l 424 987 l 401 789 l 569 874 l 625 753 l 435 680 l 581 523 l 457 437 z "},"+":{"ha":860,"x_min":93,"x_max":766,"o":"m 350 52 l 350 319 l 93 319 l 93 458 l 352 458 l 352 726 l 509 726 l 509 458 l 766 458 l 766 319 l 508 319 l 508 52 l 350 52 z "},",":{"ha":370,"x_min":35,"x_max":300,"o":"m 35 -155 l 111 182 l 300 182 l 178 -155 l 35 -155 z "},"-":{"ha":503,"x_min":37,"x_max":465,"o":"m 37 310 l 37 439 l 465 439 l 465 310 l 37 310 z "},".":{"ha":366,"x_min":75,"x_max":272,"o":"m 75 0 l 75 184 l 272 184 l 272 0 l 75 0 z "},"/":{"ha":464,"x_min":-55,"x_max":532,"o":"m -55 -161 l 382 987 l 532 987 l 91 -161 l -55 -161 z "},":":{"ha":401,"x_min":91,"x_max":302,"o":"m 91 610 l 91 794 l 301 794 l 302 610 l 91 610 m 91 -10 l 91 173 l 302 173 l 302 -10 l 91 -10 z "},";":{"ha":366,"x_min":45,"x_max":308,"o":"m 121 610 l 121 794 l 292 794 l 292 610 l 121 610 m 45 -155 l 118 182 l 308 182 l 187 -155 l 45 -155 z "},"<":{"ha":960,"x_min":100,"x_max":814,"o":"m 812 24 l 100 345 l 100 423 l 814 756 l 814 602 l 323 386 l 812 176 l 812 24 z "},"=":{"ha":1003,"x_min":146,"x_max":856,"o":"m 147 452 l 147 589 l 854 589 l 854 452 l 147 452 m 146 177 l 146 313 l 856 313 l 856 177 l 146 177 z "},">":{"ha":962,"x_min":145,"x_max":861,"o":"m 145 26 l 145 184 l 633 389 l 149 608 l 149 762 l 861 423 l 861 339 l 145 26 z "},"?":{"ha":690,"x_min":99,"x_max":616,"o":"m 176 0 l 176 185 l 388 185 l 388 0 l 176 0 m 204 279 l 204 372 q 217 441 204 408 q 251 503 231 475 q 297 556 272 530 q 348 606 323 582 q 394 653 374 630 q 428 704 415 677 q 441 758 441 730 q 404 835 441 810 q 304 860 366 860 q 192 845 251 860 q 99 815 134 830 l 99 958 q 319 1007 191 1007 q 466 981 400 1007 q 574 898 532 955 q 616 762 616 842 q 601 684 616 721 q 561 618 585 646 q 507 563 536 589 q 448 510 477 536 q 394 456 418 484 q 354 395 370 429 q 339 323 339 361 l 339 279 l 204 279 z "},"@":{"ha":1230,"x_min":72,"x_max":1158,"o":"m 581 304 q 662 340 626 304 q 716 433 698 376 q 735 554 735 490 q 712 622 735 598 q 652 645 690 645 q 566 607 603 645 q 511 514 529 568 q 494 402 494 460 q 518 331 494 358 q 581 304 543 304 m 640 -68 q 415 -32 519 -68 q 235 71 311 5 q 115 236 159 138 q 72 451 72 334 q 118 683 72 578 q 243 859 164 789 q 429 967 323 928 q 655 1006 535 1006 q 853 971 761 1006 q 1013 876 946 937 q 1119 727 1080 814 q 1158 538 1158 640 q 1126 368 1158 452 q 1036 228 1094 284 q 910 172 977 172 q 798 214 840 172 q 756 315 756 256 q 687 213 737 252 q 558 174 637 174 q 476 190 517 174 q 402 235 436 205 q 347 315 368 265 q 326 426 326 365 q 356 569 326 502 q 431 679 385 635 q 530 746 477 722 q 631 770 583 770 q 770 693 739 770 l 783 758 l 931 758 l 871 437 q 857 326 857 368 l 857 316 q 867 275 857 295 q 896 256 877 256 q 942 276 916 256 q 991 332 967 297 q 1032 424 1015 368 q 1048 541 1048 479 q 1026 673 1048 613 q 967 773 1004 733 q 880 842 930 814 q 775 883 830 870 q 662 895 720 895 q 487 868 568 895 q 344 788 406 841 q 246 648 281 734 q 210 451 210 562 q 235 300 210 369 q 302 183 260 231 q 402 102 345 136 q 523 54 459 69 q 654 38 586 38 q 974 127 817 38 l 1029 47 q 640 -68 863 -68 z "},"A":{"ha":989,"x_min":8,"x_max":980,"o":"m 355 401 l 620 401 q 489 786 542 633 q 355 401 445 658 m 8 0 l 405 987 l 580 987 l 980 0 l 785 0 l 690 241 l 291 241 l 197 0 l 8 0 z "},"B":{"ha":927,"x_min":129,"x_max":852,"o":"m 301 578 l 448 578 q 512 584 483 578 q 567 606 541 591 q 608 648 593 621 q 623 713 623 675 q 572 813 623 786 q 412 840 522 840 l 301 840 l 301 578 m 303 147 l 458 147 q 667 286 667 147 q 620 406 667 373 q 454 438 574 438 l 303 438 l 303 147 m 129 0 l 129 987 l 402 987 q 479 986 445 987 q 556 978 513 984 q 633 962 600 972 q 701 932 667 951 q 756 887 734 913 q 792 822 779 861 q 806 734 806 783 q 675 524 806 588 q 808 434 764 500 q 852 279 852 369 q 829 173 852 222 q 764 85 807 124 q 649 23 720 45 q 489 0 578 0 l 129 0 z "},"C":{"ha":974,"x_min":72,"x_max":908,"o":"m 566 -15 q 380 19 469 -15 q 223 115 292 52 q 113 275 154 177 q 72 493 72 373 q 99 679 72 593 q 174 823 127 764 q 282 924 220 882 q 412 986 344 966 q 553 1006 481 1006 q 882 899 747 1006 l 815 779 q 567 857 703 857 q 447 832 504 857 q 347 762 391 807 q 278 647 304 716 q 252 495 252 578 q 345 233 252 332 q 578 134 437 134 q 850 233 726 134 l 908 97 q 566 -15 764 -15 z "},"D":{"ha":1065,"x_min":129,"x_max":994,"o":"m 129 0 l 129 987 l 404 987 q 847 862 701 987 q 994 500 994 736 q 850 127 994 255 q 432 0 707 0 l 129 0 m 301 148 l 441 148 q 715 237 620 148 q 811 500 811 327 q 714 752 811 665 q 420 840 618 840 l 301 840 l 301 148 z "},"E":{"ha":847,"x_min":129,"x_max":772,"o":"m 129 0 l 129 987 l 752 987 l 752 840 l 301 840 l 301 576 l 728 576 l 728 427 l 303 427 l 303 148 l 772 148 l 772 0 l 129 0 z "},"F":{"ha":777,"x_min":129,"x_max":732,"o":"m 129 0 l 129 987 l 732 987 l 732 840 l 301 840 l 301 570 l 707 570 l 707 422 l 301 422 l 301 0 l 129 0 z "},"G":{"ha":1043,"x_min":71,"x_max":929,"o":"m 577 -16 q 202 117 334 -16 q 71 477 71 250 q 93 641 71 562 q 158 785 114 719 q 263 901 201 852 q 410 978 325 950 q 595 1006 495 1006 q 722 996 665 1006 q 820 968 779 986 q 880 938 861 949 q 924 907 900 926 l 854 787 q 595 857 758 857 q 442 825 510 857 q 334 740 374 793 q 272 621 293 686 q 251 485 251 556 q 272 342 251 407 q 334 231 293 278 q 438 158 374 184 q 585 132 503 132 q 754 157 667 132 l 754 391 l 524 391 l 524 538 l 929 538 l 929 60 q 577 -16 760 -16 z "},"H":{"ha":1066,"x_min":129,"x_max":937,"o":"m 129 0 l 129 987 l 301 987 l 301 581 l 764 581 l 764 987 l 937 987 l 937 0 l 768 0 l 768 432 l 304 432 l 304 0 l 129 0 z "},"I":{"ha":397,"x_min":109,"x_max":281,"o":"m 109 0 l 109 987 l 281 987 l 281 0 l 109 0 z "},"J":{"ha":691,"x_min":65,"x_max":563,"o":"m 283 -224 q 65 -181 186 -224 l 96 -50 q 252 -80 189 -80 q 391 75 391 -80 l 391 987 l 563 987 l 563 83 q 489 -145 563 -65 q 283 -224 415 -224 z "},"K":{"ha":916,"x_min":129,"x_max":930,"o":"m 129 0 l 129 987 l 301 987 l 301 556 l 682 987 l 897 987 l 469 511 l 930 0 l 706 0 l 303 441 l 303 0 l 129 0 z "},"L":{"ha":795,"x_min":129,"x_max":758,"o":"m 129 0 l 129 987 l 301 987 l 301 148 l 758 148 l 758 0 l 129 0 z "},"M":{"ha":1348,"x_min":129,"x_max":1219,"o":"m 129 0 l 129 987 l 331 987 q 480 656 352 941 q 676 221 608 371 q 784 459 728 334 q 911 748 839 583 q 1017 987 983 913 l 1219 987 l 1219 0 l 1057 0 l 1057 705 q 739 0 1021 627 l 612 0 q 513 219 577 77 q 397 477 450 361 q 295 694 344 593 l 295 0 l 129 0 z "},"N":{"ha":1105,"x_min":129,"x_max":977,"o":"m 129 0 l 129 987 l 311 987 q 812 260 782 305 l 812 987 l 977 987 l 977 0 l 793 0 q 288 728 338 657 l 288 0 l 129 0 z "},"O":{"ha":1133,"x_min":72,"x_max":1061,"o":"m 570 -16 q 205 124 338 -16 q 72 498 72 263 q 206 867 72 728 q 572 1006 340 1006 q 929 867 796 1006 q 1061 498 1061 728 q 930 123 1061 262 q 570 -16 800 -16 m 566 132 q 795 227 717 132 q 874 498 874 322 q 795 764 874 669 q 568 859 717 859 q 338 764 418 859 q 258 498 258 669 q 336 227 258 321 q 566 132 414 132 z "},"P":{"ha":881,"x_min":129,"x_max":835,"o":"m 301 573 l 449 573 q 533 578 498 573 q 596 598 568 584 q 640 638 625 612 q 654 705 654 665 q 650 744 654 726 q 641 775 646 762 q 624 798 635 788 q 603 815 612 808 q 574 826 593 821 q 542 832 555 830 q 504 836 530 835 q 463 837 478 837 q 417 838 448 838 l 301 838 l 301 573 m 129 0 l 129 987 l 410 987 q 496 986 460 987 q 575 980 532 985 q 648 967 617 976 q 710 944 678 958 q 763 909 741 930 q 801 860 784 888 q 827 793 819 831 q 835 706 835 754 q 809 572 835 627 q 733 485 784 517 q 613 440 682 454 q 452 426 545 426 l 301 426 l 301 0 l 129 0 z "},"Q":{"ha":1133,"x_min":72,"x_max":1061,"o":"m 566 132 q 336 227 414 132 q 258 498 258 321 q 338 764 258 669 q 568 859 418 859 q 795 764 717 859 q 874 498 874 669 q 795 227 874 322 q 566 132 717 132 m 855 -303 l 949 -201 q 780 22 844 -83 q 988 199 915 75 q 1061 498 1061 323 q 929 867 1061 728 q 572 1006 796 1006 q 206 867 340 1006 q 72 498 72 728 q 205 124 72 263 q 570 -16 338 -16 q 631 -13 604 -16 q 728 -153 672 -81 q 819 -264 784 -226 l 855 -303 z "},"R":{"ha":941,"x_min":129,"x_max":896,"o":"m 299 564 l 464 564 q 648 707 648 564 q 610 812 648 785 q 482 840 571 840 l 299 840 l 299 564 m 129 0 l 129 987 l 485 987 q 626 975 566 987 q 733 933 685 963 q 806 849 781 904 q 830 715 830 795 q 781 567 830 631 q 631 481 731 503 q 762 326 720 431 l 896 0 l 709 0 l 596 294 q 536 392 568 366 q 437 418 503 418 l 301 418 l 301 0 l 129 0 z "},"S":{"ha":852,"x_min":78,"x_max":774,"o":"m 422 -16 q 227 14 321 -16 q 78 97 132 44 l 151 220 q 276 157 199 183 q 412 132 353 132 q 547 165 503 132 q 591 269 591 199 q 587 312 591 296 q 568 347 583 329 q 526 380 554 365 q 450 412 498 395 q 381 435 430 419 q 311 458 333 450 q 134 567 189 505 q 79 737 79 630 q 124 886 79 824 q 246 977 170 947 q 420 1006 322 1006 q 625 980 552 1006 q 764 892 699 954 l 675 778 q 444 857 592 857 q 313 829 363 857 q 262 745 262 802 q 267 699 262 717 q 287 664 272 681 q 331 632 302 646 q 407 600 359 617 q 478 577 424 594 q 558 549 532 559 q 726 439 679 501 q 774 265 774 376 q 745 135 774 191 q 665 47 715 79 q 554 0 615 16 q 422 -16 493 -16 z "},"T":{"ha":801,"x_min":7,"x_max":793,"o":"m 312 0 l 312 840 l 7 840 l 7 987 l 793 987 l 793 840 l 484 840 l 484 0 l 312 0 z "},"U":{"ha":1023,"x_min":111,"x_max":912,"o":"m 512 -16 q 345 7 417 -16 q 230 68 273 31 q 159 162 186 106 q 121 276 132 218 q 111 406 111 334 l 111 987 l 283 987 l 283 399 q 295 291 283 338 q 327 214 307 244 q 376 165 347 184 q 438 139 406 146 q 511 132 471 132 q 603 144 563 132 q 674 187 642 157 q 723 270 706 216 q 740 399 740 323 l 740 987 l 912 987 l 912 406 q 903 277 912 334 q 866 163 893 219 q 796 68 840 106 q 681 7 753 31 q 512 -16 608 -16 z "},"V":{"ha":945,"x_min":12,"x_max":933,"o":"m 387 0 l 12 987 l 205 987 q 320 660 220 945 q 477 226 421 374 q 752 987 536 388 l 933 987 l 558 0 l 387 0 z "},"W":{"ha":1421,"x_min":8,"x_max":1413,"o":"m 290 0 l 8 987 l 191 987 q 256 746 210 916 q 334 451 301 576 q 395 208 366 326 q 465 453 427 328 q 557 748 503 579 q 633 987 611 916 l 797 987 l 973 435 l 1041 204 q 1100 450 1069 323 q 1174 745 1132 576 q 1236 987 1217 913 l 1413 987 l 1138 0 l 941 0 l 710 749 l 485 0 l 290 0 z "},"X":{"ha":954,"x_min":15,"x_max":937,"o":"m 15 0 l 378 499 l 41 987 l 256 987 l 486 646 l 730 987 l 930 987 l 585 507 l 937 0 l 722 0 l 476 361 l 221 0 l 15 0 z "},"Y":{"ha":868,"x_min":-9,"x_max":875,"o":"m 342 0 l 342 382 l -9 987 l 186 987 l 431 535 l 674 987 l 875 987 l 515 382 l 515 0 l 342 0 z "},"Z":{"ha":815,"x_min":48,"x_max":753,"o":"m 48 0 l 48 92 l 515 840 l 66 840 l 66 987 l 753 987 l 753 898 l 283 148 l 753 148 l 753 0 l 48 0 z "},"[":{"ha":420,"x_min":95,"x_max":381,"o":"m 95 -107 l 95 1019 l 380 1019 l 380 890 l 266 890 l 266 22 l 381 22 l 381 -107 l 95 -107 z "},"\\":{"ha":441,"x_min":-118,"x_max":541,"o":"m 360 -76 l -118 987 l 68 987 l 541 -76 l 360 -76 z "},"]":{"ha":420,"x_min":62,"x_max":345,"o":"m 62 -107 l 62 22 l 173 22 l 173 890 l 62 890 l 62 1019 l 345 1019 l 345 -107 l 62 -107 z "},"^":{"ha":1057,"x_min":124,"x_max":933,"o":"m 124 361 l 472 987 l 581 987 l 933 361 l 763 361 l 524 795 l 297 361 l 124 361 z "},"_":{"ha":686,"x_min":-9,"x_max":695,"o":"m -9 -172 l -9 -40 l 695 -40 l 695 -172 l -9 -172 z "},"`":{"ha":414,"x_min":-10,"x_max":383,"o":"m 228 791 l -10 987 l 205 987 l 383 791 l 228 791 z "},"a":{"ha":876,"x_min":73,"x_max":783,"o":"m 437 120 q 579 182 534 120 q 623 348 623 244 q 576 516 623 454 q 433 577 529 577 q 290 515 340 577 q 240 349 240 454 q 290 182 240 245 q 437 120 340 120 m 416 -16 q 264 15 331 -16 q 156 96 197 45 q 94 210 115 147 q 73 340 73 272 q 95 478 73 413 q 158 597 117 544 q 269 682 200 650 q 424 713 337 713 q 618 622 550 713 l 618 696 l 783 696 l 783 0 l 614 0 l 614 95 q 416 -16 538 -16 z "},"b":{"ha":876,"x_min":96,"x_max":802,"o":"m 446 120 q 529 139 493 120 q 585 190 564 157 q 616 262 606 222 q 627 347 627 301 q 582 512 627 447 q 452 577 537 577 q 311 512 363 577 q 258 349 258 446 q 278 237 258 288 q 342 153 298 186 q 446 120 385 120 m 477 -16 q 350 15 408 -16 q 268 86 293 45 l 268 0 l 96 0 q 98 82 97 46 q 100 133 100 118 q 101 160 101 149 q 102 175 102 171 q 102 184 102 179 l 102 988 l 269 988 l 269 598 q 286 628 272 610 q 324 666 299 646 q 392 700 349 686 q 486 713 435 713 q 718 612 633 713 q 802 351 802 511 q 776 202 802 271 q 706 85 750 133 q 603 11 662 38 q 477 -16 543 -16 z "},"c":{"ha":726,"x_min":73,"x_max":687,"o":"m 437 -16 q 282 14 352 -16 q 167 95 212 44 q 98 211 122 146 q 73 349 73 277 q 116 534 73 452 q 241 665 158 616 q 435 713 324 713 q 687 620 599 713 l 627 511 q 452 578 551 578 q 300 515 353 578 q 248 348 248 453 q 304 183 248 245 q 458 120 360 120 q 485 121 471 120 q 509 125 498 123 q 532 131 520 127 q 552 137 544 134 q 570 146 560 140 q 586 154 581 151 q 601 163 592 157 q 613 172 610 170 q 624 179 616 174 q 632 186 631 185 l 683 62 q 566 3 625 22 q 437 -16 508 -16 z "},"d":{"ha":859,"x_min":73,"x_max":768,"o":"m 425 120 q 506 139 471 120 q 561 190 541 157 q 590 262 581 223 q 600 347 600 302 q 556 513 600 449 q 424 577 512 577 q 325 545 365 577 q 267 464 284 513 q 250 350 250 414 q 259 263 250 303 q 289 190 269 223 q 344 139 309 157 q 425 120 379 120 m 391 -16 q 164 83 256 -16 q 73 345 73 182 q 94 484 73 418 q 155 602 115 550 q 259 683 195 653 q 404 713 323 713 q 525 684 475 713 q 595 623 575 654 l 595 988 l 762 988 l 762 186 q 768 0 762 182 l 595 0 l 594 89 q 574 57 588 73 q 536 23 559 41 q 474 -5 512 6 q 391 -16 436 -16 z "},"e":{"ha":818,"x_min":73,"x_max":743,"o":"m 253 431 l 599 431 q 544 545 587 505 q 439 584 501 584 q 318 543 367 584 q 253 431 269 503 m 452 -16 q 175 85 276 -16 q 73 347 73 185 q 98 486 73 420 q 166 603 122 552 q 279 684 211 654 q 430 713 347 713 q 574 685 513 713 q 672 605 636 656 q 725 490 708 554 q 743 349 743 427 q 739 319 743 330 l 251 319 q 313 169 255 218 q 467 120 371 120 q 687 195 580 120 l 732 73 q 600 6 667 27 q 452 -16 533 -16 z "},"f":{"ha":556,"x_min":47,"x_max":506,"o":"m 177 0 l 177 583 l 47 583 l 47 696 l 177 696 l 177 723 q 179 802 177 770 q 188 866 181 833 q 207 919 195 899 q 241 957 220 939 q 294 986 262 976 q 369 1001 325 996 q 470 1007 412 1007 l 506 1007 l 500 876 q 438 875 461 876 q 396 867 416 873 q 368 852 377 861 q 353 824 359 844 q 346 784 347 805 q 345 725 345 762 l 345 696 l 501 696 l 501 583 l 345 583 l 345 0 l 177 0 z "},"g":{"ha":838,"x_min":73,"x_max":766,"o":"m 425 127 q 495 140 465 127 q 545 175 526 153 q 575 226 564 196 q 592 286 587 256 q 596 350 596 316 q 554 514 596 452 q 427 577 511 577 q 327 544 368 577 q 268 461 286 511 q 250 349 250 411 q 292 186 250 245 q 425 127 335 127 m 392 -283 q 127 -236 256 -283 l 157 -91 q 380 -144 258 -144 q 532 -102 477 -144 q 587 24 587 -60 l 587 83 q 413 0 528 0 q 166 95 259 0 q 73 349 73 189 q 93 487 73 422 q 151 602 113 551 q 254 684 190 654 q 400 713 318 713 q 513 688 465 713 q 588 621 562 662 l 588 696 l 766 696 q 753 463 753 593 l 753 100 q 392 -283 753 -283 z "},"h":{"ha":827,"x_min":98,"x_max":739,"o":"m 98 0 l 98 988 l 266 988 l 266 606 q 354 684 291 654 q 474 713 417 713 q 562 702 522 713 q 629 671 602 690 q 676 625 656 652 q 708 569 696 597 q 727 507 720 541 q 736 446 734 473 q 739 387 739 418 l 739 0 l 570 0 l 570 393 q 540 534 570 491 q 448 577 509 577 q 322 529 379 577 q 266 419 266 481 l 266 0 l 98 0 z "},"i":{"ha":355,"x_min":96,"x_max":259,"o":"m 96 840 l 96 987 l 259 987 l 259 840 l 96 840 m 97 0 l 97 696 l 259 696 l 259 0 l 97 0 z "},"j":{"ha":407,"x_min":-58,"x_max":319,"o":"m 152 833 l 152 987 l 319 987 l 319 833 l 152 833 m 68 -245 q -1 -241 31 -245 q -45 -232 -33 -236 l -58 -227 l -39 -112 q 58 -125 3 -125 q 98 -120 83 -125 q 125 -102 113 -116 q 142 -60 137 -87 q 148 14 148 -32 l 148 696 l 319 696 l 319 -6 q 308 -109 319 -67 q 270 -183 297 -151 q 192 -230 242 -215 q 68 -245 142 -245 m -39 -112 l -41 -111 l -39 -111 l -39 -112 z "},"k":{"ha":730,"x_min":95,"x_max":768,"o":"m 95 0 l 95 988 l 263 988 l 263 412 l 515 696 l 747 696 l 415 359 l 768 0 l 546 0 l 263 301 l 263 0 l 95 0 z "},"l":{"ha":357,"x_min":96,"x_max":262,"o":"m 96 0 l 96 988 l 262 988 l 262 0 l 96 0 z "},"m":{"ha":1247,"x_min":96,"x_max":1157,"o":"m 109 0 l 109 472 q 102 620 109 544 l 96 696 l 273 696 l 273 605 q 352 683 298 652 q 467 713 405 713 q 590 681 534 713 q 675 585 646 648 q 901 713 765 713 q 1093 637 1029 713 q 1157 427 1157 560 l 1157 0 l 989 0 l 989 416 q 984 470 989 444 q 969 521 979 496 q 938 562 958 547 q 888 577 917 577 q 766 520 814 577 q 718 394 718 463 l 718 0 l 549 0 l 549 425 q 547 464 549 446 q 538 504 545 483 q 520 541 531 526 q 489 567 509 557 q 443 577 469 577 q 324 531 372 577 q 277 422 277 484 l 277 0 l 109 0 z "},"n":{"ha":830,"x_min":94,"x_max":742,"o":"m 107 0 l 107 431 q 104 571 107 505 q 97 666 100 637 l 94 696 l 272 696 l 272 603 q 368 685 308 657 q 484 713 428 713 q 590 697 545 713 q 670 646 635 682 q 724 548 705 610 q 742 397 742 486 l 742 0 l 574 0 l 574 408 q 545 539 574 500 q 450 577 516 577 q 396 566 425 577 q 339 536 367 555 q 294 485 312 517 q 275 416 275 454 l 275 0 l 107 0 z "},"o":{"ha":872,"x_min":73,"x_max":799,"o":"m 439 -16 q 277 14 349 -16 q 162 94 206 43 q 96 209 119 144 q 73 348 73 274 q 96 489 73 423 q 164 605 119 554 q 279 684 208 655 q 439 713 350 713 q 600 685 530 713 q 713 605 671 656 q 778 489 756 555 q 799 347 799 424 q 777 210 799 274 q 711 95 754 146 q 598 14 668 44 q 439 -16 528 -16 m 436 120 q 523 139 486 120 q 582 190 560 157 q 613 263 603 223 q 624 350 624 303 q 577 513 624 450 q 437 577 530 577 q 330 546 374 577 q 268 464 287 514 q 248 350 248 414 q 266 237 248 287 q 328 153 284 186 q 436 120 372 120 z "},"p":{"ha":863,"x_min":96,"x_max":792,"o":"m 441 120 q 523 139 488 120 q 577 190 557 157 q 607 262 597 222 q 617 349 617 302 q 600 463 617 413 q 541 545 582 513 q 440 577 500 577 q 340 546 381 577 q 282 465 300 514 q 264 352 264 416 q 274 264 264 304 q 304 191 284 224 q 360 139 325 158 q 441 120 395 120 m 109 -268 l 109 462 q 96 696 109 522 l 274 696 l 274 596 q 342 674 282 634 q 489 713 402 713 q 651 663 581 713 q 756 532 721 612 q 792 356 792 451 q 771 219 792 285 q 711 100 750 153 q 612 16 673 47 q 479 -16 552 -16 q 340 23 397 -16 q 274 96 282 62 l 274 -268 l 109 -268 z "},"q":{"ha":848,"x_min":71,"x_max":762,"o":"m 422 120 q 524 153 483 120 q 581 235 564 186 q 598 347 598 284 q 553 512 598 448 q 420 577 509 577 q 321 545 361 577 q 263 464 281 513 q 246 350 246 414 q 256 263 246 303 q 286 190 266 223 q 341 139 306 157 q 422 120 376 120 m 589 -268 l 589 56 q 398 -16 499 -16 q 279 5 333 -16 q 186 61 224 26 q 122 145 149 97 q 83 247 96 193 q 71 358 71 300 q 93 492 71 429 q 155 606 115 556 q 258 684 195 655 q 399 713 321 713 q 499 690 448 713 q 590 621 550 667 l 590 696 l 762 696 q 755 495 755 604 l 755 -268 l 589 -268 z "},"r":{"ha":529,"x_min":96,"x_max":519,"o":"m 110 0 l 110 519 q 106 604 110 560 q 100 672 103 648 l 96 696 l 275 696 l 275 604 q 358 686 317 659 q 450 713 399 713 q 519 703 481 713 l 519 556 q 435 571 474 571 q 321 526 366 571 q 277 394 277 480 l 277 0 l 110 0 z "},"s":{"ha":670,"x_min":72,"x_max":615,"o":"m 362 -16 q 194 10 271 -16 q 72 72 117 36 l 114 193 q 222 138 157 159 q 347 117 287 117 q 432 136 404 117 q 461 197 461 155 l 461 210 q 444 247 461 231 q 366 281 427 262 l 267 313 q 204 336 229 326 q 153 363 179 347 q 112 398 127 379 q 89 446 98 418 q 79 511 79 474 q 100 604 79 564 q 157 667 121 644 q 239 701 194 690 q 337 712 283 712 q 470 695 404 712 q 587 645 536 678 l 543 530 q 448 566 503 551 q 349 581 393 581 q 266 567 292 581 q 240 520 240 553 q 248 486 240 498 q 282 461 256 474 q 365 429 308 448 l 455 399 q 542 359 509 380 q 595 297 575 337 q 615 197 615 257 q 600 113 615 151 q 560 52 585 76 q 502 13 535 28 q 433 -9 468 -3 q 362 -16 399 -16 z "},"t":{"ha":545,"x_min":1,"x_max":500,"o":"m 500 1 l 433 1 q 362 3 392 1 q 301 12 332 5 q 247 30 269 18 q 205 60 225 41 q 172 105 184 79 q 153 170 160 132 q 146 255 146 207 l 146 583 l 1 583 l 1 696 l 153 696 l 153 859 l 313 908 l 313 696 l 495 696 l 495 583 l 313 583 l 313 245 q 318 192 313 212 q 334 159 323 172 q 368 140 344 146 q 420 132 392 134 q 500 130 449 130 l 500 1 z "},"u":{"ha":804,"x_min":88,"x_max":714,"o":"m 355 -16 q 159 57 229 -16 q 88 255 88 129 l 88 696 l 255 696 l 255 258 q 291 154 255 189 q 390 120 327 120 q 502 158 465 120 q 538 279 538 195 l 538 696 l 706 696 l 706 187 l 714 0 l 541 0 l 538 103 q 523 70 534 88 q 490 32 511 52 q 434 -2 469 12 q 355 -16 398 -16 z "},"v":{"ha":764,"x_min":12,"x_max":753,"o":"m 304 0 l 12 696 l 199 696 q 388 188 379 211 q 570 696 441 334 l 753 696 l 457 0 l 304 0 z "},"w":{"ha":1143,"x_min":9,"x_max":1133,"o":"m 262 0 l 9 696 l 189 696 q 347 207 294 370 q 511 696 374 289 l 658 696 q 707 542 675 642 q 765 360 739 441 q 814 205 791 278 q 977 696 834 267 l 1133 696 l 869 0 l 729 0 q 571 473 586 428 q 403 0 545 398 l 262 0 z "},"x":{"ha":705,"x_min":7,"x_max":698,"o":"m 7 0 l 258 339 l 19 696 l 206 696 l 356 471 l 523 696 l 696 696 l 451 362 l 698 0 l 511 0 l 354 230 l 184 0 l 7 0 z "},"y":{"ha":755,"x_min":20,"x_max":742,"o":"m 172 -302 l 102 -188 q 243 -112 196 -151 q 307 -18 290 -73 l 316 16 l 20 696 l 195 696 l 397 197 l 570 696 l 742 696 l 460 -38 q 383 -165 431 -110 q 284 -252 336 -220 q 172 -302 233 -283 z "},"z":{"ha":676,"x_min":66,"x_max":630,"o":"m 66 0 l 66 89 l 394 562 l 83 562 l 83 696 l 612 696 l 612 608 l 281 134 l 630 134 l 630 0 l 66 0 z "},"{":{"ha":669,"x_min":101,"x_max":586,"o":"m 406 798 l 406 646 q 240 463 406 468 q 406 288 406 461 l 406 134 q 407 82 406 102 q 418 48 408 63 q 435 26 427 33 q 469 16 443 20 q 516 11 496 12 q 585 10 536 10 l 586 10 l 586 -122 l 580 -122 q 448 -118 501 -122 q 354 -101 395 -113 q 291 -71 314 -88 q 255 -21 269 -53 q 236 47 241 10 q 232 140 232 83 l 232 296 q 207 388 232 365 q 110 411 182 411 l 101 411 l 101 512 l 110 512 q 208 536 184 512 q 233 633 233 560 l 233 789 q 237 883 233 846 q 257 950 242 920 q 295 998 272 981 q 359 1026 318 1015 q 454 1042 401 1038 q 586 1046 507 1046 l 586 913 l 534 913 q 487 913 503 913 q 453 908 470 912 q 429 897 436 904 q 415 877 422 890 q 407 844 409 863 q 406 798 406 826 z "},"|":{"ha":268,"x_min":54,"x_max":214,"o":"m 54 -309 l 54 1021 l 214 1021 l 214 -309 l 54 -309 z "},"}":{"ha":666,"x_min":73,"x_max":558,"o":"m 73 -122 l 73 9 l 125 9 q 173 10 156 9 q 206 15 189 11 q 230 26 223 19 q 244 46 237 33 q 252 79 250 60 q 254 125 254 97 l 254 277 q 419 460 254 455 q 254 635 254 461 l 254 789 q 252 841 254 821 q 241 875 251 860 q 224 897 232 890 q 190 907 216 903 q 143 912 163 911 q 73 913 122 913 l 73 913 l 73 1046 l 79 1046 q 211 1041 157 1046 q 304 1024 264 1037 q 367 994 345 1011 q 404 944 390 976 q 422 876 418 913 q 427 783 427 840 l 427 627 q 452 535 427 558 q 549 512 477 512 l 558 512 l 558 411 l 549 411 q 451 387 475 411 q 427 290 427 363 l 427 134 q 422 40 427 77 q 402 -27 417 3 q 364 -74 387 -58 q 300 -103 341 -91 q 205 -118 258 -115 q 73 -122 153 -122 z "},"~":{"ha":1023,"x_min":123,"x_max":883,"o":"m 227 249 l 123 299 q 163 402 142 362 q 211 462 184 443 q 261 488 237 481 q 320 494 286 494 q 519 451 396 494 q 694 411 623 411 q 732 416 720 411 q 755 443 745 422 q 776 513 765 465 l 883 465 q 837 338 862 381 q 783 281 812 294 q 707 267 755 267 q 479 315 625 267 q 333 349 380 349 q 270 331 290 349 q 227 249 250 313 z "},"":{"ha":1031,"x_min":127,"x_max":904,"o":"m 127 0 l 127 987 l 904 987 l 904 0 l 127 0 m 244 84 l 787 84 l 787 902 l 244 902 l 244 84 z "}," ":{"ha":406,"x_min":0,"x_max":0,"o":""},"¡":{"ha":533,"x_min":151,"x_max":364,"o":"m 151 784 l 364 784 l 364 599 l 151 599 l 151 784 m 209 522 l 309 522 l 359 -203 l 159 -203 l 209 522 z "},"¢":{"ha":730,"x_min":73,"x_max":687,"o":"m 411 -164 l 505 -164 l 505 -11 q 683 62 597 3 l 632 186 q 624 179 631 185 q 612 171 616 174 q 600 163 609 169 q 585 153 591 157 q 568 145 578 150 q 549 136 558 140 q 528 130 540 133 q 505 124 517 126 l 505 573 q 627 511 572 560 l 687 620 q 505 709 618 692 l 505 848 l 411 848 l 411 713 q 164 603 255 705 q 73 349 73 501 q 96 216 73 279 q 160 103 118 153 q 267 21 202 53 q 411 -15 332 -10 l 411 -164 m 411 574 l 411 124 q 291 199 334 139 q 248 348 248 259 q 289 501 248 441 q 411 574 331 562 z "},"£":{"ha":851,"x_min":99,"x_max":799,"o":"m 740 827 q 563 869 646 869 q 433 818 474 869 q 393 644 393 766 l 393 571 l 622 571 l 622 440 l 392 440 l 392 419 q 381 247 392 314 q 341 138 371 180 l 799 138 l 799 0 l 99 0 l 99 126 q 121 146 102 130 q 146 171 140 163 q 169 199 153 179 q 192 237 184 218 q 208 282 199 255 q 221 345 217 310 q 224 422 224 380 l 224 440 l 99 440 l 99 571 l 222 571 l 222 605 q 230 731 222 676 q 260 840 238 787 q 317 929 281 894 q 413 985 353 964 q 552 1006 472 1006 q 781 957 690 1006 l 740 827 z "},"¤":{"ha":826,"x_min":81,"x_max":745,"o":"m 413 481 q 559 542 501 481 q 618 692 618 603 q 559 842 618 781 q 413 903 501 903 q 267 842 325 903 q 208 692 208 781 q 267 542 208 603 q 413 481 325 481 m 116 368 l 81 403 l 208 530 q 149 694 149 602 q 213 865 149 792 l 81 998 l 115 1032 l 249 899 q 414 956 320 956 q 578 900 505 956 l 711 1032 l 745 998 l 614 867 q 680 694 680 793 q 619 528 680 600 l 745 403 l 711 368 l 585 494 q 414 433 511 433 q 243 495 317 433 l 116 368 z "},"¥":{"ha":868,"x_min":-8,"x_max":876,"o":"m 92 186 l 92 284 l 344 284 l 344 379 l 92 379 l 92 481 l 286 481 l -8 987 l 188 987 l 433 535 l 675 987 l 876 987 l 574 481 l 767 481 l 767 379 l 516 379 l 516 284 l 769 284 l 769 186 l 516 186 l 516 0 l 344 0 l 344 186 l 92 186 z "},"¦":{"ha":339,"x_min":62,"x_max":231,"o":"m 62 383 l 62 1021 l 230 1021 l 230 383 l 62 383 m 64 -309 l 64 281 l 231 281 l 231 -309 l 64 -309 z "},"§":{"ha":749,"x_min":116,"x_max":644,"o":"m 436 401 q 457 465 457 429 q 455 485 457 476 q 446 503 453 494 q 433 516 439 511 q 414 529 428 522 q 391 541 399 536 q 361 554 382 545 q 328 569 340 564 q 302 541 315 560 q 288 497 288 522 q 293 474 288 484 q 313 456 298 465 q 340 441 328 447 q 384 424 353 436 q 436 401 414 412 m 354 -41 q 127 0 239 -41 l 127 142 q 235 111 174 123 q 347 98 296 98 q 423 117 393 98 q 452 174 452 136 q 419 217 452 196 q 257 300 385 238 q 154 378 191 331 q 116 483 116 425 q 204 640 116 576 q 149 707 166 669 q 132 800 132 745 q 206 952 132 900 q 395 1004 281 1004 q 598 970 498 1004 l 598 833 q 553 846 587 836 q 484 865 519 857 q 418 873 448 873 q 347 857 376 873 q 317 809 317 840 q 353 750 317 779 q 463 686 389 721 q 533 648 508 663 q 587 608 557 632 q 630 554 616 583 q 644 490 644 525 q 556 334 644 406 q 637 178 637 287 q 598 55 637 105 q 496 -19 558 4 q 354 -41 433 -41 z "},"¨":{"ha":504,"x_min":12,"x_max":489,"o":"m 323 781 l 323 933 l 489 933 l 489 781 l 323 781 m 12 781 l 12 933 l 180 933 l 180 781 l 12 781 z "},"©":{"ha":1162,"x_min":72,"x_max":1090,"o":"m 581 -15 q 421 11 498 -15 q 280 85 343 37 q 171 195 218 132 q 98 336 123 258 q 72 496 72 414 q 112 694 72 600 q 221 857 153 788 q 384 965 289 925 q 581 1006 478 1006 q 779 965 684 1006 q 941 857 873 925 q 1049 694 1009 788 q 1090 496 1090 600 q 1049 298 1090 393 q 941 135 1009 203 q 779 26 873 66 q 581 -15 684 -15 m 580 63 q 791 122 694 63 q 943 279 888 180 q 999 494 999 378 q 943 708 999 610 q 791 865 888 807 q 580 923 694 923 q 369 865 465 923 q 216 708 272 807 q 161 494 161 610 q 216 279 161 378 q 369 122 272 180 q 580 63 465 63 m 594 192 q 464 217 522 192 q 370 284 406 241 q 315 380 334 326 q 296 493 296 433 q 377 708 296 623 q 593 793 457 793 q 800 715 727 793 l 751 627 q 608 681 688 681 q 484 630 527 681 q 441 493 441 578 q 486 356 441 408 q 612 304 530 304 q 657 309 635 304 q 691 318 679 313 q 721 333 703 322 q 740 345 739 344 q 755 357 742 347 l 797 254 q 594 192 708 192 z "},"ª":{"ha":589,"x_min":73,"x_max":516,"o":"m 245 576 q 286 583 265 576 q 327 603 307 590 q 359 641 347 616 q 372 698 372 666 l 372 707 q 221 695 256 707 q 186 635 186 684 q 204 593 186 609 q 245 576 222 576 m 236 489 q 121 527 169 489 q 73 635 73 566 q 118 743 73 705 q 253 781 163 781 l 374 781 l 374 808 q 286 892 374 892 q 216 883 254 892 q 156 865 178 873 l 133 856 l 94 954 q 120 967 103 960 q 191 988 137 975 q 301 1001 245 1001 q 380 991 345 1001 q 445 959 416 981 q 491 897 475 937 q 507 803 507 857 q 509 616 507 789 q 516 511 511 544 l 393 511 l 382 578 q 334 517 372 545 q 236 489 296 489 z "},"«":{"ha":798,"x_min":92,"x_max":719,"o":"m 579 107 l 391 367 l 583 625 l 719 625 l 557 366 l 713 107 l 579 107 m 280 107 l 92 367 l 284 625 l 420 625 l 258 366 l 414 107 l 280 107 z "},"¬":{"ha":988,"x_min":111,"x_max":833,"o":"m 675 149 l 675 413 l 111 413 l 111 552 l 833 552 l 833 149 l 675 149 z "},"­":{"ha":501,"x_min":37,"x_max":465,"o":"m 37 310 l 37 439 l 465 439 l 465 310 l 37 310 z "},"®":{"ha":1162,"x_min":72,"x_max":1090,"o":"m 581 -15 q 421 11 498 -15 q 280 85 343 37 q 171 195 218 132 q 98 336 123 258 q 72 496 72 414 q 112 694 72 600 q 221 857 153 788 q 384 965 289 925 q 581 1006 478 1006 q 779 965 684 1006 q 941 857 873 925 q 1049 694 1009 788 q 1090 496 1090 600 q 1049 298 1090 393 q 941 135 1009 203 q 779 26 873 66 q 581 -15 684 -15 m 580 63 q 791 122 694 63 q 943 279 888 180 q 999 494 999 378 q 943 708 999 610 q 791 865 888 807 q 580 923 694 923 q 369 865 465 923 q 216 708 272 807 q 161 494 161 610 q 216 279 161 378 q 369 122 272 180 q 580 63 465 63 m 498 534 l 559 534 q 659 550 626 534 q 691 607 691 565 q 669 668 691 656 q 572 680 648 680 l 498 680 l 498 534 m 352 197 l 352 794 l 568 794 q 771 749 707 794 q 836 615 836 704 q 716 451 836 484 l 844 197 l 684 197 l 581 427 l 498 427 l 498 197 l 352 197 z "},"¯":{"ha":513,"x_min":45,"x_max":468,"o":"m 45 777 l 45 884 l 468 884 l 468 777 l 45 777 z "},"°":{"ha":601,"x_min":87,"x_max":513,"o":"m 300 576 q 150 636 213 576 q 87 785 87 697 q 150 933 87 871 q 300 994 213 994 q 451 933 388 994 q 513 785 513 872 q 451 636 513 696 q 300 576 389 576 m 300 667 q 382 701 349 667 q 415 784 415 734 q 382 867 415 833 q 300 901 349 901 q 220 867 252 901 q 188 784 188 833 q 220 701 188 734 q 300 667 253 667 z "},"±":{"ha":863,"x_min":129,"x_max":732,"o":"m 129 0 l 129 125 l 732 125 l 732 0 l 129 0 m 349 197 l 349 401 l 129 401 l 129 537 l 345 537 l 345 745 l 506 745 l 506 537 l 731 537 l 731 401 l 513 401 l 513 197 l 349 197 z "},"²":{"ha":727,"x_min":142,"x_max":564,"o":"m 153 416 l 153 539 l 330 693 q 421 814 421 771 q 352 873 421 873 q 182 829 283 873 l 142 942 q 362 994 254 994 q 507 950 450 994 q 564 816 564 905 q 527 708 564 758 q 420 601 489 659 l 359 551 l 555 551 l 555 416 l 153 416 z "},"³":{"ha":616,"x_min":130,"x_max":551,"o":"m 340 410 q 138 473 229 410 l 180 564 q 330 513 267 513 q 395 536 372 513 q 419 595 419 559 q 391 647 419 627 q 315 667 363 667 l 251 667 l 251 764 l 314 764 q 379 783 353 764 q 405 828 405 802 q 382 878 405 861 q 321 895 359 895 q 172 851 254 895 l 130 935 q 346 992 235 992 q 479 956 427 992 q 530 847 530 920 q 437 728 530 760 q 525 674 498 711 q 551 593 551 637 q 521 489 551 532 q 444 428 490 446 q 340 410 397 410 z "},"´":{"ha":412,"x_min":26,"x_max":421,"o":"m 26 791 l 205 987 l 421 987 l 181 791 l 26 791 z "},"µ":{"ha":834,"x_min":86,"x_max":751,"o":"m 543 193 q 406 122 490 122 q 320 163 347 122 q 294 298 294 203 l 294 734 l 86 734 l 86 -214 l 294 -214 l 294 -10 q 341 -14 316 -14 q 562 103 488 -14 l 572 0 l 751 0 l 751 734 l 543 734 l 543 193 z "},"¶":{"ha":831,"x_min":62,"x_max":722,"o":"m 279 -121 l 279 535 q 116 604 171 545 q 62 766 62 663 q 78 857 62 818 q 121 920 94 896 q 191 960 149 945 q 280 981 233 975 q 387 987 327 987 l 722 987 l 722 857 l 672 857 l 672 -121 l 532 -121 l 532 857 l 418 857 l 418 -121 l 279 -121 z "},"·":{"ha":404,"x_min":127,"x_max":333,"o":"m 127 380 l 127 572 l 333 572 l 333 380 l 127 380 z "},"¸":{"ha":359,"x_min":12,"x_max":326,"o":"m 12 -289 l 19 -199 q 75 -217 41 -209 q 137 -225 108 -225 q 205 -176 205 -225 q 102 -95 205 -111 l 82 -92 l 103 26 l 187 26 l 176 -51 q 288 -97 249 -56 q 326 -192 326 -138 q 322 -230 326 -212 q 309 -261 317 -248 q 290 -287 301 -275 q 264 -306 278 -298 q 234 -319 250 -313 q 200 -327 217 -324 q 163 -329 182 -329 q 12 -289 82 -329 z "},"¹":{"ha":577,"x_min":92,"x_max":515,"o":"m 100 424 l 100 536 l 248 536 l 248 861 q 215 855 252 863 q 138 837 179 846 q 92 826 96 827 l 92 942 q 124 951 104 945 q 186 970 144 958 q 254 990 228 983 q 278 996 281 997 l 387 993 l 387 534 l 515 534 l 515 424 l 100 424 z "},"º":{"ha":619,"x_min":50,"x_max":570,"o":"m 312 484 q 118 553 186 484 q 50 732 50 622 q 120 909 50 839 q 310 979 190 979 q 500 908 431 979 q 570 730 570 837 q 501 554 570 625 q 312 484 432 484 m 310 592 q 404 630 368 592 q 439 730 439 668 q 404 832 439 795 q 311 870 369 870 q 217 832 254 870 q 180 731 180 794 q 215 629 180 667 q 310 592 250 592 z "},"»":{"ha":798,"x_min":91,"x_max":718,"o":"m 390 107 l 552 367 l 395 625 l 530 625 l 718 366 l 526 107 l 390 107 m 91 107 l 253 367 l 96 625 l 231 625 l 419 366 l 227 107 l 91 107 z "},"¼":{"ha":1433,"x_min":144,"x_max":1375,"o":"m 1052 223 l 1173 223 l 1173 395 l 1052 223 m 427 0 l 1027 987 l 1171 987 l 572 0 l 427 0 m 1174 1 l 1174 132 l 924 132 l 924 209 l 1174 552 l 1296 552 l 1296 223 l 1375 223 l 1375 132 l 1296 132 l 1296 1 l 1174 1 m 153 420 l 153 533 l 296 533 l 296 852 l 144 817 l 144 935 q 175 944 155 939 q 234 962 194 950 q 300 981 275 974 q 324 987 326 989 l 430 987 l 430 532 l 555 532 l 555 420 l 153 420 z "},"½":{"ha":1732,"x_min":123,"x_max":1497,"o":"m 132 420 l 132 533 l 275 533 l 275 852 l 123 817 l 123 935 q 154 944 134 939 q 213 962 173 950 q 279 981 254 974 q 303 987 305 989 l 409 987 l 409 532 l 534 532 l 534 420 l 132 420 m 433 0 l 1033 987 l 1177 987 l 578 0 l 433 0 m 1360 381 q 1287 458 1360 458 q 1121 412 1213 458 l 1079 521 q 1297 577 1186 577 q 1396 559 1353 577 q 1466 502 1438 542 q 1497 401 1494 461 l 1497 393 q 1458 284 1497 336 q 1352 180 1420 233 l 1289 131 l 1489 131 l 1489 0 l 1088 0 l 1088 115 l 1274 264 q 1342 330 1324 304 q 1360 381 1360 355 z "},"¾":{"ha":1718,"x_min":155,"x_max":1395,"o":"m 1073 223 l 1194 223 l 1194 395 l 1073 223 m 441 0 l 1041 987 l 1185 987 l 586 0 l 441 0 m 1195 1 l 1195 132 l 945 132 l 945 209 l 1194 552 l 1317 552 l 1317 223 l 1395 223 l 1395 132 l 1317 132 l 1317 1 l 1195 1 m 363 409 q 162 473 251 409 l 203 564 q 353 513 288 513 q 420 534 396 513 q 444 593 444 556 q 415 647 444 626 q 336 667 386 667 l 274 667 l 274 764 l 335 764 q 402 782 375 764 q 429 827 429 800 q 346 892 429 892 q 196 848 275 892 l 155 933 q 368 991 259 991 q 500 955 450 991 q 551 845 551 918 q 457 726 551 755 q 545 674 518 711 q 572 591 572 637 q 512 455 572 501 q 363 409 452 409 z "},"¿":{"ha":700,"x_min":73,"x_max":589,"o":"m 513 789 l 513 604 l 300 604 l 300 789 l 513 789 m 484 511 l 484 418 q 471 348 484 382 q 437 287 458 314 q 391 234 416 260 q 340 183 366 208 q 294 136 315 159 q 260 86 273 113 q 247 32 247 59 q 284 -46 247 -21 q 385 -71 322 -71 q 496 -56 437 -71 q 589 -26 555 -41 l 589 -169 q 369 -218 498 -218 q 222 -192 288 -218 q 115 -109 157 -165 q 73 27 73 -52 q 88 106 73 68 q 127 172 103 143 q 181 227 152 200 q 240 280 211 254 q 294 333 270 306 q 334 394 319 360 q 349 467 349 429 l 349 511 l 484 511 z "},"À":{"ha":989,"x_min":8,"x_max":980,"o":"m 425 1082 l 186 1278 l 402 1278 l 580 1082 l 425 1082 m 355 401 l 620 401 q 489 786 542 633 q 355 401 445 658 m 8 0 l 405 987 l 580 987 l 980 0 l 785 0 l 690 241 l 291 241 l 197 0 l 8 0 z "},"Á":{"ha":989,"x_min":8,"x_max":980,"o":"m 420 1082 l 600 1279 l 815 1279 l 575 1082 l 420 1082 m 355 401 l 620 401 q 489 786 542 633 q 355 401 445 658 m 8 0 l 405 987 l 580 987 l 980 0 l 785 0 l 690 241 l 291 241 l 197 0 l 8 0 z "},"Â":{"ha":989,"x_min":8,"x_max":980,"o":"m 231 1095 l 406 1346 l 576 1346 l 756 1095 l 589 1095 l 496 1228 l 402 1095 l 231 1095 m 355 401 l 620 401 q 489 786 542 633 q 355 401 445 658 m 8 0 l 405 987 l 580 987 l 980 0 l 785 0 l 690 241 l 291 241 l 197 0 l 8 0 z "},"Ã":{"ha":989,"x_min":8,"x_max":980,"o":"m 536 1088 l 536 1088 q 467 1106 507 1088 q 392 1142 427 1124 q 340 1160 357 1160 q 312 1143 326 1160 q 294 1091 298 1126 l 186 1091 q 227 1233 186 1178 q 334 1289 268 1289 q 408 1272 368 1289 q 480 1236 448 1255 q 527 1216 513 1218 q 532 1216 529 1216 q 537 1215 536 1215 q 569 1231 557 1215 q 579 1289 580 1246 l 689 1289 q 648 1138 689 1188 q 536 1088 608 1088 m 355 401 l 620 401 q 489 786 542 633 q 355 401 445 658 m 8 0 l 405 987 l 580 987 l 980 0 l 785 0 l 690 241 l 291 241 l 197 0 l 8 0 z "},"Ä":{"ha":989,"x_min":8,"x_max":980,"o":"m 563 1072 l 563 1225 l 729 1225 l 729 1072 l 563 1072 m 252 1072 l 252 1225 l 420 1225 l 420 1072 l 252 1072 m 355 401 l 620 401 q 489 786 542 633 q 355 401 445 658 m 8 0 l 405 987 l 580 987 l 980 0 l 785 0 l 690 241 l 291 241 l 197 0 l 8 0 z "},"Å":{"ha":989,"x_min":8,"x_max":980,"o":"m 492 1074 q 386 1115 429 1074 q 342 1218 342 1156 q 386 1321 342 1280 q 492 1362 429 1362 q 598 1321 554 1362 q 642 1218 642 1280 q 598 1115 642 1156 q 492 1074 554 1074 m 492 1144 q 544 1166 522 1144 q 565 1218 565 1187 q 544 1270 565 1249 q 492 1291 522 1291 q 441 1270 463 1291 q 420 1218 420 1249 q 441 1166 420 1187 q 492 1144 463 1144 m 355 401 l 620 401 q 489 786 542 633 q 355 401 445 658 m 8 0 l 405 987 l 580 987 l 980 0 l 785 0 l 690 241 l 291 241 l 197 0 l 8 0 z "},"Æ":{"ha":1502,"x_min":13,"x_max":1354,"o":"m 430 378 l 747 378 l 715 834 l 692 834 l 430 378 m 13 0 l 601 987 l 1336 987 l 1336 834 l 890 834 l 913 579 l 1335 579 l 1335 430 l 932 430 l 959 153 l 1354 153 l 1354 0 l 779 0 l 759 241 l 363 241 l 226 0 l 13 0 z "},"Ç":{"ha":974,"x_min":72,"x_max":908,"o":"m 431 -289 l 439 -199 q 494 -217 461 -209 q 557 -225 528 -225 q 625 -176 625 -225 q 522 -95 625 -111 l 502 -92 l 523 26 l 607 26 l 595 -51 q 707 -97 669 -56 q 746 -192 746 -138 q 742 -230 746 -212 q 729 -261 737 -248 q 709 -287 721 -275 q 684 -306 698 -298 q 653 -319 670 -313 q 620 -327 637 -324 q 583 -329 602 -329 q 431 -289 502 -329 m 566 -15 q 380 19 469 -15 q 223 115 292 52 q 113 275 154 177 q 72 493 72 373 q 99 679 72 593 q 174 823 127 764 q 282 924 220 882 q 412 986 344 966 q 553 1006 481 1006 q 882 899 747 1006 l 815 779 q 567 857 703 857 q 447 832 504 857 q 347 762 391 807 q 278 647 304 716 q 252 495 252 578 q 345 233 252 332 q 578 134 437 134 q 850 233 726 134 l 908 97 q 566 -15 764 -15 z "},"È":{"ha":847,"x_min":129,"x_max":772,"o":"m 383 1082 l 145 1278 l 361 1278 l 538 1082 l 383 1082 m 129 0 l 129 987 l 752 987 l 752 840 l 301 840 l 301 576 l 728 576 l 728 427 l 303 427 l 303 148 l 772 148 l 772 0 l 129 0 z "},"É":{"ha":847,"x_min":129,"x_max":774,"o":"m 379 1082 l 558 1279 l 774 1279 l 534 1082 l 379 1082 m 129 0 l 129 987 l 752 987 l 752 840 l 301 840 l 301 576 l 728 576 l 728 427 l 303 427 l 303 148 l 772 148 l 772 0 l 129 0 z "},"Ê":{"ha":847,"x_min":129,"x_max":772,"o":"m 189 1095 l 363 1346 l 534 1346 l 714 1095 l 547 1095 l 454 1228 l 360 1095 l 189 1095 m 129 0 l 129 987 l 752 987 l 752 840 l 301 840 l 301 576 l 728 576 l 728 427 l 303 427 l 303 148 l 772 148 l 772 0 l 129 0 z "},"Ë":{"ha":847,"x_min":129,"x_max":772,"o":"m 521 1072 l 521 1225 l 687 1225 l 687 1072 l 521 1072 m 210 1072 l 210 1225 l 378 1225 l 378 1072 l 210 1072 m 129 0 l 129 987 l 752 987 l 752 840 l 301 840 l 301 576 l 728 576 l 728 427 l 303 427 l 303 148 l 772 148 l 772 0 l 129 0 z "},"Ì":{"ha":397,"x_min":-115,"x_max":281,"o":"m 123 1082 l -115 1278 l 101 1278 l 279 1082 l 123 1082 m 109 0 l 109 987 l 281 987 l 281 0 l 109 0 z "},"Í":{"ha":397,"x_min":109,"x_max":514,"o":"m 119 1082 l 298 1279 l 514 1279 l 274 1082 l 119 1082 m 109 0 l 109 987 l 281 987 l 281 0 l 109 0 z "},"Î":{"ha":397,"x_min":-71,"x_max":454,"o":"m -71 1095 l 104 1346 l 275 1346 l 454 1095 l 287 1095 l 195 1228 l 100 1095 l -71 1095 m 109 0 l 109 987 l 281 987 l 281 0 l 109 0 z "},"Ï":{"ha":397,"x_min":-50,"x_max":427,"o":"m 261 1072 l 261 1225 l 427 1225 l 427 1072 l 261 1072 m -50 1072 l -50 1225 l 118 1225 l 118 1072 l -50 1072 m 109 0 l 109 987 l 281 987 l 281 0 l 109 0 z "},"Ð":{"ha":1065,"x_min":18,"x_max":994,"o":"m 18 451 l 18 553 l 439 553 l 439 451 l 18 451 m 129 0 l 129 987 l 404 987 q 847 862 701 987 q 994 500 994 736 q 850 127 994 255 q 432 0 707 0 l 129 0 m 301 148 l 441 148 q 715 237 620 148 q 811 500 811 327 q 714 752 811 665 q 420 840 618 840 l 301 840 l 301 148 z "},"Ñ":{"ha":1105,"x_min":129,"x_max":977,"o":"m 609 1088 l 608 1088 q 540 1106 580 1088 q 465 1142 500 1124 q 413 1160 429 1160 q 384 1143 398 1160 q 367 1091 370 1126 l 258 1091 q 299 1233 258 1178 q 406 1289 340 1289 q 480 1272 441 1289 q 553 1236 520 1255 q 600 1216 586 1218 q 605 1216 602 1216 q 610 1215 608 1215 q 641 1231 630 1215 q 652 1289 652 1246 l 762 1289 q 721 1138 762 1188 q 609 1088 680 1088 m 129 0 l 129 987 l 311 987 q 812 260 782 305 l 812 987 l 977 987 l 977 0 l 793 0 q 288 728 338 657 l 288 0 l 129 0 z "},"Ò":{"ha":1133,"x_min":72,"x_max":1061,"o":"m 497 1082 l 259 1278 l 475 1278 l 652 1082 l 497 1082 m 570 -16 q 205 124 338 -16 q 72 498 72 263 q 206 867 72 728 q 572 1006 340 1006 q 929 867 796 1006 q 1061 498 1061 728 q 930 123 1061 262 q 570 -16 800 -16 m 566 132 q 795 227 717 132 q 874 498 874 322 q 795 764 874 669 q 568 859 717 859 q 338 764 418 859 q 258 498 258 669 q 336 227 258 321 q 566 132 414 132 z "},"Ó":{"ha":1133,"x_min":72,"x_max":1061,"o":"m 493 1082 l 672 1279 l 888 1279 l 648 1082 l 493 1082 m 570 -16 q 205 124 338 -16 q 72 498 72 263 q 206 867 72 728 q 572 1006 340 1006 q 929 867 796 1006 q 1061 498 1061 728 q 930 123 1061 262 q 570 -16 800 -16 m 566 132 q 795 227 717 132 q 874 498 874 322 q 795 764 874 669 q 568 859 717 859 q 338 764 418 859 q 258 498 258 669 q 336 227 258 321 q 566 132 414 132 z "},"Ô":{"ha":1133,"x_min":72,"x_max":1061,"o":"m 304 1095 l 478 1346 l 649 1346 l 829 1095 l 661 1095 l 569 1228 l 475 1095 l 304 1095 m 570 -16 q 205 124 338 -16 q 72 498 72 263 q 206 867 72 728 q 572 1006 340 1006 q 929 867 796 1006 q 1061 498 1061 728 q 930 123 1061 262 q 570 -16 800 -16 m 566 132 q 795 227 717 132 q 874 498 874 322 q 795 764 874 669 q 568 859 717 859 q 338 764 418 859 q 258 498 258 669 q 336 227 258 321 q 566 132 414 132 z "},"Õ":{"ha":1133,"x_min":72,"x_max":1061,"o":"m 609 1088 l 608 1088 q 540 1106 580 1088 q 465 1142 500 1124 q 413 1160 429 1160 q 384 1143 398 1160 q 367 1091 370 1126 l 258 1091 q 299 1233 258 1178 q 406 1289 340 1289 q 480 1272 441 1289 q 553 1236 520 1255 q 600 1216 586 1218 q 605 1216 602 1216 q 610 1215 608 1215 q 641 1231 630 1215 q 652 1289 652 1246 l 762 1289 q 721 1138 762 1188 q 609 1088 680 1088 m 570 -16 q 205 124 338 -16 q 72 498 72 263 q 206 867 72 728 q 572 1006 340 1006 q 929 867 796 1006 q 1061 498 1061 728 q 930 123 1061 262 q 570 -16 800 -16 m 566 132 q 795 227 717 132 q 874 498 874 322 q 795 764 874 669 q 568 859 717 859 q 338 764 418 859 q 258 498 258 669 q 336 227 258 321 q 566 132 414 132 z "},"Ö":{"ha":1133,"x_min":72,"x_max":1061,"o":"m 635 1072 l 635 1225 l 802 1225 l 802 1072 l 635 1072 m 325 1072 l 325 1225 l 492 1225 l 492 1072 l 325 1072 m 570 -16 q 205 124 338 -16 q 72 498 72 263 q 206 867 72 728 q 572 1006 340 1006 q 929 867 796 1006 q 1061 498 1061 728 q 930 123 1061 262 q 570 -16 800 -16 m 566 132 q 795 227 717 132 q 874 498 874 322 q 795 764 874 669 q 568 859 717 859 q 338 764 418 859 q 258 498 258 669 q 336 227 258 321 q 566 132 414 132 z "},"×":{"ha":863,"x_min":136,"x_max":720,"o":"m 245 79 l 136 189 l 319 371 l 136 553 l 245 663 l 428 481 l 612 663 l 720 554 l 537 371 l 720 187 l 612 79 l 428 262 l 245 79 z "},"Ø":{"ha":1133,"x_min":72,"x_max":1061,"o":"m 570 -16 q 930 123 800 -16 q 1061 498 1061 262 q 1007 754 1061 643 q 851 930 952 866 l 906 1033 l 827 1068 l 774 970 q 572 1006 684 1006 q 206 867 340 1006 q 72 498 72 728 q 127 236 72 349 q 287 58 183 122 l 229 -51 l 307 -87 l 363 20 q 570 -16 456 -16 m 774 787 q 874 498 874 694 q 795 227 874 322 q 566 132 717 132 q 435 154 491 132 l 774 787 m 702 833 l 362 199 q 258 498 258 291 q 338 764 258 669 q 568 859 418 859 q 702 833 644 859 z "},"Ù":{"ha":1023,"x_min":111,"x_max":912,"o":"m 435 1082 l 197 1278 l 412 1278 l 590 1082 l 435 1082 m 512 -16 q 345 7 417 -16 q 230 68 273 31 q 159 162 186 106 q 121 276 132 218 q 111 406 111 334 l 111 987 l 283 987 l 283 399 q 295 291 283 338 q 327 214 307 244 q 376 165 347 184 q 438 139 406 146 q 511 132 471 132 q 603 144 563 132 q 674 187 642 157 q 723 270 706 216 q 740 399 740 323 l 740 987 l 912 987 l 912 406 q 903 277 912 334 q 866 163 893 219 q 796 68 840 106 q 681 7 753 31 q 512 -16 608 -16 z "},"Ú":{"ha":1023,"x_min":111,"x_max":912,"o":"m 431 1082 l 610 1279 l 825 1279 l 585 1082 l 431 1082 m 512 -16 q 345 7 417 -16 q 230 68 273 31 q 159 162 186 106 q 121 276 132 218 q 111 406 111 334 l 111 987 l 283 987 l 283 399 q 295 291 283 338 q 327 214 307 244 q 376 165 347 184 q 438 139 406 146 q 511 132 471 132 q 603 144 563 132 q 674 187 642 157 q 723 270 706 216 q 740 399 740 323 l 740 987 l 912 987 l 912 406 q 903 277 912 334 q 866 163 893 219 q 796 68 840 106 q 681 7 753 31 q 512 -16 608 -16 z "},"Û":{"ha":1023,"x_min":111,"x_max":912,"o":"m 241 1095 l 416 1346 l 587 1346 l 766 1095 l 599 1095 l 507 1228 l 412 1095 l 241 1095 m 512 -16 q 345 7 417 -16 q 230 68 273 31 q 159 162 186 106 q 121 276 132 218 q 111 406 111 334 l 111 987 l 283 987 l 283 399 q 295 291 283 338 q 327 214 307 244 q 376 165 347 184 q 438 139 406 146 q 511 132 471 132 q 603 144 563 132 q 674 187 642 157 q 723 270 706 216 q 740 399 740 323 l 740 987 l 912 987 l 912 406 q 903 277 912 334 q 866 163 893 219 q 796 68 840 106 q 681 7 753 31 q 512 -16 608 -16 z "},"Ü":{"ha":1023,"x_min":111,"x_max":912,"o":"m 573 1072 l 573 1225 l 739 1225 l 739 1072 l 573 1072 m 262 1072 l 262 1225 l 430 1225 l 430 1072 l 262 1072 m 512 -16 q 345 7 417 -16 q 230 68 273 31 q 159 162 186 106 q 121 276 132 218 q 111 406 111 334 l 111 987 l 283 987 l 283 399 q 295 291 283 338 q 327 214 307 244 q 376 165 347 184 q 438 139 406 146 q 511 132 471 132 q 603 144 563 132 q 674 187 642 157 q 723 270 706 216 q 740 399 740 323 l 740 987 l 912 987 l 912 406 q 903 277 912 334 q 866 163 893 219 q 796 68 840 106 q 681 7 753 31 q 512 -16 608 -16 z "},"Ý":{"ha":869,"x_min":-9,"x_max":875,"o":"m 370 1082 l 549 1279 l 764 1279 l 524 1082 l 370 1082 m 342 0 l 342 382 l -9 987 l 186 987 l 431 535 l 674 987 l 875 987 l 515 382 l 515 0 l 342 0 z "},"Þ":{"ha":882,"x_min":129,"x_max":828,"o":"m 298 370 l 448 370 q 643 525 643 370 q 628 603 643 572 q 581 652 612 635 q 511 676 550 669 q 415 683 471 683 l 298 683 l 298 370 m 129 0 l 129 987 l 300 987 l 300 829 l 407 829 q 541 822 482 829 q 655 795 600 815 q 747 741 711 774 q 806 653 784 708 q 828 524 828 598 q 806 412 828 463 q 747 326 785 361 q 657 267 709 291 q 546 232 605 243 q 420 221 486 221 l 298 221 l 298 0 l 129 0 z "},"ß":{"ha":858,"x_min":98,"x_max":812,"o":"m 517 119 q 625 227 625 119 q 573 359 625 304 q 387 481 520 414 l 387 608 q 483 679 441 632 q 524 777 524 725 q 491 844 524 819 q 412 868 458 868 q 303 819 345 868 q 262 677 262 770 l 262 0 l 100 0 l 98 678 q 180 921 97 840 q 412 1002 264 1002 q 625 942 542 1002 q 707 787 707 882 q 673 667 707 725 q 577 578 639 608 q 505 550 544 561 q 623 511 569 536 q 720 448 677 486 q 788 358 764 411 q 812 240 812 304 q 741 55 812 125 q 562 -15 669 -15 q 454 -5 509 -15 q 370 15 399 5 l 342 25 l 372 156 q 395 146 380 152 q 448 129 409 140 q 517 119 486 119 z "},"à":{"ha":876,"x_min":73,"x_max":783,"o":"m 399 791 l 161 987 l 376 987 l 554 791 l 399 791 m 437 120 q 579 182 534 120 q 623 348 623 244 q 576 516 623 454 q 433 577 529 577 q 290 515 340 577 q 240 349 240 454 q 290 182 240 245 q 437 120 340 120 m 416 -16 q 264 15 331 -16 q 156 96 197 45 q 94 210 115 147 q 73 340 73 272 q 95 478 73 413 q 158 597 117 544 q 269 682 200 650 q 424 713 337 713 q 618 622 550 713 l 618 696 l 783 696 l 783 0 l 614 0 l 614 95 q 416 -16 538 -16 z "},"á":{"ha":876,"x_min":73,"x_max":789,"o":"m 394 791 l 573 987 l 789 987 l 549 791 l 394 791 m 437 120 q 579 182 534 120 q 623 348 623 244 q 576 516 623 454 q 433 577 529 577 q 290 515 340 577 q 240 349 240 454 q 290 182 240 245 q 437 120 340 120 m 416 -16 q 264 15 331 -16 q 156 96 197 45 q 94 210 115 147 q 73 340 73 272 q 95 478 73 413 q 158 597 117 544 q 269 682 200 650 q 424 713 337 713 q 618 622 550 713 l 618 696 l 783 696 l 783 0 l 614 0 l 614 95 q 416 -16 538 -16 z "},"â":{"ha":876,"x_min":73,"x_max":783,"o":"m 205 804 l 379 1055 l 550 1055 l 730 804 l 562 804 l 470 937 l 376 804 l 205 804 m 437 120 q 579 182 534 120 q 623 348 623 244 q 576 516 623 454 q 433 577 529 577 q 290 515 340 577 q 240 349 240 454 q 290 182 240 245 q 437 120 340 120 m 416 -16 q 264 15 331 -16 q 156 96 197 45 q 94 210 115 147 q 73 340 73 272 q 95 478 73 413 q 158 597 117 544 q 269 682 200 650 q 424 713 337 713 q 618 622 550 713 l 618 696 l 783 696 l 783 0 l 614 0 l 614 95 q 416 -16 538 -16 z "},"ã":{"ha":876,"x_min":73,"x_max":783,"o":"m 510 796 l 509 796 q 441 814 481 796 q 366 851 401 833 q 314 869 330 869 q 285 852 299 869 q 268 800 271 835 l 159 800 q 200 942 159 886 q 307 997 241 997 q 381 980 342 997 q 454 945 421 963 q 500 924 487 926 q 506 924 503 924 q 511 924 509 924 q 542 939 531 924 q 553 997 553 954 l 663 997 q 622 847 663 897 q 510 796 581 797 m 437 120 q 579 182 534 120 q 623 348 623 244 q 576 516 623 454 q 433 577 529 577 q 290 515 340 577 q 240 349 240 454 q 290 182 240 245 q 437 120 340 120 m 416 -16 q 264 15 331 -16 q 156 96 197 45 q 94 210 115 147 q 73 340 73 272 q 95 478 73 413 q 158 597 117 544 q 269 682 200 650 q 424 713 337 713 q 618 622 550 713 l 618 696 l 783 696 l 783 0 l 614 0 l 614 95 q 416 -16 538 -16 z "},"ä":{"ha":876,"x_min":73,"x_max":783,"o":"m 536 781 l 536 933 l 703 933 l 703 781 l 536 781 m 226 781 l 226 933 l 393 933 l 393 781 l 226 781 m 437 120 q 579 182 534 120 q 623 348 623 244 q 576 516 623 454 q 433 577 529 577 q 290 515 340 577 q 240 349 240 454 q 290 182 240 245 q 437 120 340 120 m 416 -16 q 264 15 331 -16 q 156 96 197 45 q 94 210 115 147 q 73 340 73 272 q 95 478 73 413 q 158 597 117 544 q 269 682 200 650 q 424 713 337 713 q 618 622 550 713 l 618 696 l 783 696 l 783 0 l 614 0 l 614 95 q 416 -16 538 -16 z "},"å":{"ha":876,"x_min":73,"x_max":783,"o":"m 465 782 q 359 823 403 782 q 316 926 316 865 q 359 1030 316 989 q 465 1071 402 1071 q 571 1030 528 1071 q 615 926 615 989 q 571 823 615 865 q 465 782 528 782 m 466 852 q 517 874 496 852 q 538 926 538 896 q 517 978 538 957 q 466 1000 496 1000 q 415 978 436 1000 q 394 926 394 957 q 415 874 394 896 q 466 852 436 852 m 437 120 q 579 182 534 120 q 623 348 623 244 q 576 516 623 454 q 433 577 529 577 q 290 515 340 577 q 240 349 240 454 q 290 182 240 245 q 437 120 340 120 m 416 -16 q 264 15 331 -16 q 156 96 197 45 q 94 210 115 147 q 73 340 73 272 q 95 478 73 413 q 158 597 117 544 q 269 682 200 650 q 424 713 337 713 q 618 622 550 713 l 618 696 l 783 696 l 783 0 l 614 0 l 614 95 q 416 -16 538 -16 z "},"æ":{"ha":1204,"x_min":47,"x_max":1124,"o":"m 664 429 l 977 429 l 977 444 q 931 553 975 514 q 832 591 887 591 q 725 546 767 591 q 664 429 682 501 m 326 120 q 393 132 363 120 q 441 163 422 144 q 473 208 460 182 q 492 261 486 234 q 498 317 498 288 l 431 317 q 349 311 387 317 q 279 293 311 305 q 229 258 248 281 q 211 206 211 236 q 243 141 211 162 q 326 120 275 120 m 321 -15 q 121 41 195 -15 q 47 199 47 97 q 147 382 47 332 q 471 433 246 433 l 499 433 q 458 541 498 500 q 345 583 418 583 q 151 528 266 583 l 102 639 q 382 713 226 713 q 503 680 439 713 q 597 586 566 646 q 697 680 629 646 q 833 713 766 713 l 836 713 q 968 684 911 713 q 1058 606 1025 656 q 1108 492 1092 555 q 1124 352 1124 428 l 1121 317 l 662 317 l 662 304 q 850 120 680 120 l 857 120 q 959 140 906 121 q 1041 178 1013 159 l 1069 196 l 1115 73 q 1102 64 1110 70 q 1065 43 1093 58 q 1009 16 1038 28 q 937 -5 980 4 q 851 -16 893 -15 l 843 -16 q 682 14 746 -16 q 581 117 617 44 q 475 16 547 47 q 321 -15 404 -15 z "},"ç":{"ha":726,"x_min":73,"x_max":687,"o":"m 288 -289 l 296 -199 q 351 -217 318 -209 q 414 -225 385 -225 q 482 -176 482 -225 q 378 -95 482 -111 l 359 -92 l 380 26 l 464 26 l 452 -51 q 564 -97 526 -56 q 603 -192 603 -138 q 598 -230 603 -212 q 586 -261 594 -248 q 566 -287 578 -275 q 541 -306 555 -298 q 510 -319 527 -313 q 476 -327 494 -324 q 440 -329 459 -329 q 288 -289 359 -329 m 437 -16 q 282 14 352 -16 q 167 95 212 44 q 98 211 122 146 q 73 349 73 277 q 116 534 73 452 q 241 665 158 616 q 435 713 324 713 q 687 620 599 713 l 627 511 q 452 578 551 578 q 300 515 353 578 q 248 348 248 453 q 304 183 248 245 q 458 120 360 120 q 485 121 471 120 q 509 125 498 123 q 532 131 520 127 q 552 137 544 134 q 570 146 560 140 q 586 154 581 151 q 601 163 592 157 q 613 172 610 170 q 624 179 616 174 q 632 186 631 185 l 683 62 q 566 3 625 22 q 437 -16 508 -16 z "},"è":{"ha":818,"x_min":73,"x_max":743,"o":"m 389 791 l 151 987 l 367 987 l 545 791 l 389 791 m 253 431 l 599 431 q 544 545 587 505 q 439 584 501 584 q 318 543 367 584 q 253 431 269 503 m 452 -16 q 175 85 276 -16 q 73 347 73 185 q 98 486 73 420 q 166 603 122 552 q 279 684 211 654 q 430 713 347 713 q 574 685 513 713 q 672 605 636 656 q 725 490 708 554 q 743 349 743 427 q 739 319 743 330 l 251 319 q 313 169 255 218 q 467 120 371 120 q 687 195 580 120 l 732 73 q 600 6 667 27 q 452 -16 533 -16 z "},"é":{"ha":818,"x_min":73,"x_max":780,"o":"m 253 431 l 599 431 q 544 545 587 505 q 439 584 501 584 q 318 543 367 584 q 253 431 269 503 m 452 -16 q 175 85 276 -16 q 73 347 73 185 q 98 486 73 420 q 166 603 122 552 q 279 684 211 654 q 430 713 347 713 q 574 685 513 713 q 672 605 636 656 q 725 490 708 554 q 743 349 743 427 q 739 319 743 330 l 251 319 q 313 169 255 218 q 467 120 371 120 q 687 195 580 120 l 732 73 q 600 6 667 27 q 452 -16 533 -16 m 385 791 l 564 987 l 780 987 l 540 791 l 385 791 z "},"ê":{"ha":818,"x_min":73,"x_max":743,"o":"m 253 431 l 599 431 q 544 545 587 505 q 439 584 501 584 q 318 543 367 584 q 253 431 269 503 m 452 -16 q 175 85 276 -16 q 73 347 73 185 q 98 486 73 420 q 166 603 122 552 q 279 684 211 654 q 430 713 347 713 q 574 685 513 713 q 672 605 636 656 q 725 490 708 554 q 743 349 743 427 q 739 319 743 330 l 251 319 q 313 169 255 218 q 467 120 371 120 q 687 195 580 120 l 732 73 q 600 6 667 27 q 452 -16 533 -16 m 165 804 l 339 1055 l 510 1055 l 690 804 l 522 804 l 430 937 l 336 804 l 165 804 z "},"ë":{"ha":818,"x_min":73,"x_max":743,"o":"m 253 431 l 599 431 q 544 545 587 505 q 439 584 501 584 q 318 543 367 584 q 253 431 269 503 m 452 -16 q 175 85 276 -16 q 73 347 73 185 q 98 486 73 420 q 166 603 122 552 q 279 684 211 654 q 430 713 347 713 q 574 685 513 713 q 672 605 636 656 q 725 490 708 554 q 743 349 743 427 q 739 319 743 330 l 251 319 q 313 169 255 218 q 467 120 371 120 q 687 195 580 120 l 732 73 q 600 6 667 27 q 452 -16 533 -16 m 528 781 l 528 933 l 694 933 l 694 781 l 528 781 m 217 781 l 217 933 l 385 933 l 385 781 l 217 781 z "},"ì":{"ha":329,"x_min":-155,"x_max":239,"o":"m 83 791 l -155 987 l 61 987 l 239 791 l 83 791 m 70 0 l 70 696 l 239 696 l 239 0 l 70 0 z "},"í":{"ha":329,"x_min":70,"x_max":474,"o":"m 70 0 l 70 696 l 239 696 l 239 0 l 70 0 m 79 791 l 258 987 l 474 987 l 234 791 l 79 791 z "},"î":{"ha":329,"x_min":-111,"x_max":414,"o":"m 70 0 l 70 696 l 239 696 l 239 0 l 70 0 m -111 804 l 64 1055 l 235 1055 l 414 804 l 247 804 l 155 937 l 60 804 l -111 804 z "},"ï":{"ha":329,"x_min":-90,"x_max":387,"o":"m 70 0 l 70 696 l 239 696 l 239 0 l 70 0 m 221 781 l 221 933 l 387 933 l 387 781 l 221 781 m -90 781 l -90 933 l 78 933 l 78 781 l -90 781 z "},"ð":{"ha":825,"x_min":67,"x_max":746,"o":"m 409 117 q 464 128 437 117 q 515 161 491 139 q 554 218 539 182 q 569 299 569 254 q 517 423 569 376 q 397 470 465 470 q 340 460 367 470 q 290 432 313 451 q 253 380 267 414 q 239 304 239 347 q 290 165 239 213 q 409 117 340 117 m 395 -17 q 259 11 321 -17 q 155 84 197 38 q 90 192 113 131 q 67 319 67 252 q 143 533 67 455 q 359 612 220 612 q 593 511 498 612 q 594 529 593 515 q 595 552 595 543 q 454 756 595 653 l 282 671 l 237 761 l 346 814 q 201 853 298 830 l 254 961 q 351 943 284 961 q 487 886 418 924 l 661 972 l 705 882 l 580 820 q 746 421 746 676 q 656 87 746 192 q 395 -17 566 -17 z "},"ñ":{"ha":830,"x_min":94,"x_max":742,"o":"m 494 796 l 493 796 q 425 814 465 796 q 349 851 385 833 q 298 869 314 869 q 269 852 283 869 q 252 800 255 835 l 143 800 q 184 942 143 886 q 291 997 225 997 q 365 980 326 997 q 438 945 405 963 q 484 924 471 926 q 490 924 486 924 q 494 924 493 924 q 526 939 515 924 q 536 997 537 954 l 646 997 q 606 847 646 897 q 494 796 565 797 m 107 0 l 107 431 q 104 571 107 505 q 97 666 100 637 l 94 696 l 272 696 l 272 603 q 368 685 308 657 q 484 713 428 713 q 590 697 545 713 q 670 646 635 682 q 724 548 705 610 q 742 397 742 486 l 742 0 l 574 0 l 574 408 q 545 539 574 500 q 450 577 516 577 q 396 566 425 577 q 339 536 367 555 q 294 485 312 517 q 275 416 275 454 l 275 0 l 107 0 z "},"ò":{"ha":872,"x_min":73,"x_max":799,"o":"m 439 -16 q 277 14 349 -16 q 162 94 206 43 q 96 209 119 144 q 73 348 73 274 q 96 489 73 423 q 164 605 119 554 q 279 684 208 655 q 439 713 350 713 q 600 685 530 713 q 713 605 671 656 q 778 489 756 555 q 799 347 799 424 q 777 210 799 274 q 711 95 754 146 q 598 14 668 44 q 439 -16 528 -16 m 436 120 q 523 139 486 120 q 582 190 560 157 q 613 263 603 223 q 624 350 624 303 q 577 513 624 450 q 437 577 530 577 q 330 546 374 577 q 268 464 287 514 q 248 350 248 414 q 266 237 248 287 q 328 153 284 186 q 436 120 372 120 m 367 791 l 129 987 l 345 987 l 522 791 l 367 791 z "},"ó":{"ha":872,"x_min":73,"x_max":799,"o":"m 439 -16 q 277 14 349 -16 q 162 94 206 43 q 96 209 119 144 q 73 348 73 274 q 96 489 73 423 q 164 605 119 554 q 279 684 208 655 q 439 713 350 713 q 600 685 530 713 q 713 605 671 656 q 778 489 756 555 q 799 347 799 424 q 777 210 799 274 q 711 95 754 146 q 598 14 668 44 q 439 -16 528 -16 m 436 120 q 523 139 486 120 q 582 190 560 157 q 613 263 603 223 q 624 350 624 303 q 577 513 624 450 q 437 577 530 577 q 330 546 374 577 q 268 464 287 514 q 248 350 248 414 q 266 237 248 287 q 328 153 284 186 q 436 120 372 120 m 363 791 l 542 987 l 758 987 l 517 791 l 363 791 z "},"ô":{"ha":872,"x_min":73,"x_max":799,"o":"m 439 -16 q 277 14 349 -16 q 162 94 206 43 q 96 209 119 144 q 73 348 73 274 q 96 489 73 423 q 164 605 119 554 q 279 684 208 655 q 439 713 350 713 q 600 685 530 713 q 713 605 671 656 q 778 489 756 555 q 799 347 799 424 q 777 210 799 274 q 711 95 754 146 q 598 14 668 44 q 439 -16 528 -16 m 436 120 q 523 139 486 120 q 582 190 560 157 q 613 263 603 223 q 624 350 624 303 q 577 513 624 450 q 437 577 530 577 q 330 546 374 577 q 268 464 287 514 q 248 350 248 414 q 266 237 248 287 q 328 153 284 186 q 436 120 372 120 m 173 804 l 347 1055 l 518 1055 l 698 804 l 530 804 l 438 937 l 344 804 l 173 804 z "},"õ":{"ha":872,"x_min":73,"x_max":799,"o":"m 479 796 l 478 796 q 410 814 450 796 q 334 851 370 833 q 283 869 299 869 q 254 852 268 869 q 237 800 240 835 l 128 800 q 169 942 128 886 q 276 997 210 997 q 350 980 311 997 q 423 945 390 963 q 469 924 456 926 q 475 924 471 924 q 479 924 478 924 q 511 939 500 924 q 522 997 522 954 l 631 997 q 591 847 631 897 q 479 796 550 797 m 439 -16 q 277 14 349 -16 q 162 94 206 43 q 96 209 119 144 q 73 348 73 274 q 96 489 73 423 q 164 605 119 554 q 279 684 208 655 q 439 713 350 713 q 600 685 530 713 q 713 605 671 656 q 778 489 756 555 q 799 347 799 424 q 777 210 799 274 q 711 95 754 146 q 598 14 668 44 q 439 -16 528 -16 m 436 120 q 523 139 486 120 q 582 190 560 157 q 613 263 603 223 q 624 350 624 303 q 577 513 624 450 q 437 577 530 577 q 330 546 374 577 q 268 464 287 514 q 248 350 248 414 q 266 237 248 287 q 328 153 284 186 q 436 120 372 120 z "},"ö":{"ha":872,"x_min":73,"x_max":799,"o":"m 439 -16 q 277 14 349 -16 q 162 94 206 43 q 96 209 119 144 q 73 348 73 274 q 96 489 73 423 q 164 605 119 554 q 279 684 208 655 q 439 713 350 713 q 600 685 530 713 q 713 605 671 656 q 778 489 756 555 q 799 347 799 424 q 777 210 799 274 q 711 95 754 146 q 598 14 668 44 q 439 -16 528 -16 m 436 120 q 523 139 486 120 q 582 190 560 157 q 613 263 603 223 q 624 350 624 303 q 577 513 624 450 q 437 577 530 577 q 330 546 374 577 q 268 464 287 514 q 248 350 248 414 q 266 237 248 287 q 328 153 284 186 q 436 120 372 120 m 505 781 l 505 933 l 671 933 l 671 781 l 505 781 m 194 781 l 194 933 l 361 933 l 361 781 l 194 781 z "},"÷":{"ha":1017,"x_min":113,"x_max":850,"o":"m 418 570 l 418 753 l 555 753 l 555 570 l 418 570 m 113 304 l 113 445 l 850 445 l 850 304 l 113 304 m 420 -13 l 420 172 l 557 172 l 558 -13 l 420 -13 z "},"ø":{"ha":862,"x_min":73,"x_max":799,"o":"m 498 568 l 311 168 q 248 350 248 230 q 268 464 248 414 q 330 546 287 514 q 437 577 374 577 q 498 568 468 577 m 562 530 q 624 350 624 469 q 613 263 624 303 q 582 190 603 223 q 523 139 560 157 q 436 120 486 120 q 374 129 401 120 l 562 530 m 439 -16 q 598 14 528 -16 q 711 95 668 44 q 777 210 754 146 q 799 347 799 274 q 756 542 799 456 q 628 672 713 627 l 683 790 l 616 821 l 559 699 q 439 713 503 713 q 279 684 350 713 q 164 605 208 655 q 96 489 119 554 q 73 348 73 423 q 117 160 73 244 q 245 29 161 75 l 185 -100 l 252 -132 l 315 1 q 439 -16 370 -16 z "},"ù":{"ha":804,"x_min":88,"x_max":714,"o":"m 355 -16 q 159 57 229 -16 q 88 255 88 129 l 88 696 l 255 696 l 255 258 q 291 154 255 189 q 390 120 327 120 q 502 158 465 120 q 538 279 538 195 l 538 696 l 706 696 l 706 187 l 714 0 l 541 0 l 538 103 q 523 70 534 88 q 490 32 511 52 q 434 -2 469 12 q 355 -16 398 -16 m 337 791 l 99 987 l 315 987 l 492 791 l 337 791 z "},"ú":{"ha":804,"x_min":88,"x_max":727,"o":"m 355 -16 q 159 57 229 -16 q 88 255 88 129 l 88 696 l 255 696 l 255 258 q 291 154 255 189 q 390 120 327 120 q 502 158 465 120 q 538 279 538 195 l 538 696 l 706 696 l 706 187 l 714 0 l 541 0 l 538 103 q 523 70 534 88 q 490 32 511 52 q 434 -2 469 12 q 355 -16 398 -16 m 332 791 l 511 987 l 727 987 l 487 791 l 332 791 z "},"û":{"ha":804,"x_min":88,"x_max":714,"o":"m 355 -16 q 159 57 229 -16 q 88 255 88 129 l 88 696 l 255 696 l 255 258 q 291 154 255 189 q 390 120 327 120 q 502 158 465 120 q 538 279 538 195 l 538 696 l 706 696 l 706 187 l 714 0 l 541 0 l 538 103 q 523 70 534 88 q 490 32 511 52 q 434 -2 469 12 q 355 -16 398 -16 m 143 804 l 317 1055 l 488 1055 l 668 804 l 500 804 l 408 937 l 314 804 l 143 804 z "},"ü":{"ha":804,"x_min":88,"x_max":714,"o":"m 355 -16 q 159 57 229 -16 q 88 255 88 129 l 88 696 l 255 696 l 255 258 q 291 154 255 189 q 390 120 327 120 q 502 158 465 120 q 538 279 538 195 l 538 696 l 706 696 l 706 187 l 714 0 l 541 0 l 538 103 q 523 70 534 88 q 490 32 511 52 q 434 -2 469 12 q 355 -16 398 -16 m 475 781 l 475 933 l 641 933 l 641 781 l 475 781 m 164 781 l 164 933 l 332 933 l 332 781 l 164 781 z "},"ý":{"ha":755,"x_min":20,"x_max":742,"o":"m 172 -302 l 102 -188 q 243 -112 196 -151 q 307 -18 290 -73 l 316 16 l 20 696 l 195 696 l 397 197 l 570 696 l 742 696 l 460 -38 q 383 -165 431 -110 q 284 -252 336 -220 q 172 -302 233 -283 m 328 791 l 507 987 l 722 987 l 482 791 l 328 791 z "},"þ":{"ha":833,"x_min":95,"x_max":765,"o":"m 419 120 q 496 139 463 120 q 549 191 529 158 q 579 265 569 224 q 589 353 589 306 q 580 437 589 399 q 553 507 572 475 q 503 557 535 539 q 425 576 470 576 q 345 556 379 576 q 291 502 310 536 q 262 426 271 468 q 253 335 253 385 q 296 179 253 239 q 419 120 339 120 m 95 -268 l 95 993 l 256 993 l 254 643 q 338 693 282 673 q 438 713 395 713 q 579 684 516 713 q 682 606 642 656 q 744 493 722 557 q 765 356 765 429 q 752 243 765 297 q 712 142 739 189 q 647 59 686 94 q 555 4 609 24 q 437 -16 501 -16 q 339 1 389 -16 q 252 42 290 17 l 252 -268 l 95 -268 z "},"ÿ":{"ha":755,"x_min":20,"x_max":742,"o":"m 172 -302 l 102 -188 q 243 -112 196 -151 q 307 -18 290 -73 l 316 16 l 20 696 l 195 696 l 397 197 l 570 696 l 742 696 l 460 -38 q 383 -165 431 -110 q 284 -252 336 -220 q 172 -302 233 -283 m 469 781 l 469 933 l 635 933 l 635 781 l 469 781 m 159 781 l 159 933 l 326 933 l 326 781 l 159 781 z "},"Ā":{"ha":989,"x_min":8,"x_max":980,"o":"m 262 1069 l 262 1175 l 686 1175 l 686 1069 l 262 1069 m 355 401 l 620 401 q 489 786 542 633 q 355 401 445 658 m 8 0 l 405 987 l 580 987 l 980 0 l 785 0 l 690 241 l 291 241 l 197 0 l 8 0 z "},"ā":{"ha":876,"x_min":73,"x_max":783,"o":"m 236 777 l 236 884 l 659 884 l 659 777 l 236 777 m 437 120 q 579 182 534 120 q 623 348 623 244 q 576 516 623 454 q 433 577 529 577 q 290 515 340 577 q 240 349 240 454 q 290 182 240 245 q 437 120 340 120 m 416 -16 q 264 15 331 -16 q 156 96 197 45 q 94 210 115 147 q 73 340 73 272 q 95 478 73 413 q 158 597 117 544 q 269 682 200 650 q 424 713 337 713 q 618 622 550 713 l 618 696 l 783 696 l 783 0 l 614 0 l 614 95 q 416 -16 538 -16 z "},"Ă":{"ha":989,"x_min":8,"x_max":980,"o":"m 499 1078 q 281 1279 294 1078 l 399 1279 q 410 1236 401 1253 q 434 1211 418 1219 q 464 1199 449 1202 q 499 1196 479 1196 q 568 1213 542 1196 q 598 1279 593 1230 l 715 1279 q 653 1126 708 1175 q 499 1078 599 1078 m 355 401 l 620 401 q 489 786 542 633 q 355 401 445 658 m 8 0 l 405 987 l 580 987 l 980 0 l 785 0 l 690 241 l 291 241 l 197 0 l 8 0 z "},"ă":{"ha":876,"x_min":73,"x_max":783,"o":"m 473 787 q 254 987 268 787 l 372 987 q 383 944 374 962 q 407 919 392 927 q 437 908 422 911 q 473 905 452 905 q 541 921 515 905 q 572 987 567 938 l 689 987 q 627 835 682 883 q 473 787 572 787 m 437 120 q 579 182 534 120 q 623 348 623 244 q 576 516 623 454 q 433 577 529 577 q 290 515 340 577 q 240 349 240 454 q 290 182 240 245 q 437 120 340 120 m 416 -16 q 264 15 331 -16 q 156 96 197 45 q 94 210 115 147 q 73 340 73 272 q 95 478 73 413 q 158 597 117 544 q 269 682 200 650 q 424 713 337 713 q 618 622 550 713 l 618 696 l 783 696 l 783 0 l 614 0 l 614 95 q 416 -16 538 -16 z "},"Ą":{"ha":989,"x_min":8,"x_max":987,"o":"m 814 -241 q 709 -220 747 -241 q 671 -154 671 -198 q 676 -119 671 -136 q 689 -90 682 -102 q 710 -63 696 -77 q 734 -42 724 -50 q 762 -24 745 -34 q 789 -9 779 -14 q 815 4 798 -4 q 836 14 831 12 l 928 16 q 854 -45 881 -11 q 827 -106 827 -80 q 869 -138 827 -138 q 987 -113 904 -138 l 987 -214 q 814 -241 895 -241 m 355 401 l 620 401 q 489 786 542 633 q 355 401 445 658 m 8 0 l 405 987 l 580 987 l 980 0 l 785 0 l 690 241 l 291 241 l 197 0 l 8 0 z "},"ą":{"ha":876,"x_min":73,"x_max":812,"o":"m 640 -241 q 535 -220 573 -241 q 496 -154 496 -198 q 502 -119 496 -136 q 515 -90 507 -102 q 536 -63 522 -77 q 560 -42 549 -50 q 588 -24 570 -34 q 614 -9 605 -14 q 641 4 624 -4 q 662 14 657 12 l 753 16 q 680 -45 707 -11 q 652 -106 652 -80 q 695 -138 652 -138 q 812 -113 730 -138 l 812 -214 q 640 -241 721 -241 m 437 120 q 579 182 534 120 q 623 348 623 244 q 576 516 623 454 q 433 577 529 577 q 290 515 340 577 q 240 349 240 454 q 290 182 240 245 q 437 120 340 120 m 416 -16 q 264 15 331 -16 q 156 96 197 45 q 94 210 115 147 q 73 340 73 272 q 95 478 73 413 q 158 597 117 544 q 269 682 200 650 q 424 713 337 713 q 618 622 550 713 l 618 696 l 783 696 l 783 0 l 614 0 l 614 95 q 416 -16 538 -16 z "},"Ć":{"ha":974,"x_min":72,"x_max":908,"o":"m 486 1082 l 665 1279 l 880 1279 l 640 1082 l 486 1082 m 566 -15 q 380 19 469 -15 q 223 115 292 52 q 113 275 154 177 q 72 493 72 373 q 99 679 72 593 q 174 823 127 764 q 282 924 220 882 q 412 986 344 966 q 553 1006 481 1006 q 882 899 747 1006 l 815 779 q 567 857 703 857 q 447 832 504 857 q 347 762 391 807 q 278 647 304 716 q 252 495 252 578 q 345 233 252 332 q 578 134 437 134 q 850 233 726 134 l 908 97 q 566 -15 764 -15 z "},"ć":{"ha":726,"x_min":73,"x_max":758,"o":"m 437 -16 q 282 14 352 -16 q 167 95 212 44 q 98 211 122 146 q 73 349 73 277 q 116 534 73 452 q 241 665 158 616 q 435 713 324 713 q 687 620 599 713 l 627 511 q 452 578 551 578 q 300 515 353 578 q 248 348 248 453 q 304 183 248 245 q 458 120 360 120 q 485 121 471 120 q 509 125 498 123 q 532 131 520 127 q 552 137 544 134 q 570 146 560 140 q 586 154 581 151 q 601 163 592 157 q 613 172 610 170 q 624 179 616 174 q 632 186 631 185 l 683 62 q 566 3 625 22 q 437 -16 508 -16 m 363 791 l 542 987 l 758 987 l 517 791 l 363 791 z "},"Ĉ":{"ha":974,"x_min":72,"x_max":908,"o":"m 296 1095 l 471 1346 l 642 1346 l 821 1095 l 654 1095 l 562 1228 l 467 1095 l 296 1095 m 566 -15 q 380 19 469 -15 q 223 115 292 52 q 113 275 154 177 q 72 493 72 373 q 99 679 72 593 q 174 823 127 764 q 282 924 220 882 q 412 986 344 966 q 553 1006 481 1006 q 882 899 747 1006 l 815 779 q 567 857 703 857 q 447 832 504 857 q 347 762 391 807 q 278 647 304 716 q 252 495 252 578 q 345 233 252 332 q 578 134 437 134 q 850 233 726 134 l 908 97 q 566 -15 764 -15 z "},"ĉ":{"ha":726,"x_min":73,"x_max":699,"o":"m 174 804 l 348 1055 l 519 1055 l 699 804 l 531 804 l 439 937 l 345 804 l 174 804 m 437 -16 q 282 14 352 -16 q 167 95 212 44 q 98 211 122 146 q 73 349 73 277 q 116 534 73 452 q 241 665 158 616 q 435 713 324 713 q 687 620 599 713 l 627 511 q 452 578 551 578 q 300 515 353 578 q 248 348 248 453 q 304 183 248 245 q 458 120 360 120 q 485 121 471 120 q 509 125 498 123 q 532 131 520 127 q 552 137 544 134 q 570 146 560 140 q 586 154 581 151 q 601 163 592 157 q 613 172 610 170 q 624 179 616 174 q 632 186 631 185 l 683 62 q 566 3 625 22 q 437 -16 508 -16 z "},"Ċ":{"ha":974,"x_min":72,"x_max":908,"o":"m 483 1082 l 483 1237 l 650 1237 l 650 1082 l 483 1082 m 566 -15 q 380 19 469 -15 q 223 115 292 52 q 113 275 154 177 q 72 493 72 373 q 99 679 72 593 q 174 823 127 764 q 282 924 220 882 q 412 986 344 966 q 553 1006 481 1006 q 882 899 747 1006 l 815 779 q 567 857 703 857 q 447 832 504 857 q 347 762 391 807 q 278 647 304 716 q 252 495 252 578 q 345 233 252 332 q 578 134 437 134 q 850 233 726 134 l 908 97 q 566 -15 764 -15 z "},"ċ":{"ha":726,"x_min":73,"x_max":687,"o":"m 361 791 l 361 945 l 528 945 l 528 791 l 361 791 m 437 -16 q 282 14 352 -16 q 167 95 212 44 q 98 211 122 146 q 73 349 73 277 q 116 534 73 452 q 241 665 158 616 q 435 713 324 713 q 687 620 599 713 l 627 511 q 452 578 551 578 q 300 515 353 578 q 248 348 248 453 q 304 183 248 245 q 458 120 360 120 q 485 121 471 120 q 509 125 498 123 q 532 131 520 127 q 552 137 544 134 q 570 146 560 140 q 586 154 581 151 q 601 163 592 157 q 613 172 610 170 q 624 179 616 174 q 632 186 631 185 l 683 62 q 566 3 625 22 q 437 -16 508 -16 z "},"Č":{"ha":974,"x_min":72,"x_max":908,"o":"m 481 1095 l 290 1344 l 463 1344 l 543 1246 l 627 1344 l 807 1344 l 618 1095 l 481 1095 m 566 -15 q 380 19 469 -15 q 223 115 292 52 q 113 275 154 177 q 72 493 72 373 q 99 679 72 593 q 174 823 127 764 q 282 924 220 882 q 412 986 344 966 q 553 1006 481 1006 q 882 899 747 1006 l 815 779 q 567 857 703 857 q 447 832 504 857 q 347 762 391 807 q 278 647 304 716 q 252 495 252 578 q 345 233 252 332 q 578 134 437 134 q 850 233 726 134 l 908 97 q 566 -15 764 -15 z "},"č":{"ha":726,"x_min":73,"x_max":687,"o":"m 358 804 l 168 1053 l 340 1053 l 420 954 l 504 1053 l 684 1053 l 495 804 l 358 804 m 437 -16 q 282 14 352 -16 q 167 95 212 44 q 98 211 122 146 q 73 349 73 277 q 116 534 73 452 q 241 665 158 616 q 435 713 324 713 q 687 620 599 713 l 627 511 q 452 578 551 578 q 300 515 353 578 q 248 348 248 453 q 304 183 248 245 q 458 120 360 120 q 485 121 471 120 q 509 125 498 123 q 532 131 520 127 q 552 137 544 134 q 570 146 560 140 q 586 154 581 151 q 601 163 592 157 q 613 172 610 170 q 624 179 616 174 q 632 186 631 185 l 683 62 q 566 3 625 22 q 437 -16 508 -16 z "},"Ď":{"ha":1065,"x_min":129,"x_max":994,"o":"m 421 1095 l 231 1344 l 403 1344 l 484 1246 l 567 1344 l 747 1344 l 558 1095 l 421 1095 m 129 0 l 129 987 l 404 987 q 847 862 701 987 q 994 500 994 736 q 850 127 994 255 q 432 0 707 0 l 129 0 m 301 148 l 441 148 q 715 237 620 148 q 811 500 811 327 q 714 752 811 665 q 420 840 618 840 l 301 840 l 301 148 z "},"ď":{"ha":859,"x_min":73,"x_max":1113,"o":"m 425 120 q 506 139 471 120 q 561 190 541 157 q 590 262 581 223 q 600 347 600 302 q 556 513 600 449 q 424 577 512 577 q 325 545 365 577 q 267 464 284 513 q 250 350 250 414 q 259 263 250 303 q 289 190 269 223 q 344 139 309 157 q 425 120 379 120 m 391 -16 q 164 83 256 -16 q 73 345 73 182 q 94 484 73 418 q 155 602 115 550 q 259 683 195 653 q 404 713 323 713 q 525 684 475 713 q 595 623 575 654 l 595 988 l 762 988 l 762 186 q 768 0 762 182 l 595 0 l 594 89 q 574 57 588 73 q 536 23 559 41 q 474 -5 512 6 q 391 -16 436 -16 m 846 645 l 923 987 l 1113 987 l 990 645 l 846 645 z "},"Đ":{"ha":1065,"x_min":18,"x_max":994,"o":"m 18 451 l 18 553 l 439 553 l 439 451 l 18 451 m 129 0 l 129 987 l 404 987 q 847 862 701 987 q 994 500 994 736 q 850 127 994 255 q 432 0 707 0 l 129 0 m 301 148 l 441 148 q 715 237 620 148 q 811 500 811 327 q 714 752 811 665 q 420 840 618 840 l 301 840 l 301 148 z "},"đ":{"ha":859,"x_min":73,"x_max":866,"o":"m 443 779 l 443 886 l 866 886 l 866 779 l 443 779 m 425 120 q 506 139 471 120 q 561 190 541 157 q 590 262 581 223 q 600 347 600 302 q 556 513 600 449 q 424 577 512 577 q 325 545 365 577 q 267 464 284 513 q 250 350 250 414 q 259 263 250 303 q 289 190 269 223 q 344 139 309 157 q 425 120 379 120 m 391 -16 q 164 83 256 -16 q 73 345 73 182 q 94 484 73 418 q 155 602 115 550 q 259 683 195 653 q 404 713 323 713 q 525 684 475 713 q 595 623 575 654 l 595 988 l 762 988 l 762 186 q 768 0 762 182 l 595 0 l 594 89 q 574 57 588 73 q 536 23 559 41 q 474 -5 512 6 q 391 -16 436 -16 z "},"Ē":{"ha":847,"x_min":129,"x_max":772,"o":"m 220 1069 l 220 1175 l 644 1175 l 644 1069 l 220 1069 m 129 0 l 129 987 l 752 987 l 752 840 l 301 840 l 301 576 l 728 576 l 728 427 l 303 427 l 303 148 l 772 148 l 772 0 l 129 0 z "},"ē":{"ha":818,"x_min":73,"x_max":743,"o":"m 227 777 l 227 884 l 650 884 l 650 777 l 227 777 m 253 431 l 599 431 q 544 545 587 505 q 439 584 501 584 q 318 543 367 584 q 253 431 269 503 m 452 -16 q 175 85 276 -16 q 73 347 73 185 q 98 486 73 420 q 166 603 122 552 q 279 684 211 654 q 430 713 347 713 q 574 685 513 713 q 672 605 636 656 q 725 490 708 554 q 743 349 743 427 q 739 319 743 330 l 251 319 q 313 169 255 218 q 467 120 371 120 q 687 195 580 120 l 732 73 q 600 6 667 27 q 452 -16 533 -16 z "},"Ĕ":{"ha":847,"x_min":129,"x_max":772,"o":"m 458 1078 q 239 1279 253 1078 l 357 1279 q 368 1236 359 1253 q 392 1211 377 1219 q 422 1199 408 1202 q 458 1196 437 1196 q 526 1213 500 1196 q 557 1279 552 1230 l 674 1279 q 612 1126 667 1175 q 458 1078 557 1078 m 129 0 l 129 987 l 752 987 l 752 840 l 301 840 l 301 576 l 728 576 l 728 427 l 303 427 l 303 148 l 772 148 l 772 0 l 129 0 z "},"ĕ":{"ha":818,"x_min":73,"x_max":743,"o":"m 253 431 l 599 431 q 544 545 587 505 q 439 584 501 584 q 318 543 367 584 q 253 431 269 503 m 452 -16 q 175 85 276 -16 q 73 347 73 185 q 98 486 73 420 q 166 603 122 552 q 279 684 211 654 q 430 713 347 713 q 574 685 513 713 q 672 605 636 656 q 725 490 708 554 q 743 349 743 427 q 739 319 743 330 l 251 319 q 313 169 255 218 q 467 120 371 120 q 687 195 580 120 l 732 73 q 600 6 667 27 q 452 -16 533 -16 m 464 787 q 245 987 259 787 l 363 987 q 374 944 366 962 q 398 919 383 927 q 429 908 414 911 q 464 905 444 905 q 532 921 507 905 q 563 987 558 938 l 680 987 q 618 835 673 883 q 464 787 564 787 z "},"Ė":{"ha":847,"x_min":129,"x_max":772,"o":"m 376 1082 l 376 1237 l 543 1237 l 543 1082 l 376 1082 m 129 0 l 129 987 l 752 987 l 752 840 l 301 840 l 301 576 l 728 576 l 728 427 l 303 427 l 303 148 l 772 148 l 772 0 l 129 0 z "},"ė":{"ha":818,"x_min":73,"x_max":743,"o":"m 253 431 l 599 431 q 544 545 587 505 q 439 584 501 584 q 318 543 367 584 q 253 431 269 503 m 452 -16 q 175 85 276 -16 q 73 347 73 185 q 98 486 73 420 q 166 603 122 552 q 279 684 211 654 q 430 713 347 713 q 574 685 513 713 q 672 605 636 656 q 725 490 708 554 q 743 349 743 427 q 739 319 743 330 l 251 319 q 313 169 255 218 q 467 120 371 120 q 687 195 580 120 l 732 73 q 600 6 667 27 q 452 -16 533 -16 m 382 791 l 382 945 l 549 945 l 549 791 l 382 791 z "},"Ę":{"ha":847,"x_min":129,"x_max":772,"o":"m 493 -241 q 388 -220 426 -241 q 349 -154 349 -198 q 355 -119 349 -136 q 368 -90 360 -102 q 389 -63 375 -77 q 413 -42 402 -50 q 440 -24 423 -34 q 467 -9 458 -14 q 493 4 477 -4 q 515 14 510 12 l 606 16 q 532 -45 559 -11 q 505 -106 505 -80 q 548 -138 505 -138 q 665 -113 583 -138 l 665 -214 q 493 -241 574 -241 m 129 0 l 129 987 l 752 987 l 752 840 l 301 840 l 301 576 l 728 576 l 728 427 l 303 427 l 303 148 l 772 148 l 772 0 l 129 0 z "},"ę":{"ha":818,"x_min":73,"x_max":743,"o":"m 518 -241 q 413 -220 451 -241 q 374 -154 374 -198 q 380 -119 374 -136 q 393 -90 385 -102 q 414 -63 400 -77 q 438 -42 427 -50 q 466 -24 448 -34 q 492 -9 483 -14 q 518 4 502 -4 q 540 14 535 12 l 631 16 q 557 -45 585 -11 q 530 -106 530 -80 q 573 -138 530 -138 q 690 -113 608 -138 l 690 -214 q 518 -241 599 -241 m 253 431 l 599 431 q 544 545 587 505 q 439 584 501 584 q 318 543 367 584 q 253 431 269 503 m 452 -16 q 175 85 276 -16 q 73 347 73 185 q 98 486 73 420 q 166 603 122 552 q 279 684 211 654 q 430 713 347 713 q 574 685 513 713 q 672 605 636 656 q 725 490 708 554 q 743 349 743 427 q 739 319 743 330 l 251 319 q 313 169 255 218 q 467 120 371 120 q 687 195 580 120 l 732 73 q 600 6 667 27 q 452 -16 533 -16 z "},"Ě":{"ha":847,"x_min":129,"x_max":772,"o":"m 374 1095 l 183 1344 l 355 1344 l 436 1246 l 519 1344 l 700 1344 l 511 1095 l 374 1095 m 129 0 l 129 987 l 752 987 l 752 840 l 301 840 l 301 576 l 728 576 l 728 427 l 303 427 l 303 148 l 772 148 l 772 0 l 129 0 z "},"ě":{"ha":818,"x_min":73,"x_max":743,"o":"m 253 431 l 599 431 q 544 545 587 505 q 439 584 501 584 q 318 543 367 584 q 253 431 269 503 m 452 -16 q 175 85 276 -16 q 73 347 73 185 q 98 486 73 420 q 166 603 122 552 q 279 684 211 654 q 430 713 347 713 q 574 685 513 713 q 672 605 636 656 q 725 490 708 554 q 743 349 743 427 q 739 319 743 330 l 251 319 q 313 169 255 218 q 467 120 371 120 q 687 195 580 120 l 732 73 q 600 6 667 27 q 452 -16 533 -16 m 380 804 l 190 1053 l 362 1053 l 443 954 l 526 1053 l 707 1053 l 517 804 l 380 804 z "},"Ĝ":{"ha":1043,"x_min":71,"x_max":929,"o":"m 303 1095 l 477 1346 l 648 1346 l 828 1095 l 661 1095 l 568 1228 l 474 1095 l 303 1095 m 577 -16 q 202 117 334 -16 q 71 477 71 250 q 93 641 71 562 q 158 785 114 719 q 263 901 201 852 q 410 978 325 950 q 595 1006 495 1006 q 722 996 665 1006 q 820 968 779 986 q 880 938 861 949 q 924 907 900 926 l 854 787 q 595 857 758 857 q 442 825 510 857 q 334 740 374 793 q 272 621 293 686 q 251 485 251 556 q 272 342 251 407 q 334 231 293 278 q 438 158 374 184 q 585 132 503 132 q 754 157 667 132 l 754 391 l 524 391 l 524 538 l 929 538 l 929 60 q 577 -16 760 -16 z "},"ĝ":{"ha":838,"x_min":73,"x_max":766,"o":"m 425 127 q 495 140 465 127 q 545 175 526 153 q 575 226 564 196 q 592 286 587 256 q 596 350 596 316 q 554 514 596 452 q 427 577 511 577 q 327 544 368 577 q 268 461 286 511 q 250 349 250 411 q 292 186 250 245 q 425 127 335 127 m 392 -283 q 127 -236 256 -283 l 157 -91 q 380 -144 258 -144 q 532 -102 477 -144 q 587 24 587 -60 l 587 83 q 413 0 528 0 q 166 95 259 0 q 73 349 73 189 q 93 487 73 422 q 151 602 113 551 q 254 684 190 654 q 400 713 318 713 q 513 688 465 713 q 588 621 562 662 l 588 696 l 766 696 q 753 463 753 593 l 753 100 q 392 -283 753 -283 m 155 804 l 330 1055 l 500 1055 l 680 804 l 513 804 l 420 937 l 326 804 l 155 804 z "},"Ğ":{"ha":1043,"x_min":71,"x_max":929,"o":"m 571 1078 q 353 1279 366 1078 l 471 1279 q 481 1236 473 1253 q 506 1211 490 1219 q 536 1199 521 1202 q 571 1196 551 1196 q 640 1213 614 1196 q 670 1279 665 1230 l 787 1279 q 725 1126 780 1175 q 571 1078 671 1078 m 577 -16 q 202 117 334 -16 q 71 477 71 250 q 93 641 71 562 q 158 785 114 719 q 263 901 201 852 q 410 978 325 950 q 595 1006 495 1006 q 722 996 665 1006 q 820 968 779 986 q 880 938 861 949 q 924 907 900 926 l 854 787 q 595 857 758 857 q 442 825 510 857 q 334 740 374 793 q 272 621 293 686 q 251 485 251 556 q 272 342 251 407 q 334 231 293 278 q 438 158 374 184 q 585 132 503 132 q 754 157 667 132 l 754 391 l 524 391 l 524 538 l 929 538 l 929 60 q 577 -16 760 -16 z "},"ğ":{"ha":838,"x_min":73,"x_max":766,"o":"m 425 127 q 495 140 465 127 q 545 175 526 153 q 575 226 564 196 q 592 286 587 256 q 596 350 596 316 q 554 514 596 452 q 427 577 511 577 q 327 544 368 577 q 268 461 286 511 q 250 349 250 411 q 292 186 250 245 q 425 127 335 127 m 392 -283 q 127 -236 256 -283 l 157 -91 q 380 -144 258 -144 q 532 -102 477 -144 q 587 24 587 -60 l 587 83 q 413 0 528 0 q 166 95 259 0 q 73 349 73 189 q 93 487 73 422 q 151 602 113 551 q 254 684 190 654 q 400 713 318 713 q 513 688 465 713 q 588 621 562 662 l 588 696 l 766 696 q 753 463 753 593 l 753 100 q 392 -283 753 -283 m 423 787 q 205 987 218 787 l 323 987 q 334 944 325 962 q 358 919 342 927 q 388 908 373 911 q 423 905 403 905 q 492 921 466 905 q 522 987 517 938 l 640 987 q 577 835 632 883 q 423 787 523 787 z "},"Ġ":{"ha":1043,"x_min":71,"x_max":929,"o":"m 490 1082 l 490 1237 l 656 1237 l 656 1082 l 490 1082 m 577 -16 q 202 117 334 -16 q 71 477 71 250 q 93 641 71 562 q 158 785 114 719 q 263 901 201 852 q 410 978 325 950 q 595 1006 495 1006 q 722 996 665 1006 q 820 968 779 986 q 880 938 861 949 q 924 907 900 926 l 854 787 q 595 857 758 857 q 442 825 510 857 q 334 740 374 793 q 272 621 293 686 q 251 485 251 556 q 272 342 251 407 q 334 231 293 278 q 438 158 374 184 q 585 132 503 132 q 754 157 667 132 l 754 391 l 524 391 l 524 538 l 929 538 l 929 60 q 577 -16 760 -16 z "},"ġ":{"ha":838,"x_min":73,"x_max":766,"o":"m 425 127 q 495 140 465 127 q 545 175 526 153 q 575 226 564 196 q 592 286 587 256 q 596 350 596 316 q 554 514 596 452 q 427 577 511 577 q 327 544 368 577 q 268 461 286 511 q 250 349 250 411 q 292 186 250 245 q 425 127 335 127 m 392 -283 q 127 -236 256 -283 l 157 -91 q 380 -144 258 -144 q 532 -102 477 -144 q 587 24 587 -60 l 587 83 q 413 0 528 0 q 166 95 259 0 q 73 349 73 189 q 93 487 73 422 q 151 602 113 551 q 254 684 190 654 q 400 713 318 713 q 513 688 465 713 q 588 621 562 662 l 588 696 l 766 696 q 753 463 753 593 l 753 100 q 392 -283 753 -283 m 342 791 l 342 945 l 509 945 l 509 791 l 342 791 z "},"Ģ":{"ha":1043,"x_min":71,"x_max":929,"o":"m 427 -439 l 503 -96 l 692 -96 l 570 -439 l 427 -439 m 577 -16 q 202 117 334 -16 q 71 477 71 250 q 93 641 71 562 q 158 785 114 719 q 263 901 201 852 q 410 978 325 950 q 595 1006 495 1006 q 722 996 665 1006 q 820 968 779 986 q 880 938 861 949 q 924 907 900 926 l 854 787 q 595 857 758 857 q 442 825 510 857 q 334 740 374 793 q 272 621 293 686 q 251 485 251 556 q 272 342 251 407 q 334 231 293 278 q 438 158 374 184 q 585 132 503 132 q 754 157 667 132 l 754 391 l 524 391 l 524 538 l 929 538 l 929 60 q 577 -16 760 -16 z "},"ģ":{"ha":838,"x_min":73,"x_max":766,"o":"m 624 1177 l 548 840 l 359 840 l 481 1177 l 624 1177 m 425 127 q 495 140 465 127 q 545 175 526 153 q 575 226 564 196 q 592 286 587 256 q 596 350 596 316 q 554 514 596 452 q 427 577 511 577 q 327 544 368 577 q 268 461 286 511 q 250 349 250 411 q 292 186 250 245 q 425 127 335 127 m 392 -283 q 127 -236 256 -283 l 157 -91 q 380 -144 258 -144 q 532 -102 477 -144 q 587 24 587 -60 l 587 83 q 413 0 528 0 q 166 95 259 0 q 73 349 73 189 q 93 487 73 422 q 151 602 113 551 q 254 684 190 654 q 400 713 318 713 q 513 688 465 713 q 588 621 562 662 l 588 696 l 766 696 q 753 463 753 593 l 753 100 q 392 -283 753 -283 z "},"Ĥ":{"ha":1066,"x_min":129,"x_max":937,"o":"m 258 1095 l 433 1346 l 604 1346 l 783 1095 l 616 1095 l 524 1228 l 429 1095 l 258 1095 m 129 0 l 129 987 l 301 987 l 301 581 l 764 581 l 764 987 l 937 987 l 937 0 l 768 0 l 768 432 l 304 432 l 304 0 l 129 0 z "},"ĥ":{"ha":827,"x_min":98,"x_max":797,"o":"m 98 0 l 98 988 l 266 988 l 266 606 q 354 684 291 654 q 474 713 417 713 q 562 702 522 713 q 629 671 602 690 q 676 625 656 652 q 708 569 696 597 q 727 507 720 541 q 736 446 734 473 q 739 387 739 418 l 739 0 l 570 0 l 570 393 q 540 534 570 491 q 448 577 509 577 q 322 529 379 577 q 266 419 266 481 l 266 0 l 98 0 m 272 804 l 446 1055 l 617 1055 l 797 804 l 629 804 l 537 937 l 443 804 l 272 804 z "},"Ħ":{"ha":1066,"x_min":64,"x_max":990,"o":"m 64 720 l 64 823 l 990 823 l 990 720 l 64 720 m 129 0 l 129 987 l 301 987 l 301 581 l 764 581 l 764 987 l 937 987 l 937 0 l 768 0 l 768 432 l 304 432 l 304 0 l 129 0 z "},"ħ":{"ha":827,"x_min":-16,"x_max":739,"o":"m -16 779 l -16 886 l 407 886 l 407 779 l -16 779 m 98 0 l 98 988 l 266 988 l 266 606 q 354 684 291 654 q 474 713 417 713 q 562 702 522 713 q 629 671 602 690 q 676 625 656 652 q 708 569 696 597 q 727 507 720 541 q 736 446 734 473 q 739 387 739 418 l 739 0 l 570 0 l 570 393 q 540 534 570 491 q 448 577 509 577 q 322 529 379 577 q 266 419 266 481 l 266 0 l 98 0 z "},"Ĩ":{"ha":397,"x_min":-57,"x_max":446,"o":"m 294 1116 l 293 1116 q 224 1135 264 1116 q 149 1171 184 1153 q 98 1189 114 1189 q 69 1172 83 1189 q 52 1120 55 1155 l -57 1120 q -16 1262 -57 1206 q 91 1317 25 1317 q 165 1300 125 1317 q 238 1265 205 1283 q 284 1244 271 1246 q 290 1244 286 1244 q 294 1244 293 1244 q 326 1259 315 1244 q 336 1317 337 1274 l 446 1317 q 406 1167 446 1217 q 294 1116 365 1117 m 109 0 l 109 987 l 281 987 l 281 0 l 109 0 z "},"ĩ":{"ha":329,"x_min":-98,"x_max":406,"o":"m 253 824 l 252 824 q 184 842 224 824 q 109 879 144 861 q 57 897 73 897 q 28 880 42 897 q 11 827 14 863 l -98 827 q -57 969 -98 914 q 50 1025 -16 1025 q 124 1008 85 1025 q 197 972 164 991 q 243 952 230 954 q 249 952 245 952 q 254 951 252 951 q 285 967 274 951 q 296 1025 296 982 l 406 1025 q 365 874 406 924 q 253 824 324 825 m 70 0 l 70 696 l 239 696 l 239 0 l 70 0 z "},"Ī":{"ha":397,"x_min":-17,"x_max":406,"o":"m -17 1116 l -17 1223 l 406 1223 l 406 1116 l -17 1116 m 109 0 l 109 987 l 281 987 l 281 0 l 109 0 z "},"ī":{"ha":329,"x_min":-58,"x_max":366,"o":"m -57 824 l -57 930 l 366 930 l 366 824 l -57 824 m 70 0 l 70 696 l 239 696 l 239 0 l 70 0 z "},"Ĭ":{"ha":397,"x_min":-23,"x_max":412,"o":"m 195 1116 q -23 1317 -9 1116 l 95 1317 q 106 1274 97 1291 q 130 1249 115 1257 q 160 1237 145 1240 q 195 1234 175 1234 q 264 1251 238 1234 q 294 1317 290 1267 l 412 1317 q 350 1164 404 1213 q 195 1116 295 1116 m 109 0 l 109 987 l 281 987 l 281 0 l 109 0 z "},"ĭ":{"ha":329,"x_min":-63,"x_max":372,"o":"m 70 0 l 70 696 l 239 696 l 239 0 l 70 0 m 155 824 q -63 1025 -50 824 l 55 1025 q 66 982 57 999 q 90 956 75 964 q 120 945 105 948 q 155 942 135 942 q 224 959 198 942 q 254 1025 250 975 l 372 1025 q 310 872 364 920 q 155 824 255 824 z "},"Į":{"ha":397,"x_min":14,"x_max":330,"o":"m 158 -241 q 53 -220 91 -241 q 14 -154 14 -198 q 20 -119 14 -136 q 33 -90 25 -102 q 54 -63 40 -77 q 78 -42 67 -50 q 105 -24 88 -34 q 132 -9 123 -14 q 158 4 142 -4 q 180 14 175 12 l 271 16 q 197 -45 224 -11 q 170 -106 170 -80 q 213 -138 170 -138 q 330 -113 248 -138 l 330 -214 q 158 -241 239 -241 m 109 0 l 109 987 l 281 987 l 281 0 l 109 0 z "},"į":{"ha":329,"x_min":-9,"x_max":307,"o":"m 135 -241 q 30 -220 68 -241 q -9 -154 -9 -198 q -3 -119 -9 -136 q 9 -90 2 -102 q 31 -63 17 -77 q 55 -42 44 -50 q 82 -24 65 -34 q 109 -9 100 -14 q 135 4 119 -4 q 157 14 152 12 l 248 16 q 174 -45 201 -11 q 147 -106 147 -80 q 190 -138 147 -138 q 307 -113 224 -138 l 307 -214 q 135 -241 216 -241 m 70 0 l 70 696 l 239 696 l 239 0 l 70 0 m 77 791 l 77 945 l 243 945 l 243 791 l 77 791 z "},"İ":{"ha":397,"x_min":109,"x_max":283,"o":"m 117 1082 l 117 1237 l 283 1237 l 283 1082 l 117 1082 m 109 0 l 109 987 l 281 987 l 281 0 l 109 0 z "},"ı":{"ha":329,"x_min":70,"x_max":239,"o":"m 70 0 l 70 696 l 239 696 l 239 0 l 70 0 z "},"Ĳ":{"ha":1088,"x_min":109,"x_max":960,"o":"m 680 -224 q 463 -181 583 -224 l 494 -50 q 649 -80 587 -80 q 788 75 788 -80 l 788 987 l 960 987 l 960 83 q 886 -145 960 -65 q 680 -224 812 -224 m 109 0 l 109 987 l 281 987 l 281 0 l 109 0 z "},"ĳ":{"ha":762,"x_min":96,"x_max":675,"o":"m 507 833 l 507 987 l 674 987 l 674 833 l 507 833 m 423 -245 q 354 -241 386 -245 q 311 -232 323 -236 l 298 -227 l 317 -112 q 414 -125 359 -125 q 453 -120 438 -125 q 480 -102 468 -116 q 498 -60 492 -87 q 503 14 503 -32 l 503 696 l 675 696 l 675 -6 q 664 -109 675 -67 q 625 -183 652 -151 q 548 -230 597 -215 q 423 -245 498 -245 m 317 -112 l 315 -111 l 317 -111 l 317 -112 m 96 840 l 96 987 l 259 987 l 259 840 l 96 840 m 97 0 l 97 696 l 259 696 l 259 0 l 97 0 z "},"Ĵ":{"ha":691,"x_min":65,"x_max":739,"o":"m 214 1095 l 388 1346 l 559 1346 l 739 1095 l 571 1095 l 479 1228 l 385 1095 l 214 1095 m 283 -224 q 65 -181 186 -224 l 96 -50 q 252 -80 189 -80 q 391 75 391 -80 l 391 987 l 563 987 l 563 83 q 489 -145 563 -65 q 283 -224 415 -224 z "},"ĵ":{"ha":407,"x_min":-58,"x_max":490,"o":"m 68 -245 q -1 -241 31 -245 q -45 -232 -33 -236 l -58 -227 l -39 -112 q 58 -125 3 -125 q 98 -120 83 -125 q 125 -102 113 -116 q 142 -60 137 -87 q 148 14 148 -32 l 148 696 l 319 696 l 319 -6 q 308 -109 319 -67 q 270 -183 297 -151 q 192 -230 242 -215 q 68 -245 142 -245 m -39 -112 l -41 -111 l -39 -111 l -39 -112 m -35 804 l 140 1055 l 311 1055 l 490 804 l 323 804 l 231 937 l 136 804 l -35 804 z "},"Ķ":{"ha":917,"x_min":129,"x_max":930,"o":"m 356 -439 l 433 -96 l 622 -96 l 500 -439 l 356 -439 m 129 0 l 129 987 l 301 987 l 301 556 l 682 987 l 897 987 l 469 511 l 930 0 l 706 0 l 303 441 l 303 0 l 129 0 z "},"ķ":{"ha":730,"x_min":95,"x_max":768,"o":"m 233 -439 l 310 -96 l 499 -96 l 377 -439 l 233 -439 m 95 0 l 95 988 l 263 988 l 263 412 l 515 696 l 747 696 l 415 359 l 768 0 l 546 0 l 263 301 l 263 0 l 95 0 z "},"ĸ":{"ha":734,"x_min":98,"x_max":762,"o":"m 98 0 l 98 696 l 266 696 l 266 429 l 507 696 l 739 696 l 389 342 q 499 241 458 278 q 549 195 540 203 q 564 180 557 186 q 585 161 571 174 q 638 112 600 148 q 762 0 677 77 l 536 0 l 266 260 l 266 0 l 98 0 z "},"Ĺ":{"ha":795,"x_min":129,"x_max":758,"o":"m 185 1082 l 364 1279 l 580 1279 l 340 1082 l 185 1082 m 129 0 l 129 987 l 301 987 l 301 148 l 758 148 l 758 0 l 129 0 z "},"ĺ":{"ha":357,"x_min":96,"x_max":506,"o":"m 96 0 l 96 988 l 262 988 l 262 0 l 96 0 m 111 1082 l 290 1279 l 506 1279 l 266 1082 l 111 1082 z "},"Ļ":{"ha":795,"x_min":129,"x_max":758,"o":"m 270 -439 l 347 -96 l 536 -96 l 414 -439 l 270 -439 m 129 0 l 129 987 l 301 987 l 301 148 l 758 148 l 758 0 l 129 0 z "},"ļ":{"ha":357,"x_min":18,"x_max":284,"o":"m 18 -439 l 95 -96 l 284 -96 l 162 -439 l 18 -439 m 96 0 l 96 988 l 262 988 l 262 0 l 96 0 z "},"Ľ":{"ha":795,"x_min":129,"x_max":758,"o":"m 415 645 l 492 987 l 682 987 l 559 645 l 415 645 m 129 0 l 129 987 l 301 987 l 301 148 l 758 148 l 758 0 l 129 0 z "},"ľ":{"ha":357,"x_min":96,"x_max":587,"o":"m 96 0 l 96 988 l 262 988 l 262 0 l 96 0 m 321 645 l 397 987 l 587 987 l 465 645 l 321 645 z "},"Ŀ":{"ha":795,"x_min":129,"x_max":758,"o":"m 406 436 l 406 627 l 612 627 l 612 436 l 406 436 m 129 0 l 129 987 l 301 987 l 301 148 l 758 148 l 758 0 l 129 0 z "},"ŀ":{"ha":357,"x_min":96,"x_max":518,"o":"m 312 453 l 312 644 l 518 644 l 518 453 l 312 453 m 96 0 l 96 988 l 262 988 l 262 0 l 96 0 z "},"Ł":{"ha":791,"x_min":24,"x_max":758,"o":"m 24 286 l 24 438 l 415 743 l 415 591 l 24 286 m 129 0 l 129 987 l 301 987 l 301 148 l 758 148 l 758 0 l 129 0 z "},"ł":{"ha":341,"x_min":5,"x_max":317,"o":"m 80 0 l 80 493 l 5 425 l 5 573 l 79 641 l 79 989 l 248 989 l 248 766 l 317 831 l 317 680 l 249 613 l 249 0 l 80 0 z "},"Ń":{"ha":1105,"x_min":129,"x_max":977,"o":"m 493 1082 l 672 1279 l 888 1279 l 648 1082 l 493 1082 m 129 0 l 129 987 l 311 987 q 812 260 782 305 l 812 987 l 977 987 l 977 0 l 793 0 q 288 728 338 657 l 288 0 l 129 0 z "},"ń":{"ha":830,"x_min":94,"x_max":772,"o":"m 107 0 l 107 431 q 104 571 107 505 q 97 666 100 637 l 94 696 l 272 696 l 272 603 q 368 685 308 657 q 484 713 428 713 q 590 697 545 713 q 670 646 635 682 q 724 548 705 610 q 742 397 742 486 l 742 0 l 574 0 l 574 408 q 545 539 574 500 q 450 577 516 577 q 396 566 425 577 q 339 536 367 555 q 294 485 312 517 q 275 416 275 454 l 275 0 l 107 0 m 378 791 l 557 987 l 772 987 l 532 791 l 378 791 z "},"Ņ":{"ha":1105,"x_min":129,"x_max":977,"o":"m 414 -439 l 490 -96 l 680 -96 l 557 -439 l 414 -439 m 129 0 l 129 987 l 311 987 q 812 260 782 305 l 812 987 l 977 987 l 977 0 l 793 0 q 288 728 338 657 l 288 0 l 129 0 z "},"ņ":{"ha":830,"x_min":94,"x_max":742,"o":"m 261 -439 l 338 -96 l 527 -96 l 405 -439 l 261 -439 m 107 0 l 107 431 q 104 571 107 505 q 97 666 100 637 l 94 696 l 272 696 l 272 603 q 368 685 308 657 q 484 713 428 713 q 590 697 545 713 q 670 646 635 682 q 724 548 705 610 q 742 397 742 486 l 742 0 l 574 0 l 574 408 q 545 539 574 500 q 450 577 516 577 q 396 566 425 577 q 339 536 367 555 q 294 485 312 517 q 275 416 275 454 l 275 0 l 107 0 z "},"Ň":{"ha":1105,"x_min":129,"x_max":977,"o":"m 488 1095 l 298 1344 l 470 1344 l 551 1246 l 634 1344 l 814 1344 l 625 1095 l 488 1095 m 129 0 l 129 987 l 311 987 q 812 260 782 305 l 812 987 l 977 987 l 977 0 l 793 0 q 288 728 338 657 l 288 0 l 129 0 z "},"ň":{"ha":830,"x_min":94,"x_max":742,"o":"m 107 0 l 107 431 q 104 571 107 505 q 97 666 100 637 l 94 696 l 272 696 l 272 603 q 368 685 308 657 q 484 713 428 713 q 590 697 545 713 q 670 646 635 682 q 724 548 705 610 q 742 397 742 486 l 742 0 l 574 0 l 574 408 q 545 539 574 500 q 450 577 516 577 q 396 566 425 577 q 339 536 367 555 q 294 485 312 517 q 275 416 275 454 l 275 0 l 107 0 m 372 804 l 182 1053 l 354 1053 l 435 954 l 518 1053 l 699 1053 l 509 804 l 372 804 z "},"ŉ":{"ha":828,"x_min":43,"x_max":742,"o":"m 107 0 l 107 431 q 104 571 107 505 q 97 666 100 637 l 94 696 l 272 696 l 272 603 q 368 685 308 657 q 484 713 428 713 q 590 697 545 713 q 670 646 635 682 q 724 548 705 610 q 742 397 742 486 l 742 0 l 574 0 l 574 408 q 545 539 574 500 q 450 577 516 577 q 396 566 425 577 q 339 536 367 555 q 294 485 312 517 q 275 416 275 454 l 275 0 l 107 0 z "},"Ŋ":{"ha":1100,"x_min":131,"x_max":968,"o":"m 968 987 l 968 1 q 598 -321 968 -321 l 598 -189 q 662 -186 635 -189 q 718 -174 689 -184 q 765 -148 747 -165 q 794 -100 783 -131 q 806 -28 806 -70 l 806 66 l 377 642 l 288 772 l 288 0 l 131 0 l 131 987 l 312 987 l 720 432 l 806 305 l 806 987 l 968 987 z "},"ŋ":{"ha":808,"x_min":92,"x_max":722,"o":"m 355 -269 l 355 -134 q 429 -126 395 -134 q 491 -100 462 -118 q 537 -48 520 -82 q 553 34 553 -14 l 553 408 q 528 540 553 502 q 438 578 503 578 q 387 567 414 578 q 333 537 359 556 q 291 486 308 517 q 274 416 274 454 l 274 0 l 106 0 l 106 431 q 102 571 106 505 q 96 666 99 637 l 92 696 l 271 696 l 271 595 q 357 682 298 651 q 473 713 416 713 q 576 698 532 713 q 654 646 621 682 q 705 548 688 610 q 722 397 722 486 l 722 75 q 695 -78 722 -12 q 619 -185 668 -144 q 504 -248 570 -227 q 355 -269 437 -269 z "},"Ō":{"ha":1133,"x_min":72,"x_max":1061,"o":"m 335 1069 l 335 1175 l 758 1175 l 758 1069 l 335 1069 m 570 -16 q 205 124 338 -16 q 72 498 72 263 q 206 867 72 728 q 572 1006 340 1006 q 929 867 796 1006 q 1061 498 1061 728 q 930 123 1061 262 q 570 -16 800 -16 m 566 132 q 795 227 717 132 q 874 498 874 322 q 795 764 874 669 q 568 859 717 859 q 338 764 418 859 q 258 498 258 669 q 336 227 258 321 q 566 132 414 132 z "},"ō":{"ha":872,"x_min":73,"x_max":799,"o":"m 439 -16 q 277 14 349 -16 q 162 94 206 43 q 96 209 119 144 q 73 348 73 274 q 96 489 73 423 q 164 605 119 554 q 279 684 208 655 q 439 713 350 713 q 600 685 530 713 q 713 605 671 656 q 778 489 756 555 q 799 347 799 424 q 777 210 799 274 q 711 95 754 146 q 598 14 668 44 q 439 -16 528 -16 m 436 120 q 523 139 486 120 q 582 190 560 157 q 613 263 603 223 q 624 350 624 303 q 577 513 624 450 q 437 577 530 577 q 330 546 374 577 q 268 464 287 514 q 248 350 248 414 q 266 237 248 287 q 328 153 284 186 q 436 120 372 120 m 204 777 l 204 884 l 627 884 l 627 777 l 204 777 z "},"Ŏ":{"ha":1133,"x_min":72,"x_max":1061,"o":"m 572 1078 q 353 1279 367 1078 l 471 1279 q 482 1236 473 1253 q 506 1211 491 1219 q 536 1199 522 1202 q 572 1196 551 1196 q 640 1213 614 1196 q 671 1279 666 1230 l 788 1279 q 726 1126 781 1175 q 572 1078 671 1078 m 570 -16 q 205 124 338 -16 q 72 498 72 263 q 206 867 72 728 q 572 1006 340 1006 q 929 867 796 1006 q 1061 498 1061 728 q 930 123 1061 262 q 570 -16 800 -16 m 566 132 q 795 227 717 132 q 874 498 874 322 q 795 764 874 669 q 568 859 717 859 q 338 764 418 859 q 258 498 258 669 q 336 227 258 321 q 566 132 414 132 z "},"ŏ":{"ha":872,"x_min":73,"x_max":799,"o":"m 439 -16 q 277 14 349 -16 q 162 94 206 43 q 96 209 119 144 q 73 348 73 274 q 96 489 73 423 q 164 605 119 554 q 279 684 208 655 q 439 713 350 713 q 600 685 530 713 q 713 605 671 656 q 778 489 756 555 q 799 347 799 424 q 777 210 799 274 q 711 95 754 146 q 598 14 668 44 q 439 -16 528 -16 m 436 120 q 523 139 486 120 q 582 190 560 157 q 613 263 603 223 q 624 350 624 303 q 577 513 624 450 q 437 577 530 577 q 330 546 374 577 q 268 464 287 514 q 248 350 248 414 q 266 237 248 287 q 328 153 284 186 q 436 120 372 120 m 441 787 q 223 987 237 787 l 341 987 q 352 944 343 962 q 376 919 361 927 q 406 908 391 911 q 441 905 421 905 q 510 921 484 905 q 541 987 536 938 l 658 987 q 596 835 650 883 q 441 787 541 787 z "},"Ő":{"ha":1133,"x_min":72,"x_max":1061,"o":"m 637 1073 l 779 1306 l 980 1306 l 764 1073 l 637 1073 m 408 1073 l 512 1306 l 691 1306 l 530 1073 l 408 1073 m 570 -16 q 205 124 338 -16 q 72 498 72 263 q 206 867 72 728 q 572 1006 340 1006 q 929 867 796 1006 q 1061 498 1061 728 q 930 123 1061 262 q 570 -16 800 -16 m 566 132 q 795 227 717 132 q 874 498 874 322 q 795 764 874 669 q 568 859 717 859 q 338 764 418 859 q 258 498 258 669 q 336 227 258 321 q 566 132 414 132 z "},"ő":{"ha":872,"x_min":73,"x_max":850,"o":"m 439 -16 q 277 14 349 -16 q 162 94 206 43 q 96 209 119 144 q 73 348 73 274 q 96 489 73 423 q 164 605 119 554 q 279 684 208 655 q 439 713 350 713 q 600 685 530 713 q 713 605 671 656 q 778 489 756 555 q 799 347 799 424 q 777 210 799 274 q 711 95 754 146 q 598 14 668 44 q 439 -16 528 -16 m 436 120 q 523 139 486 120 q 582 190 560 157 q 613 263 603 223 q 624 350 624 303 q 577 513 624 450 q 437 577 530 577 q 330 546 374 577 q 268 464 287 514 q 248 350 248 414 q 266 237 248 287 q 328 153 284 186 q 436 120 372 120 m 507 781 l 649 1015 l 850 1015 l 634 781 l 507 781 m 278 781 l 382 1015 l 561 1015 l 399 781 l 278 781 z "},"Œ":{"ha":1395,"x_min":72,"x_max":1320,"o":"m 557 118 l 559 118 q 623 123 593 118 q 671 134 652 127 q 704 149 689 140 q 725 162 719 157 q 734 170 730 167 l 734 808 q 570 860 669 860 q 529 858 551 860 q 449 839 487 853 q 376 797 412 825 q 315 729 340 769 q 273 628 289 688 q 258 492 258 567 q 339 215 258 311 q 557 118 420 119 m 734 170 q 734 170 735 171 m 734 948 l 734 987 l 1301 987 l 1301 840 l 905 840 l 905 579 l 1276 579 l 1276 431 l 907 431 l 907 147 l 1320 147 l 1320 0 l 734 0 l 734 42 q 724 35 732 40 q 700 21 717 30 q 664 4 684 12 q 615 -9 644 -3 q 555 -16 585 -16 l 536 -16 q 357 15 439 -16 q 210 107 275 46 q 109 268 146 168 q 72 496 72 368 q 107 707 72 612 q 204 866 143 803 q 345 965 265 929 q 515 1005 425 1001 q 527 1005 519 1005 q 538 1006 534 1006 q 610 1000 576 1006 q 664 988 644 995 q 702 971 685 981 q 724 957 718 962 q 734 948 730 951 z "},"œ":{"ha":1358,"x_min":68,"x_max":1260,"o":"m 1097 435 l 1097 449 q 1051 546 1097 511 q 942 581 1005 581 q 831 545 876 581 q 779 435 787 508 l 1097 435 m 435 120 q 511 138 478 120 q 565 188 545 157 q 595 260 585 220 q 605 347 605 300 q 562 514 605 451 q 431 577 519 577 q 293 512 342 577 q 244 347 244 448 q 292 183 244 247 q 435 120 340 120 m 434 -15 q 168 86 267 -15 q 68 347 68 186 q 164 610 68 507 q 429 713 260 713 q 586 680 519 713 q 692 592 652 647 q 794 685 734 654 q 945 715 853 715 q 1177 613 1093 715 q 1260 338 1260 511 l 1260 294 l 777 294 l 779 278 q 989 120 791 120 q 1056 128 1021 120 q 1115 146 1090 136 q 1161 169 1141 157 q 1193 187 1182 180 l 1204 195 l 1250 73 q 1237 63 1245 69 q 1201 42 1229 57 q 1142 16 1173 27 q 1064 -5 1112 4 q 969 -15 1017 -15 q 809 19 887 -15 q 693 108 731 54 q 586 20 660 54 q 434 -15 513 -15 z "},"Ŕ":{"ha":941,"x_min":129,"x_max":896,"o":"m 374 1082 l 553 1279 l 768 1279 l 528 1082 l 374 1082 m 299 564 l 464 564 q 648 707 648 564 q 610 812 648 785 q 482 840 571 840 l 299 840 l 299 564 m 129 0 l 129 987 l 485 987 q 626 975 566 987 q 733 933 685 963 q 806 849 781 904 q 830 715 830 795 q 781 567 830 631 q 631 481 731 503 q 762 326 720 431 l 896 0 l 709 0 l 596 294 q 536 392 568 366 q 437 418 503 418 l 301 418 l 301 0 l 129 0 z "},"ŕ":{"ha":529,"x_min":96,"x_max":617,"o":"m 110 0 l 110 519 q 106 604 110 560 q 100 672 103 648 l 96 696 l 275 696 l 275 604 q 358 686 317 659 q 450 713 399 713 q 519 703 481 713 l 519 556 q 435 571 474 571 q 321 526 366 571 q 277 394 277 480 l 277 0 l 110 0 m 222 791 l 401 987 l 617 987 l 377 791 l 222 791 z "},"Ŗ":{"ha":941,"x_min":129,"x_max":896,"o":"m 332 -439 l 408 -96 l 597 -96 l 475 -439 l 332 -439 m 299 564 l 464 564 q 648 707 648 564 q 610 812 648 785 q 482 840 571 840 l 299 840 l 299 564 m 129 0 l 129 987 l 485 987 q 626 975 566 987 q 733 933 685 963 q 806 849 781 904 q 830 715 830 795 q 781 567 830 631 q 631 481 731 503 q 762 326 720 431 l 896 0 l 709 0 l 596 294 q 536 392 568 366 q 437 418 503 418 l 301 418 l 301 0 l 129 0 z "},"ŗ":{"ha":529,"x_min":70,"x_max":519,"o":"m 70 -439 l 146 -96 l 336 -96 l 214 -439 l 70 -439 m 110 0 l 110 519 q 106 604 110 560 q 100 672 103 648 l 96 696 l 275 696 l 275 604 q 358 686 317 659 q 450 713 399 713 q 519 703 481 713 l 519 556 q 435 571 474 571 q 321 526 366 571 q 277 394 277 480 l 277 0 l 110 0 z "},"Ř":{"ha":941,"x_min":129,"x_max":896,"o":"m 368 1095 l 178 1344 l 350 1344 l 431 1246 l 514 1344 l 694 1344 l 505 1095 l 368 1095 m 299 564 l 464 564 q 648 707 648 564 q 610 812 648 785 q 482 840 571 840 l 299 840 l 299 564 m 129 0 l 129 987 l 485 987 q 626 975 566 987 q 733 933 685 963 q 806 849 781 904 q 830 715 830 795 q 781 567 830 631 q 631 481 731 503 q 762 326 720 431 l 896 0 l 709 0 l 596 294 q 536 392 568 366 q 437 418 503 418 l 301 418 l 301 0 l 129 0 z "},"ř":{"ha":529,"x_min":27,"x_max":544,"o":"m 110 0 l 110 519 q 106 604 110 560 q 100 672 103 648 l 96 696 l 275 696 l 275 604 q 358 686 317 659 q 450 713 399 713 q 519 703 481 713 l 519 556 q 435 571 474 571 q 321 526 366 571 q 277 394 277 480 l 277 0 l 110 0 m 218 804 l 27 1053 l 199 1053 l 280 954 l 363 1053 l 544 1053 l 355 804 l 218 804 z "},"Ś":{"ha":852,"x_min":78,"x_max":774,"o":"m 338 1082 l 517 1279 l 732 1279 l 492 1082 l 338 1082 m 422 -16 q 227 14 321 -16 q 78 97 132 44 l 151 220 q 276 157 199 183 q 412 132 353 132 q 547 165 503 132 q 591 269 591 199 q 587 312 591 296 q 568 347 583 329 q 526 380 554 365 q 450 412 498 395 q 381 435 430 419 q 311 458 333 450 q 134 567 189 505 q 79 737 79 630 q 124 886 79 824 q 246 977 170 947 q 420 1006 322 1006 q 625 980 552 1006 q 764 892 699 954 l 675 778 q 444 857 592 857 q 313 829 363 857 q 262 745 262 802 q 267 699 262 717 q 287 664 272 681 q 331 632 302 646 q 407 600 359 617 q 478 577 424 594 q 558 549 532 559 q 726 439 679 501 q 774 265 774 376 q 745 135 774 191 q 665 47 715 79 q 554 0 615 16 q 422 -16 493 -16 z "},"ś":{"ha":670,"x_min":72,"x_max":659,"o":"m 362 -16 q 194 10 271 -16 q 72 72 117 36 l 114 193 q 222 138 157 159 q 347 117 287 117 q 432 136 404 117 q 461 197 461 155 l 461 210 q 444 247 461 231 q 366 281 427 262 l 267 313 q 204 336 229 326 q 153 363 179 347 q 112 398 127 379 q 89 446 98 418 q 79 511 79 474 q 100 604 79 564 q 157 667 121 644 q 239 701 194 690 q 337 712 283 712 q 470 695 404 712 q 587 645 536 678 l 543 530 q 448 566 503 551 q 349 581 393 581 q 266 567 292 581 q 240 520 240 553 q 248 486 240 498 q 282 461 256 474 q 365 429 308 448 l 455 399 q 542 359 509 380 q 595 297 575 337 q 615 197 615 257 q 600 113 615 151 q 560 52 585 76 q 502 13 535 28 q 433 -9 468 -3 q 362 -16 399 -16 m 264 791 l 444 987 l 659 987 l 419 791 l 264 791 z "},"Ŝ":{"ha":852,"x_min":78,"x_max":774,"o":"m 157 1116 l 332 1367 l 503 1367 l 682 1116 l 515 1116 l 422 1249 l 328 1116 l 157 1116 m 422 -16 q 227 14 321 -16 q 78 97 132 44 l 151 220 q 276 157 199 183 q 412 132 353 132 q 547 165 503 132 q 591 269 591 199 q 587 312 591 296 q 568 347 583 329 q 526 380 554 365 q 450 412 498 395 q 381 435 430 419 q 311 458 333 450 q 134 567 189 505 q 79 737 79 630 q 124 886 79 824 q 246 977 170 947 q 420 1006 322 1006 q 625 980 552 1006 q 764 892 699 954 l 675 778 q 444 857 592 857 q 313 829 363 857 q 262 745 262 802 q 267 699 262 717 q 287 664 272 681 q 331 632 302 646 q 407 600 359 617 q 478 577 424 594 q 558 549 532 559 q 726 439 679 501 q 774 265 774 376 q 745 135 774 191 q 665 47 715 79 q 554 0 615 16 q 422 -16 493 -16 z "},"ŝ":{"ha":670,"x_min":72,"x_max":615,"o":"m 362 -16 q 194 10 271 -16 q 72 72 117 36 l 114 193 q 222 138 157 159 q 347 117 287 117 q 432 136 404 117 q 461 197 461 155 l 461 210 q 444 247 461 231 q 366 281 427 262 l 267 313 q 204 336 229 326 q 153 363 179 347 q 112 398 127 379 q 89 446 98 418 q 79 511 79 474 q 100 604 79 564 q 157 667 121 644 q 239 701 194 690 q 337 712 283 712 q 470 695 404 712 q 587 645 536 678 l 543 530 q 448 566 503 551 q 349 581 393 581 q 266 567 292 581 q 240 520 240 553 q 248 486 240 498 q 282 461 256 474 q 365 429 308 448 l 455 399 q 542 359 509 380 q 595 297 575 337 q 615 197 615 257 q 600 113 615 151 q 560 52 585 76 q 502 13 535 28 q 433 -9 468 -3 q 362 -16 399 -16 m 75 824 l 249 1075 l 420 1075 l 600 824 l 432 824 l 340 957 l 245 824 l 75 824 z "},"Ş":{"ha":852,"x_min":78,"x_max":774,"o":"m 296 -289 l 303 -199 q 359 -217 326 -209 q 421 -225 392 -225 q 490 -176 490 -225 q 386 -95 490 -111 l 366 -92 l 387 26 l 471 26 l 460 -51 q 572 -97 533 -56 q 610 -192 610 -138 q 606 -230 610 -212 q 593 -261 602 -248 q 574 -287 585 -275 q 548 -306 562 -298 q 518 -319 534 -313 q 484 -327 501 -324 q 448 -329 467 -329 q 296 -289 366 -329 m 422 -16 q 227 14 321 -16 q 78 97 132 44 l 151 220 q 276 157 199 183 q 412 132 353 132 q 547 165 503 132 q 591 269 591 199 q 587 312 591 296 q 568 347 583 329 q 526 380 554 365 q 450 412 498 395 q 381 435 430 419 q 311 458 333 450 q 134 567 189 505 q 79 737 79 630 q 124 886 79 824 q 246 977 170 947 q 420 1006 322 1006 q 625 980 552 1006 q 764 892 699 954 l 675 778 q 444 857 592 857 q 313 829 363 857 q 262 745 262 802 q 267 699 262 717 q 287 664 272 681 q 331 632 302 646 q 407 600 359 617 q 478 577 424 594 q 558 549 532 559 q 726 439 679 501 q 774 265 774 376 q 745 135 774 191 q 665 47 715 79 q 554 0 615 16 q 422 -16 493 -16 z "},"ş":{"ha":670,"x_min":72,"x_max":615,"o":"m 362 -16 q 194 10 271 -16 q 72 72 117 36 l 114 193 q 222 138 157 159 q 347 117 287 117 q 432 136 404 117 q 461 197 461 155 l 461 210 q 444 247 461 231 q 366 281 427 262 l 267 313 q 204 336 229 326 q 153 363 179 347 q 112 398 127 379 q 89 446 98 418 q 79 511 79 474 q 100 604 79 564 q 157 667 121 644 q 239 701 194 690 q 337 712 283 712 q 470 695 404 712 q 587 645 536 678 l 543 530 q 448 566 503 551 q 349 581 393 581 q 266 567 292 581 q 240 520 240 553 q 248 486 240 498 q 282 461 256 474 q 365 429 308 448 l 455 399 q 542 359 509 380 q 595 297 575 337 q 615 197 615 257 q 600 113 615 151 q 560 52 585 76 q 502 13 535 28 q 433 -9 468 -3 q 362 -16 399 -16 m 220 -289 l 227 -199 q 283 -217 250 -209 q 345 -225 316 -225 q 414 -176 414 -225 q 310 -95 414 -111 l 290 -92 l 311 26 l 395 26 l 384 -51 q 496 -97 457 -56 q 534 -192 534 -138 q 530 -230 534 -212 q 517 -261 526 -248 q 498 -287 509 -275 q 472 -306 486 -298 q 442 -319 458 -313 q 408 -327 425 -324 q 372 -329 391 -329 q 220 -289 290 -329 z "},"Š":{"ha":852,"x_min":78,"x_max":774,"o":"m 333 1095 l 142 1344 l 315 1344 l 395 1246 l 479 1344 l 659 1344 l 470 1095 l 333 1095 m 422 -16 q 227 14 321 -16 q 78 97 132 44 l 151 220 q 276 157 199 183 q 412 132 353 132 q 547 165 503 132 q 591 269 591 199 q 587 312 591 296 q 568 347 583 329 q 526 380 554 365 q 450 412 498 395 q 381 435 430 419 q 311 458 333 450 q 134 567 189 505 q 79 737 79 630 q 124 886 79 824 q 246 977 170 947 q 420 1006 322 1006 q 625 980 552 1006 q 764 892 699 954 l 675 778 q 444 857 592 857 q 313 829 363 857 q 262 745 262 802 q 267 699 262 717 q 287 664 272 681 q 331 632 302 646 q 407 600 359 617 q 478 577 424 594 q 558 549 532 559 q 726 439 679 501 q 774 265 774 376 q 745 135 774 191 q 665 47 715 79 q 554 0 615 16 q 422 -16 493 -16 z "},"š":{"ha":670,"x_min":68,"x_max":615,"o":"m 362 -16 q 194 10 271 -16 q 72 72 117 36 l 114 193 q 222 138 157 159 q 347 117 287 117 q 432 136 404 117 q 461 197 461 155 l 461 210 q 444 247 461 231 q 366 281 427 262 l 267 313 q 204 336 229 326 q 153 363 179 347 q 112 398 127 379 q 89 446 98 418 q 79 511 79 474 q 100 604 79 564 q 157 667 121 644 q 239 701 194 690 q 337 712 283 712 q 470 695 404 712 q 587 645 536 678 l 543 530 q 448 566 503 551 q 349 581 393 581 q 266 567 292 581 q 240 520 240 553 q 248 486 240 498 q 282 461 256 474 q 365 429 308 448 l 455 399 q 542 359 509 380 q 595 297 575 337 q 615 197 615 257 q 600 113 615 151 q 560 52 585 76 q 502 13 535 28 q 433 -9 468 -3 q 362 -16 399 -16 m 259 804 l 68 1053 l 241 1053 l 321 954 l 405 1053 l 585 1053 l 396 804 l 259 804 z "},"Ţ":{"ha":801,"x_min":7,"x_max":793,"o":"m 269 -289 l 277 -199 q 332 -217 299 -209 q 395 -225 366 -225 q 463 -176 463 -225 q 359 -95 463 -111 l 340 -92 l 361 26 l 445 26 l 433 -51 q 545 -97 507 -56 q 584 -192 584 -138 q 579 -230 584 -212 q 567 -261 575 -248 q 547 -287 559 -275 q 522 -306 536 -298 q 491 -319 508 -313 q 457 -327 475 -324 q 421 -329 440 -329 q 269 -289 340 -329 m 312 0 l 312 840 l 7 840 l 7 987 l 793 987 l 793 840 l 484 840 l 484 0 l 312 0 z "},"ţ":{"ha":545,"x_min":1,"x_max":500,"o":"m 500 1 l 433 1 q 362 3 392 1 q 301 12 332 5 q 247 30 269 18 q 205 60 225 41 q 172 105 184 79 q 153 170 160 132 q 146 255 146 207 l 146 583 l 1 583 l 1 696 l 153 696 l 153 859 l 313 908 l 313 696 l 495 696 l 495 583 l 313 583 l 313 245 q 318 192 313 212 q 334 159 323 172 q 368 140 344 146 q 420 132 392 134 q 500 130 449 130 l 500 1 m 165 -289 l 173 -199 q 229 -217 195 -209 q 291 -225 262 -225 q 359 -176 359 -225 q 256 -95 359 -111 l 236 -92 l 257 26 l 341 26 l 330 -51 q 441 -97 403 -56 q 480 -192 480 -138 q 476 -230 480 -212 q 463 -261 471 -248 q 444 -287 455 -275 q 418 -306 432 -298 q 388 -319 404 -313 q 354 -327 371 -324 q 317 -329 336 -329 q 165 -289 236 -329 z "},"Ť":{"ha":801,"x_min":7,"x_max":793,"o":"m 328 1095 l 137 1344 l 309 1344 l 390 1246 l 473 1344 l 654 1344 l 465 1095 l 328 1095 m 312 0 l 312 840 l 7 840 l 7 987 l 793 987 l 793 840 l 484 840 l 484 0 l 312 0 z "},"ť":{"ha":545,"x_min":1,"x_max":642,"o":"m 500 1 l 433 1 q 362 3 392 1 q 301 12 332 5 q 247 30 269 18 q 205 60 225 41 q 172 105 184 79 q 153 170 160 132 q 146 255 146 207 l 146 583 l 1 583 l 1 696 l 153 696 l 153 859 l 313 908 l 313 696 l 495 696 l 495 583 l 313 583 l 313 245 q 318 192 313 212 q 334 159 323 172 q 368 140 344 146 q 420 132 392 134 q 500 130 449 130 l 500 1 m 375 871 l 452 1214 l 642 1214 l 519 871 l 375 871 z "},"Ŧ":{"ha":801,"x_min":7,"x_max":793,"o":"m 193 446 l 193 553 l 616 553 l 616 446 l 193 446 m 312 0 l 312 840 l 7 840 l 7 987 l 793 987 l 793 840 l 484 840 l 484 0 l 312 0 z "},"ŧ":{"ha":545,"x_min":1,"x_max":500,"o":"m 500 1 l 433 1 q 362 3 392 1 q 301 12 332 5 q 247 30 269 18 q 205 60 225 41 q 172 105 184 79 q 153 170 160 132 q 146 255 146 207 l 146 583 l 1 583 l 1 696 l 153 696 l 153 859 l 313 908 l 313 696 l 495 696 l 495 583 l 313 583 l 313 245 q 318 192 313 212 q 334 159 323 172 q 368 140 344 146 q 420 132 392 134 q 500 130 449 130 l 500 1 m 16 354 l 16 460 l 439 460 l 439 354 l 16 354 z "},"Ũ":{"ha":1023,"x_min":111,"x_max":912,"o":"m 547 1088 l 546 1088 q 477 1106 517 1088 q 402 1142 437 1124 q 351 1160 367 1160 q 322 1143 336 1160 q 304 1091 308 1126 l 196 1091 q 237 1233 196 1178 q 344 1289 278 1289 q 418 1272 378 1289 q 491 1236 458 1255 q 537 1216 524 1218 q 543 1216 539 1216 q 547 1215 546 1215 q 579 1231 568 1215 q 589 1289 590 1246 l 699 1289 q 659 1138 699 1188 q 547 1088 618 1088 m 512 -16 q 345 7 417 -16 q 230 68 273 31 q 159 162 186 106 q 121 276 132 218 q 111 406 111 334 l 111 987 l 283 987 l 283 399 q 295 291 283 338 q 327 214 307 244 q 376 165 347 184 q 438 139 406 146 q 511 132 471 132 q 603 144 563 132 q 674 187 642 157 q 723 270 706 216 q 740 399 740 323 l 740 987 l 912 987 l 912 406 q 903 277 912 334 q 866 163 893 219 q 796 68 840 106 q 681 7 753 31 q 512 -16 608 -16 z "},"ũ":{"ha":804,"x_min":88,"x_max":714,"o":"m 355 -16 q 159 57 229 -16 q 88 255 88 129 l 88 696 l 255 696 l 255 258 q 291 154 255 189 q 390 120 327 120 q 502 158 465 120 q 538 279 538 195 l 538 696 l 706 696 l 706 187 l 714 0 l 541 0 l 538 103 q 523 70 534 88 q 490 32 511 52 q 434 -2 469 12 q 355 -16 398 -16 m 448 796 l 448 796 q 379 814 419 796 q 304 851 339 833 q 252 869 269 869 q 223 852 237 869 q 206 800 210 835 l 98 800 q 139 942 98 886 q 245 997 180 997 q 320 980 280 997 q 392 945 359 963 q 439 924 425 926 q 444 924 441 924 q 449 924 448 924 q 480 939 469 924 q 491 997 492 954 l 601 997 q 560 847 601 897 q 448 796 519 797 z "},"Ū":{"ha":1023,"x_min":111,"x_max":912,"o":"m 273 1069 l 273 1175 l 696 1175 l 696 1069 l 273 1069 m 512 -16 q 345 7 417 -16 q 230 68 273 31 q 159 162 186 106 q 121 276 132 218 q 111 406 111 334 l 111 987 l 283 987 l 283 399 q 295 291 283 338 q 327 214 307 244 q 376 165 347 184 q 438 139 406 146 q 511 132 471 132 q 603 144 563 132 q 674 187 642 157 q 723 270 706 216 q 740 399 740 323 l 740 987 l 912 987 l 912 406 q 903 277 912 334 q 866 163 893 219 q 796 68 840 106 q 681 7 753 31 q 512 -16 608 -16 z "},"ū":{"ha":804,"x_min":88,"x_max":714,"o":"m 355 -16 q 159 57 229 -16 q 88 255 88 129 l 88 696 l 255 696 l 255 258 q 291 154 255 189 q 390 120 327 120 q 502 158 465 120 q 538 279 538 195 l 538 696 l 706 696 l 706 187 l 714 0 l 541 0 l 538 103 q 523 70 534 88 q 490 32 511 52 q 434 -2 469 12 q 355 -16 398 -16 m 174 777 l 174 884 l 597 884 l 597 777 l 174 777 z "},"Ŭ":{"ha":1023,"x_min":111,"x_max":912,"o":"m 509 1078 q 291 1279 304 1078 l 409 1279 q 420 1236 411 1253 q 444 1211 429 1219 q 474 1199 459 1202 q 509 1196 489 1196 q 578 1213 552 1196 q 608 1279 604 1230 l 726 1279 q 664 1126 718 1175 q 509 1078 609 1078 m 512 -16 q 345 7 417 -16 q 230 68 273 31 q 159 162 186 106 q 121 276 132 218 q 111 406 111 334 l 111 987 l 283 987 l 283 399 q 295 291 283 338 q 327 214 307 244 q 376 165 347 184 q 438 139 406 146 q 511 132 471 132 q 603 144 563 132 q 674 187 642 157 q 723 270 706 216 q 740 399 740 323 l 740 987 l 912 987 l 912 406 q 903 277 912 334 q 866 163 893 219 q 796 68 840 106 q 681 7 753 31 q 512 -16 608 -16 z "},"ŭ":{"ha":804,"x_min":88,"x_max":714,"o":"m 355 -16 q 159 57 229 -16 q 88 255 88 129 l 88 696 l 255 696 l 255 258 q 291 154 255 189 q 390 120 327 120 q 502 158 465 120 q 538 279 538 195 l 538 696 l 706 696 l 706 187 l 714 0 l 541 0 l 538 103 q 523 70 534 88 q 490 32 511 52 q 434 -2 469 12 q 355 -16 398 -16 m 411 787 q 193 987 206 787 l 311 987 q 321 944 313 962 q 346 919 330 927 q 376 908 361 911 q 411 905 391 905 q 479 921 454 905 q 510 987 505 938 l 627 987 q 565 835 620 883 q 411 787 511 787 z "},"Ů":{"ha":1023,"x_min":111,"x_max":912,"o":"m 502 1074 q 396 1115 439 1074 q 353 1218 353 1156 q 396 1321 353 1280 q 502 1362 439 1362 q 608 1321 564 1362 q 652 1218 652 1280 q 608 1115 652 1156 q 502 1074 564 1074 m 503 1144 q 554 1166 532 1144 q 575 1218 575 1187 q 554 1270 575 1249 q 503 1291 532 1291 q 452 1270 473 1291 q 431 1218 431 1249 q 452 1166 431 1187 q 503 1144 473 1144 m 512 -16 q 345 7 417 -16 q 230 68 273 31 q 159 162 186 106 q 121 276 132 218 q 111 406 111 334 l 111 987 l 283 987 l 283 399 q 295 291 283 338 q 327 214 307 244 q 376 165 347 184 q 438 139 406 146 q 511 132 471 132 q 603 144 563 132 q 674 187 642 157 q 723 270 706 216 q 740 399 740 323 l 740 987 l 912 987 l 912 406 q 903 277 912 334 q 866 163 893 219 q 796 68 840 106 q 681 7 753 31 q 512 -16 608 -16 z "},"ů":{"ha":804,"x_min":88,"x_max":714,"o":"m 355 -16 q 159 57 229 -16 q 88 255 88 129 l 88 696 l 255 696 l 255 258 q 291 154 255 189 q 390 120 327 120 q 502 158 465 120 q 538 279 538 195 l 538 696 l 706 696 l 706 187 l 714 0 l 541 0 l 538 103 q 523 70 534 88 q 490 32 511 52 q 434 -2 469 12 q 355 -16 398 -16 m 404 782 q 298 823 341 782 q 254 926 254 865 q 297 1030 254 989 q 404 1071 340 1071 q 510 1030 466 1071 q 553 926 553 989 q 510 823 553 865 q 404 782 466 782 m 404 852 q 455 874 434 852 q 477 926 477 896 q 455 978 477 957 q 404 1000 434 1000 q 353 978 374 1000 q 332 926 332 957 q 353 874 332 896 q 404 852 374 852 z "},"Ű":{"ha":1023,"x_min":111,"x_max":918,"o":"m 575 1073 l 717 1306 l 918 1306 l 702 1073 l 575 1073 m 346 1073 l 450 1306 l 629 1306 l 467 1073 l 346 1073 m 512 -16 q 345 7 417 -16 q 230 68 273 31 q 159 162 186 106 q 121 276 132 218 q 111 406 111 334 l 111 987 l 283 987 l 283 399 q 295 291 283 338 q 327 214 307 244 q 376 165 347 184 q 438 139 406 146 q 511 132 471 132 q 603 144 563 132 q 674 187 642 157 q 723 270 706 216 q 740 399 740 323 l 740 987 l 912 987 l 912 406 q 903 277 912 334 q 866 163 893 219 q 796 68 840 106 q 681 7 753 31 q 512 -16 608 -16 z "},"ű":{"ha":804,"x_min":88,"x_max":819,"o":"m 355 -16 q 159 57 229 -16 q 88 255 88 129 l 88 696 l 255 696 l 255 258 q 291 154 255 189 q 390 120 327 120 q 502 158 465 120 q 538 279 538 195 l 538 696 l 706 696 l 706 187 l 714 0 l 541 0 l 538 103 q 523 70 534 88 q 490 32 511 52 q 434 -2 469 12 q 355 -16 398 -16 m 477 781 l 618 1015 l 819 1015 l 604 781 l 477 781 m 248 781 l 351 1015 l 530 1015 l 369 781 l 248 781 z "},"Ų":{"ha":1023,"x_min":111,"x_max":912,"o":"m 564 -241 q 459 -220 497 -241 q 420 -154 420 -198 q 426 -119 420 -136 q 439 -90 431 -102 q 460 -63 446 -77 q 484 -42 473 -50 q 512 -24 494 -34 q 538 -9 529 -14 q 565 4 548 -4 q 586 14 581 12 l 677 16 q 604 -45 631 -11 q 576 -106 576 -80 q 619 -138 576 -138 q 736 -113 654 -138 l 736 -214 q 564 -241 645 -241 m 512 -16 q 345 7 417 -16 q 230 68 273 31 q 159 162 186 106 q 121 276 132 218 q 111 406 111 334 l 111 987 l 283 987 l 283 399 q 295 291 283 338 q 327 214 307 244 q 376 165 347 184 q 438 139 406 146 q 511 132 471 132 q 603 144 563 132 q 674 187 642 157 q 723 270 706 216 q 740 399 740 323 l 740 987 l 912 987 l 912 406 q 903 277 912 334 q 866 163 893 219 q 796 68 840 106 q 681 7 753 31 q 512 -16 608 -16 z "},"ų":{"ha":804,"x_min":88,"x_max":757,"o":"m 355 -16 q 159 57 229 -16 q 88 255 88 129 l 88 696 l 255 696 l 255 258 q 291 154 255 189 q 390 120 327 120 q 502 158 465 120 q 538 279 538 195 l 538 696 l 706 696 l 706 187 l 714 0 l 541 0 l 538 103 q 523 70 534 88 q 490 32 511 52 q 434 -2 469 12 q 355 -16 398 -16 m 585 -241 q 479 -220 517 -241 q 441 -154 441 -198 q 446 -119 441 -136 q 459 -90 452 -102 q 480 -63 467 -77 q 504 -42 494 -50 q 532 -24 515 -34 q 559 -9 549 -14 q 585 4 568 -4 q 606 14 602 12 l 698 16 q 624 -45 651 -11 q 597 -106 597 -80 q 640 -138 597 -138 q 757 -113 674 -138 l 757 -214 q 585 -241 665 -241 z "},"Ŵ":{"ha":1421,"x_min":8,"x_max":1413,"o":"m 446 1095 l 620 1346 l 791 1346 l 970 1095 l 803 1095 l 711 1228 l 616 1095 l 446 1095 m 290 0 l 8 987 l 191 987 q 256 746 210 916 q 334 451 301 576 q 395 208 366 326 q 465 453 427 328 q 557 748 503 579 q 633 987 611 916 l 797 987 l 973 435 l 1041 204 q 1100 450 1069 323 q 1174 745 1132 576 q 1236 987 1217 913 l 1413 987 l 1138 0 l 941 0 l 710 749 l 485 0 l 290 0 z "},"ŵ":{"ha":1143,"x_min":9,"x_max":1133,"o":"m 262 0 l 9 696 l 189 696 q 347 207 294 370 q 511 696 374 289 l 658 696 q 707 542 675 642 q 765 360 739 441 q 814 205 791 278 q 977 696 834 267 l 1133 696 l 869 0 l 729 0 q 571 473 586 428 q 403 0 545 398 l 262 0 m 319 804 l 494 1055 l 665 1055 l 844 804 l 677 804 l 585 937 l 490 804 l 319 804 z "},"Ŷ":{"ha":869,"x_min":-9,"x_max":875,"o":"m 180 1095 l 354 1346 l 525 1346 l 705 1095 l 537 1095 l 445 1228 l 351 1095 l 180 1095 m 342 0 l 342 382 l -9 987 l 186 987 l 431 535 l 674 987 l 875 987 l 515 382 l 515 0 l 342 0 z "},"ŷ":{"ha":755,"x_min":20,"x_max":742,"o":"m 172 -302 l 102 -188 q 243 -112 196 -151 q 307 -18 290 -73 l 316 16 l 20 696 l 195 696 l 397 197 l 570 696 l 742 696 l 460 -38 q 383 -165 431 -110 q 284 -252 336 -220 q 172 -302 233 -283 m 138 804 l 312 1055 l 483 1055 l 663 804 l 495 804 l 403 937 l 309 804 l 138 804 z "},"Ÿ":{"ha":869,"x_min":-9,"x_max":875,"o":"m 511 1072 l 511 1225 l 677 1225 l 677 1072 l 511 1072 m 201 1072 l 201 1225 l 368 1225 l 368 1072 l 201 1072 m 342 0 l 342 382 l -9 987 l 186 987 l 431 535 l 674 987 l 875 987 l 515 382 l 515 0 l 342 0 z "},"Ź":{"ha":815,"x_min":48,"x_max":753,"o":"m 353 1082 l 532 1279 l 747 1279 l 507 1082 l 353 1082 m 48 0 l 48 92 l 515 840 l 66 840 l 66 987 l 753 987 l 753 898 l 283 148 l 753 148 l 753 0 l 48 0 z "},"ź":{"ha":677,"x_min":66,"x_max":694,"o":"m 66 0 l 66 89 l 394 562 l 83 562 l 83 696 l 612 696 l 612 608 l 281 134 l 630 134 l 630 0 l 66 0 m 299 791 l 478 987 l 694 987 l 454 791 l 299 791 z "},"Ż":{"ha":815,"x_min":48,"x_max":753,"o":"m 350 1082 l 350 1237 l 517 1237 l 517 1082 l 350 1082 m 48 0 l 48 92 l 515 840 l 66 840 l 66 987 l 753 987 l 753 898 l 283 148 l 753 148 l 753 0 l 48 0 z "},"ż":{"ha":677,"x_min":66,"x_max":630,"o":"m 66 0 l 66 89 l 394 562 l 83 562 l 83 696 l 612 696 l 612 608 l 281 134 l 630 134 l 630 0 l 66 0 m 296 791 l 296 945 l 463 945 l 463 791 l 296 791 z "},"Ž":{"ha":815,"x_min":48,"x_max":753,"o":"m 348 1095 l 157 1344 l 330 1344 l 410 1246 l 494 1344 l 674 1344 l 485 1095 l 348 1095 m 48 0 l 48 92 l 515 840 l 66 840 l 66 987 l 753 987 l 753 898 l 283 148 l 753 148 l 753 0 l 48 0 z "},"ž":{"ha":677,"x_min":66,"x_max":630,"o":"m 66 0 l 66 89 l 394 562 l 83 562 l 83 696 l 612 696 l 612 608 l 281 134 l 630 134 l 630 0 l 66 0 m 294 804 l 104 1053 l 276 1053 l 357 954 l 440 1053 l 621 1053 l 431 804 l 294 804 z "},"ſ":{"ha":670,"x_min":72,"x_max":615,"o":"m 362 -16 q 194 10 271 -16 q 72 72 117 36 l 114 193 q 222 138 157 159 q 347 117 287 117 q 432 136 404 117 q 461 197 461 155 l 461 210 q 444 247 461 231 q 366 281 427 262 l 267 313 q 204 336 229 326 q 153 363 179 347 q 112 398 127 379 q 89 446 98 418 q 79 511 79 474 q 100 604 79 564 q 157 667 121 644 q 239 701 194 690 q 337 712 283 712 q 470 695 404 712 q 587 645 536 678 l 543 530 q 448 566 503 551 q 349 581 393 581 q 266 567 292 581 q 240 520 240 553 q 248 486 240 498 q 282 461 256 474 q 365 429 308 448 l 455 399 q 542 359 509 380 q 595 297 575 337 q 615 197 615 257 q 600 113 615 151 q 560 52 585 76 q 502 13 535 28 q 433 -9 468 -3 q 362 -16 399 -16 z "},"ƒ":{"ha":753,"x_min":64,"x_max":740,"o":"m 138 -214 q 64 -201 102 -214 l 76 -61 q 143 -68 113 -68 q 170 -64 159 -68 q 196 -50 182 -61 q 222 -11 211 -38 q 242 59 234 17 l 309 429 l 214 429 l 242 540 l 330 540 l 369 751 q 378 793 374 774 q 393 837 383 812 q 414 882 402 863 q 444 921 425 901 q 485 954 463 941 q 541 975 508 967 q 611 983 573 983 q 683 976 650 983 q 727 960 715 968 l 740 953 l 728 817 q 650 831 684 831 q 630 829 639 831 q 608 823 621 828 q 587 809 596 818 q 570 783 578 800 q 557 743 562 766 l 517 540 l 619 540 l 597 429 l 492 429 l 420 31 q 325 -159 396 -104 q 138 -214 254 -214 m 730 817 q 728 817 730 817 l 730 817 z "},"Ǆ":{"ha":1881,"x_min":129,"x_max":1819,"o":"m 1413 1095 l 1223 1344 l 1395 1344 l 1476 1246 l 1559 1344 l 1740 1344 l 1550 1095 l 1413 1095 m 1114 0 l 1114 92 l 1581 840 l 1131 840 l 1131 987 l 1819 987 l 1819 898 l 1349 148 l 1818 148 l 1818 0 l 1114 0 m 129 0 l 129 987 l 404 987 q 847 862 701 987 q 994 500 994 736 q 850 127 994 255 q 432 0 707 0 l 129 0 m 301 148 l 441 148 q 715 237 620 148 q 811 500 811 327 q 714 752 811 665 q 420 840 618 840 l 301 840 l 301 148 z "},"ǅ":{"ha":1742,"x_min":129,"x_max":1695,"o":"m 1131 0 l 1131 89 l 1459 562 l 1148 562 l 1148 696 l 1678 696 l 1678 608 l 1347 134 l 1695 134 l 1695 0 l 1131 0 m 1360 804 l 1169 1053 l 1341 1053 l 1422 954 l 1506 1053 l 1686 1053 l 1497 804 l 1360 804 m 129 0 l 129 987 l 404 987 q 847 862 701 987 q 994 500 994 736 q 850 127 994 255 q 432 0 707 0 l 129 0 m 301 148 l 441 148 q 715 237 620 148 q 811 500 811 327 q 714 752 811 665 q 420 840 618 840 l 301 840 l 301 148 z "},"ǆ":{"ha":1536,"x_min":73,"x_max":1489,"o":"m 925 0 l 925 89 l 1253 562 l 942 562 l 942 696 l 1472 696 l 1472 608 l 1141 134 l 1489 134 l 1489 0 l 925 0 m 1154 804 l 963 1053 l 1135 1053 l 1216 954 l 1299 1053 l 1480 1053 l 1291 804 l 1154 804 m 425 120 q 506 139 471 120 q 561 190 541 157 q 590 262 581 223 q 600 347 600 302 q 556 513 600 449 q 424 577 512 577 q 325 545 365 577 q 267 464 284 513 q 250 350 250 414 q 259 263 250 303 q 289 190 269 223 q 344 139 309 157 q 425 120 379 120 m 391 -16 q 164 83 256 -16 q 73 345 73 182 q 94 484 73 418 q 155 602 115 550 q 259 683 195 653 q 404 713 323 713 q 525 684 475 713 q 595 623 575 654 l 595 988 l 762 988 l 762 186 q 768 0 762 182 l 595 0 l 594 89 q 574 57 588 73 q 536 23 559 41 q 474 -5 512 6 q 391 -16 436 -16 z "},"Ǉ":{"ha":1487,"x_min":129,"x_max":1358,"o":"m 129 0 l 129 987 l 301 987 l 301 148 l 758 148 l 758 0 l 129 0 m 1078 -224 q 861 -181 981 -224 l 892 -50 q 1047 -80 985 -80 q 1186 75 1186 -80 l 1186 987 l 1358 987 l 1358 83 q 1284 -145 1358 -65 q 1078 -224 1211 -224 z "},"ǈ":{"ha":1202,"x_min":129,"x_max":1115,"o":"m 947 833 l 947 987 l 1114 987 l 1114 833 l 947 833 m 863 -245 q 794 -241 826 -245 q 751 -232 763 -236 l 738 -227 l 757 -112 q 854 -125 799 -125 q 893 -120 878 -125 q 920 -102 908 -116 q 938 -60 932 -87 q 943 14 943 -32 l 943 696 l 1115 696 l 1115 -6 q 1104 -109 1115 -67 q 1065 -183 1093 -151 q 988 -230 1038 -215 q 863 -245 938 -245 m 757 -112 l 755 -111 l 757 -111 l 757 -112 m 129 0 l 129 987 l 301 987 l 301 148 l 758 148 l 758 0 l 129 0 z "},"ǉ":{"ha":764,"x_min":96,"x_max":676,"o":"m 96 0 l 96 988 l 262 988 l 262 0 l 96 0 m 509 833 l 509 987 l 675 987 l 675 833 l 509 833 m 425 -245 q 356 -241 387 -245 q 312 -232 324 -236 l 299 -227 l 318 -112 q 415 -125 360 -125 q 454 -120 439 -125 q 481 -102 469 -116 q 499 -60 494 -87 q 505 14 505 -32 l 505 696 l 676 696 l 676 -6 q 665 -109 676 -67 q 626 -183 654 -151 q 549 -230 599 -215 q 425 -245 499 -245 m 318 -112 l 316 -111 l 318 -111 l 318 -112 z "},"Ǌ":{"ha":1796,"x_min":129,"x_max":1668,"o":"m 129 0 l 129 987 l 311 987 q 812 260 782 305 l 812 987 l 977 987 l 977 0 l 793 0 q 288 728 338 657 l 288 0 l 129 0 m 1388 -224 q 1171 -181 1291 -224 l 1202 -50 q 1357 -80 1295 -80 q 1496 75 1496 -80 l 1496 987 l 1668 987 l 1668 83 q 1594 -145 1668 -65 q 1388 -224 1520 -224 z "},"ǋ":{"ha":1512,"x_min":129,"x_max":1425,"o":"m 1257 833 l 1257 987 l 1424 987 l 1424 833 l 1257 833 m 1173 -245 q 1104 -241 1136 -245 q 1061 -232 1073 -236 l 1048 -227 l 1067 -112 q 1164 -125 1109 -125 q 1203 -120 1188 -125 q 1230 -102 1218 -116 q 1248 -60 1242 -87 q 1253 14 1253 -32 l 1253 696 l 1425 696 l 1425 -6 q 1414 -109 1425 -67 q 1375 -183 1402 -151 q 1298 -230 1348 -215 q 1173 -245 1248 -245 m 1067 -112 l 1065 -111 l 1067 -111 l 1067 -112 m 129 0 l 129 987 l 311 987 q 812 260 782 305 l 812 987 l 977 987 l 977 0 l 793 0 q 288 728 338 657 l 288 0 l 129 0 z "},"ǌ":{"ha":1237,"x_min":94,"x_max":1149,"o":"m 107 0 l 107 431 q 104 571 107 505 q 97 666 100 637 l 94 696 l 272 696 l 272 603 q 368 685 308 657 q 484 713 428 713 q 590 697 545 713 q 670 646 635 682 q 724 548 705 610 q 742 397 742 486 l 742 0 l 574 0 l 574 408 q 545 539 574 500 q 450 577 516 577 q 396 566 425 577 q 339 536 367 555 q 294 485 312 517 q 275 416 275 454 l 275 0 l 107 0 m 982 833 l 982 987 l 1149 987 l 1149 833 l 982 833 m 898 -245 q 829 -241 861 -245 q 785 -232 798 -236 l 772 -227 l 791 -112 q 888 -125 833 -125 q 928 -120 913 -125 q 955 -102 943 -116 q 972 -60 967 -87 q 978 14 978 -32 l 978 696 l 1149 696 l 1149 -6 q 1138 -109 1149 -67 q 1100 -183 1127 -151 q 1022 -230 1072 -215 q 898 -245 972 -245 m 791 -112 l 789 -111 l 791 -111 l 791 -112 z "},"Ǎ":{"ha":989,"x_min":8,"x_max":980,"o":"m 416 1095 l 225 1344 l 397 1344 l 478 1246 l 562 1344 l 742 1344 l 553 1095 l 416 1095 m 355 401 l 620 401 q 489 786 542 633 q 355 401 445 658 m 8 0 l 405 987 l 580 987 l 980 0 l 785 0 l 690 241 l 291 241 l 197 0 l 8 0 z "},"ǎ":{"ha":876,"x_min":73,"x_max":783,"o":"m 389 804 l 199 1053 l 371 1053 l 452 954 l 535 1053 l 715 1053 l 526 804 l 389 804 m 437 120 q 579 182 534 120 q 623 348 623 244 q 576 516 623 454 q 433 577 529 577 q 290 515 340 577 q 240 349 240 454 q 290 182 240 245 q 437 120 340 120 m 416 -16 q 264 15 331 -16 q 156 96 197 45 q 94 210 115 147 q 73 340 73 272 q 95 478 73 413 q 158 597 117 544 q 269 682 200 650 q 424 713 337 713 q 618 622 550 713 l 618 696 l 783 696 l 783 0 l 614 0 l 614 95 q 416 -16 538 -16 z "},"Ǐ":{"ha":397,"x_min":-77,"x_max":440,"o":"m 114 1095 l -77 1344 l 96 1344 l 176 1246 l 260 1344 l 440 1344 l 251 1095 l 114 1095 m 109 0 l 109 987 l 281 987 l 281 0 l 109 0 z "},"ǐ":{"ha":329,"x_min":-117,"x_max":400,"o":"m 70 0 l 70 696 l 239 696 l 239 0 l 70 0 m 74 804 l -117 1053 l 56 1053 l 136 954 l 220 1053 l 400 1053 l 211 804 l 74 804 z "},"Ǒ":{"ha":1133,"x_min":72,"x_max":1061,"o":"m 488 1095 l 297 1344 l 469 1344 l 550 1246 l 633 1344 l 814 1344 l 625 1095 l 488 1095 m 570 -16 q 205 124 338 -16 q 72 498 72 263 q 206 867 72 728 q 572 1006 340 1006 q 929 867 796 1006 q 1061 498 1061 728 q 930 123 1061 262 q 570 -16 800 -16 m 566 132 q 795 227 717 132 q 874 498 874 322 q 795 764 874 669 q 568 859 717 859 q 338 764 418 859 q 258 498 258 669 q 336 227 258 321 q 566 132 414 132 z "},"ǒ":{"ha":872,"x_min":73,"x_max":799,"o":"m 439 -16 q 277 14 349 -16 q 162 94 206 43 q 96 209 119 144 q 73 348 73 274 q 96 489 73 423 q 164 605 119 554 q 279 684 208 655 q 439 713 350 713 q 600 685 530 713 q 713 605 671 656 q 778 489 756 555 q 799 347 799 424 q 777 210 799 274 q 711 95 754 146 q 598 14 668 44 q 439 -16 528 -16 m 436 120 q 523 139 486 120 q 582 190 560 157 q 613 263 603 223 q 624 350 624 303 q 577 513 624 450 q 437 577 530 577 q 330 546 374 577 q 268 464 287 514 q 248 350 248 414 q 266 237 248 287 q 328 153 284 186 q 436 120 372 120 m 357 804 l 167 1053 l 339 1053 l 420 954 l 503 1053 l 684 1053 l 494 804 l 357 804 z "},"Ǔ":{"ha":1023,"x_min":111,"x_max":912,"o":"m 425 1095 l 235 1344 l 407 1344 l 488 1246 l 571 1344 l 751 1344 l 562 1095 l 425 1095 m 512 -16 q 345 7 417 -16 q 230 68 273 31 q 159 162 186 106 q 121 276 132 218 q 111 406 111 334 l 111 987 l 283 987 l 283 399 q 295 291 283 338 q 327 214 307 244 q 376 165 347 184 q 438 139 406 146 q 511 132 471 132 q 603 144 563 132 q 674 187 642 157 q 723 270 706 216 q 740 399 740 323 l 740 987 l 912 987 l 912 406 q 903 277 912 334 q 866 163 893 219 q 796 68 840 106 q 681 7 753 31 q 512 -16 608 -16 z "},"ǔ":{"ha":804,"x_min":88,"x_max":714,"o":"m 355 -16 q 159 57 229 -16 q 88 255 88 129 l 88 696 l 255 696 l 255 258 q 291 154 255 189 q 390 120 327 120 q 502 158 465 120 q 538 279 538 195 l 538 696 l 706 696 l 706 187 l 714 0 l 541 0 l 538 103 q 523 70 534 88 q 490 32 511 52 q 434 -2 469 12 q 355 -16 398 -16 m 328 804 l 137 1053 l 309 1053 l 390 954 l 473 1053 l 654 1053 l 465 804 l 328 804 z "},"Ǣ":{"ha":1502,"x_min":13,"x_max":1354,"o":"m 650 1069 l 650 1175 l 1073 1175 l 1073 1069 l 650 1069 m 430 378 l 747 378 l 715 834 l 692 834 l 430 378 m 13 0 l 601 987 l 1336 987 l 1336 834 l 890 834 l 913 579 l 1335 579 l 1335 430 l 932 430 l 959 153 l 1354 153 l 1354 0 l 779 0 l 759 241 l 363 241 l 226 0 l 13 0 z "},"ǣ":{"ha":1204,"x_min":47,"x_max":1124,"o":"m 367 777 l 367 884 l 790 884 l 790 777 l 367 777 m 664 429 l 977 429 l 977 444 q 931 553 975 514 q 832 591 887 591 q 725 546 767 591 q 664 429 682 501 m 326 120 q 393 132 363 120 q 441 163 422 144 q 473 208 460 182 q 492 261 486 234 q 498 317 498 288 l 431 317 q 349 311 387 317 q 279 293 311 305 q 229 258 248 281 q 211 206 211 236 q 243 141 211 162 q 326 120 275 120 m 321 -15 q 121 41 195 -15 q 47 199 47 97 q 147 382 47 332 q 471 433 246 433 l 499 433 q 458 541 498 500 q 345 583 418 583 q 151 528 266 583 l 102 639 q 382 713 226 713 q 503 680 439 713 q 597 586 566 646 q 697 680 629 646 q 833 713 766 713 l 836 713 q 968 684 911 713 q 1058 606 1025 656 q 1108 492 1092 555 q 1124 352 1124 428 l 1121 317 l 662 317 l 662 304 q 850 120 680 120 l 857 120 q 959 140 906 121 q 1041 178 1013 159 l 1069 196 l 1115 73 q 1102 64 1110 70 q 1065 43 1093 58 q 1009 16 1038 28 q 937 -5 980 4 q 851 -16 893 -15 l 843 -16 q 682 14 746 -16 q 581 117 617 44 q 475 16 547 47 q 321 -15 404 -15 z "},"Ǧ":{"ha":1043,"x_min":71,"x_max":929,"o":"m 488 1095 l 297 1344 l 469 1344 l 550 1246 l 633 1344 l 814 1344 l 625 1095 l 488 1095 m 577 -16 q 202 117 334 -16 q 71 477 71 250 q 93 641 71 562 q 158 785 114 719 q 263 901 201 852 q 410 978 325 950 q 595 1006 495 1006 q 722 996 665 1006 q 820 968 779 986 q 880 938 861 949 q 924 907 900 926 l 854 787 q 595 857 758 857 q 442 825 510 857 q 334 740 374 793 q 272 621 293 686 q 251 485 251 556 q 272 342 251 407 q 334 231 293 278 q 438 158 374 184 q 585 132 503 132 q 754 157 667 132 l 754 391 l 524 391 l 524 538 l 929 538 l 929 60 q 577 -16 760 -16 z "},"ǧ":{"ha":838,"x_min":73,"x_max":766,"o":"m 425 127 q 495 140 465 127 q 545 175 526 153 q 575 226 564 196 q 592 286 587 256 q 596 350 596 316 q 554 514 596 452 q 427 577 511 577 q 327 544 368 577 q 268 461 286 511 q 250 349 250 411 q 292 186 250 245 q 425 127 335 127 m 392 -283 q 127 -236 256 -283 l 157 -91 q 380 -144 258 -144 q 532 -102 477 -144 q 587 24 587 -60 l 587 83 q 413 0 528 0 q 166 95 259 0 q 73 349 73 189 q 93 487 73 422 q 151 602 113 551 q 254 684 190 654 q 400 713 318 713 q 513 688 465 713 q 588 621 562 662 l 588 696 l 766 696 q 753 463 753 593 l 753 100 q 392 -283 753 -283 m 340 804 l 149 1053 l 321 1053 l 402 954 l 486 1053 l 666 1053 l 477 804 l 340 804 z "},"Ǩ":{"ha":917,"x_min":129,"x_max":930,"o":"m 395 1095 l 205 1344 l 377 1344 l 458 1246 l 541 1344 l 722 1344 l 532 1095 l 395 1095 m 129 0 l 129 987 l 301 987 l 301 556 l 682 987 l 897 987 l 469 511 l 930 0 l 706 0 l 303 441 l 303 0 l 129 0 z "},"ǩ":{"ha":730,"x_min":95,"x_max":768,"o":"m 95 0 l 95 988 l 263 988 l 263 412 l 515 696 l 747 696 l 415 359 l 768 0 l 546 0 l 263 301 l 263 0 l 95 0 m 359 804 l 168 1053 l 340 1053 l 421 954 l 505 1053 l 685 1053 l 496 804 l 359 804 z "},"Ǫ":{"ha":1133,"x_min":72,"x_max":1061,"o":"m 524 -241 q 419 -220 457 -241 q 380 -154 380 -198 q 386 -119 380 -136 q 399 -90 391 -102 q 420 -63 406 -77 q 444 -42 433 -50 q 472 -24 454 -34 q 498 -9 489 -14 q 525 4 508 -4 q 546 14 541 12 l 637 16 q 564 -45 591 -11 q 536 -106 536 -80 q 579 -138 536 -138 q 696 -113 614 -138 l 696 -214 q 524 -241 605 -241 m 570 -16 q 205 124 338 -16 q 72 498 72 263 q 206 867 72 728 q 572 1006 340 1006 q 929 867 796 1006 q 1061 498 1061 728 q 930 123 1061 262 q 570 -16 800 -16 m 566 132 q 795 227 717 132 q 874 498 874 322 q 795 764 874 669 q 568 859 717 859 q 338 764 418 859 q 258 498 258 669 q 336 227 258 321 q 566 132 414 132 z "},"ǫ":{"ha":872,"x_min":73,"x_max":799,"o":"m 396 -241 q 291 -220 329 -241 q 252 -154 252 -198 q 258 -119 252 -136 q 271 -90 263 -102 q 292 -63 278 -77 q 316 -42 305 -50 q 343 -24 326 -34 q 370 -9 361 -14 q 396 4 380 -4 q 418 14 413 12 l 509 16 q 435 -45 463 -11 q 408 -106 408 -80 q 451 -138 408 -138 q 568 -113 486 -138 l 568 -214 q 396 -241 477 -241 m 439 -16 q 277 14 349 -16 q 162 94 206 43 q 96 209 119 144 q 73 348 73 274 q 96 489 73 423 q 164 605 119 554 q 279 684 208 655 q 439 713 350 713 q 600 685 530 713 q 713 605 671 656 q 778 489 756 555 q 799 347 799 424 q 777 210 799 274 q 711 95 754 146 q 598 14 668 44 q 439 -16 528 -16 m 436 120 q 523 139 486 120 q 582 190 560 157 q 613 263 603 223 q 624 350 624 303 q 577 513 624 450 q 437 577 530 577 q 330 546 374 577 q 268 464 287 514 q 248 350 248 414 q 266 237 248 287 q 328 153 284 186 q 436 120 372 120 z "},"ǰ":{"ha":407,"x_min":-58,"x_max":475,"o":"m 68 -245 q -1 -241 31 -245 q -45 -232 -33 -236 l -58 -227 l -39 -112 q 58 -125 3 -125 q 98 -120 83 -125 q 125 -102 113 -116 q 142 -60 137 -87 q 148 14 148 -32 l 148 696 l 319 696 l 319 -6 q 308 -109 319 -67 q 270 -183 297 -151 q 192 -230 242 -215 q 68 -245 142 -245 m -39 -112 l -41 -111 l -39 -111 l -39 -112 m 149 804 l -41 1053 l 131 1053 l 212 954 l 295 1053 l 475 1053 l 286 804 l 149 804 z "},"Ǳ":{"ha":1881,"x_min":129,"x_max":1819,"o":"m 1114 0 l 1114 92 l 1581 840 l 1131 840 l 1131 987 l 1819 987 l 1819 898 l 1349 148 l 1818 148 l 1818 0 l 1114 0 m 129 0 l 129 987 l 404 987 q 847 862 701 987 q 994 500 994 736 q 850 127 994 255 q 432 0 707 0 l 129 0 m 301 148 l 441 148 q 715 237 620 148 q 811 500 811 327 q 714 752 811 665 q 420 840 618 840 l 301 840 l 301 148 z "},"ǲ":{"ha":1742,"x_min":129,"x_max":1695,"o":"m 1131 0 l 1131 89 l 1459 562 l 1148 562 l 1148 696 l 1678 696 l 1678 608 l 1347 134 l 1695 134 l 1695 0 l 1131 0 m 129 0 l 129 987 l 404 987 q 847 862 701 987 q 994 500 994 736 q 850 127 994 255 q 432 0 707 0 l 129 0 m 301 148 l 441 148 q 715 237 620 148 q 811 500 811 327 q 714 752 811 665 q 420 840 618 840 l 301 840 l 301 148 z "},"ǳ":{"ha":1535,"x_min":73,"x_max":1489,"o":"m 925 0 l 925 89 l 1253 562 l 942 562 l 942 696 l 1472 696 l 1472 608 l 1141 134 l 1489 134 l 1489 0 l 925 0 m 425 120 q 506 139 471 120 q 561 190 541 157 q 590 262 581 223 q 600 347 600 302 q 556 513 600 449 q 424 577 512 577 q 325 545 365 577 q 267 464 284 513 q 250 350 250 414 q 259 263 250 303 q 289 190 269 223 q 344 139 309 157 q 425 120 379 120 m 391 -16 q 164 83 256 -16 q 73 345 73 182 q 94 484 73 418 q 155 602 115 550 q 259 683 195 653 q 404 713 323 713 q 525 684 475 713 q 595 623 575 654 l 595 988 l 762 988 l 762 186 q 768 0 762 182 l 595 0 l 594 89 q 574 57 588 73 q 536 23 559 41 q 474 -5 512 6 q 391 -16 436 -16 z "},"Ǵ":{"ha":1043,"x_min":71,"x_max":929,"o":"m 492 1082 l 671 1279 l 887 1279 l 647 1082 l 492 1082 m 577 -16 q 202 117 334 -16 q 71 477 71 250 q 93 641 71 562 q 158 785 114 719 q 263 901 201 852 q 410 978 325 950 q 595 1006 495 1006 q 722 996 665 1006 q 820 968 779 986 q 880 938 861 949 q 924 907 900 926 l 854 787 q 595 857 758 857 q 442 825 510 857 q 334 740 374 793 q 272 621 293 686 q 251 485 251 556 q 272 342 251 407 q 334 231 293 278 q 438 158 374 184 q 585 132 503 132 q 754 157 667 132 l 754 391 l 524 391 l 524 538 l 929 538 l 929 60 q 577 -16 760 -16 z "},"ǵ":{"ha":838,"x_min":73,"x_max":766,"o":"m 425 127 q 495 140 465 127 q 545 175 526 153 q 575 226 564 196 q 592 286 587 256 q 596 350 596 316 q 554 514 596 452 q 427 577 511 577 q 327 544 368 577 q 268 461 286 511 q 250 349 250 411 q 292 186 250 245 q 425 127 335 127 m 392 -283 q 127 -236 256 -283 l 157 -91 q 380 -144 258 -144 q 532 -102 477 -144 q 587 24 587 -60 l 587 83 q 413 0 528 0 q 166 95 259 0 q 73 349 73 189 q 93 487 73 422 q 151 602 113 551 q 254 684 190 654 q 400 713 318 713 q 513 688 465 713 q 588 621 562 662 l 588 696 l 766 696 q 753 463 753 593 l 753 100 q 392 -283 753 -283 m 345 791 l 524 987 l 739 987 l 499 791 l 345 791 z "},"Ǹ":{"ha":1105,"x_min":129,"x_max":977,"o":"m 497 1082 l 259 1278 l 475 1278 l 652 1082 l 497 1082 m 129 0 l 129 987 l 311 987 q 812 260 782 305 l 812 987 l 977 987 l 977 0 l 793 0 q 288 728 338 657 l 288 0 l 129 0 z "},"ǹ":{"ha":830,"x_min":94,"x_max":742,"o":"m 107 0 l 107 431 q 104 571 107 505 q 97 666 100 637 l 94 696 l 272 696 l 272 603 q 368 685 308 657 q 484 713 428 713 q 590 697 545 713 q 670 646 635 682 q 724 548 705 610 q 742 397 742 486 l 742 0 l 574 0 l 574 408 q 545 539 574 500 q 450 577 516 577 q 396 566 425 577 q 339 536 367 555 q 294 485 312 517 q 275 416 275 454 l 275 0 l 107 0 m 382 791 l 144 987 l 359 987 l 537 791 l 382 791 z "},"Ǻ":{"ha":989,"x_min":8,"x_max":980,"o":"m 492 1074 q 386 1115 429 1074 q 342 1218 342 1156 q 386 1321 342 1280 q 492 1362 429 1362 q 598 1321 554 1362 q 642 1218 642 1280 q 598 1115 642 1156 q 492 1074 554 1074 m 492 1144 q 544 1166 522 1144 q 565 1218 565 1187 q 544 1270 565 1249 q 492 1291 522 1291 q 441 1270 463 1291 q 420 1218 420 1249 q 441 1166 420 1187 q 492 1144 463 1144 m 411 1420 l 590 1617 l 806 1617 l 566 1420 l 411 1420 m 355 401 l 620 401 q 489 786 542 633 q 355 401 445 658 m 8 0 l 405 987 l 580 987 l 980 0 l 785 0 l 690 241 l 291 241 l 197 0 l 8 0 z "},"ǻ":{"ha":876,"x_min":73,"x_max":783,"o":"m 465 782 q 359 823 403 782 q 316 926 316 865 q 359 1030 316 989 q 465 1071 402 1071 q 571 1030 528 1071 q 615 926 615 989 q 571 823 615 865 q 465 782 528 782 m 466 852 q 517 874 496 852 q 538 926 538 896 q 517 978 538 957 q 466 1000 496 1000 q 415 978 436 1000 q 394 926 394 957 q 415 874 394 896 q 466 852 436 852 m 385 1128 l 564 1325 l 779 1325 l 539 1128 l 385 1128 m 437 120 q 579 182 534 120 q 623 348 623 244 q 576 516 623 454 q 433 577 529 577 q 290 515 340 577 q 240 349 240 454 q 290 182 240 245 q 437 120 340 120 m 416 -16 q 264 15 331 -16 q 156 96 197 45 q 94 210 115 147 q 73 340 73 272 q 95 478 73 413 q 158 597 117 544 q 269 682 200 650 q 424 713 337 713 q 618 622 550 713 l 618 696 l 783 696 l 783 0 l 614 0 l 614 95 q 416 -16 538 -16 z "},"Ǽ":{"ha":1502,"x_min":13,"x_max":1354,"o":"m 808 1082 l 987 1279 l 1203 1279 l 963 1082 l 808 1082 m 430 378 l 747 378 l 715 834 l 692 834 l 430 378 m 13 0 l 601 987 l 1336 987 l 1336 834 l 890 834 l 913 579 l 1335 579 l 1335 430 l 932 430 l 959 153 l 1354 153 l 1354 0 l 779 0 l 759 241 l 363 241 l 226 0 l 13 0 z "},"ǽ":{"ha":1204,"x_min":47,"x_max":1124,"o":"m 664 429 l 977 429 l 977 444 q 931 553 975 514 q 832 591 887 591 q 725 546 767 591 q 664 429 682 501 m 326 120 q 393 132 363 120 q 441 163 422 144 q 473 208 460 182 q 492 261 486 234 q 498 317 498 288 l 431 317 q 349 311 387 317 q 279 293 311 305 q 229 258 248 281 q 211 206 211 236 q 243 141 211 162 q 326 120 275 120 m 321 -15 q 121 41 195 -15 q 47 199 47 97 q 147 382 47 332 q 471 433 246 433 l 499 433 q 458 541 498 500 q 345 583 418 583 q 151 528 266 583 l 102 639 q 382 713 226 713 q 503 680 439 713 q 597 586 566 646 q 697 680 629 646 q 833 713 766 713 l 836 713 q 968 684 911 713 q 1058 606 1025 656 q 1108 492 1092 555 q 1124 352 1124 428 l 1121 317 l 662 317 l 662 304 q 850 120 680 120 l 857 120 q 959 140 906 121 q 1041 178 1013 159 l 1069 196 l 1115 73 q 1102 64 1110 70 q 1065 43 1093 58 q 1009 16 1038 28 q 937 -5 980 4 q 851 -16 893 -15 l 843 -16 q 682 14 746 -16 q 581 117 617 44 q 475 16 547 47 q 321 -15 404 -15 m 526 791 l 705 987 l 920 987 l 680 791 l 526 791 z "},"Ǿ":{"ha":1133,"x_min":72,"x_max":1061,"o":"m 493 1082 l 672 1279 l 888 1279 l 648 1082 l 493 1082 m 570 -16 q 930 123 800 -16 q 1061 498 1061 262 q 1007 754 1061 643 q 851 930 952 866 l 906 1033 l 827 1068 l 774 970 q 572 1006 684 1006 q 206 867 340 1006 q 72 498 72 728 q 127 236 72 349 q 287 58 183 122 l 229 -51 l 307 -87 l 363 20 q 570 -16 456 -16 m 774 787 q 874 498 874 694 q 795 227 874 322 q 566 132 717 132 q 435 154 491 132 l 774 787 m 702 833 l 362 199 q 258 498 258 291 q 338 764 258 669 q 568 859 418 859 q 702 833 644 859 z "},"ǿ":{"ha":862,"x_min":73,"x_max":799,"o":"m 498 568 l 311 168 q 248 350 248 230 q 268 464 248 414 q 330 546 287 514 q 437 577 374 577 q 498 568 468 577 m 562 530 q 624 350 624 469 q 613 263 624 303 q 582 190 603 223 q 523 139 560 157 q 436 120 486 120 q 374 129 401 120 l 562 530 m 439 -16 q 598 14 528 -16 q 711 95 668 44 q 777 210 754 146 q 799 347 799 274 q 756 542 799 456 q 628 672 713 627 l 683 790 l 616 821 l 559 699 q 439 713 503 713 q 279 684 350 713 q 164 605 208 655 q 96 489 119 554 q 73 348 73 423 q 117 160 73 244 q 245 29 161 75 l 185 -100 l 252 -132 l 315 1 q 439 -16 370 -16 m 363 791 l 542 987 l 758 987 l 517 791 l 363 791 z "},"Ȁ":{"ha":989,"x_min":8,"x_max":980,"o":"m 424 1073 l 282 1306 l 81 1306 l 297 1073 l 424 1073 m 653 1073 l 549 1306 l 370 1306 l 532 1073 l 653 1073 m 355 401 l 620 401 q 489 786 542 633 q 355 401 445 658 m 8 0 l 405 987 l 580 987 l 980 0 l 785 0 l 690 241 l 291 241 l 197 0 l 8 0 z "},"ȁ":{"ha":876,"x_min":55,"x_max":783,"o":"m 397 781 l 256 1015 l 55 1015 l 271 781 l 397 781 m 627 781 l 523 1015 l 344 1015 l 505 781 l 627 781 m 437 120 q 579 182 534 120 q 623 348 623 244 q 576 516 623 454 q 433 577 529 577 q 290 515 340 577 q 240 349 240 454 q 290 182 240 245 q 437 120 340 120 m 416 -16 q 264 15 331 -16 q 156 96 197 45 q 94 210 115 147 q 73 340 73 272 q 95 478 73 413 q 158 597 117 544 q 269 682 200 650 q 424 713 337 713 q 618 622 550 713 l 618 696 l 783 696 l 783 0 l 614 0 l 614 95 q 416 -16 538 -16 z "},"Ȃ":{"ha":989,"x_min":8,"x_max":980,"o":"m 271 1072 q 332 1228 278 1179 q 494 1278 387 1278 q 655 1228 600 1278 q 716 1072 709 1178 l 589 1072 q 492 1151 583 1151 q 399 1072 404 1151 l 271 1072 m 355 401 l 620 401 q 489 786 542 633 q 355 401 445 658 m 8 0 l 405 987 l 580 987 l 980 0 l 785 0 l 690 241 l 291 241 l 197 0 l 8 0 z "},"ȃ":{"ha":876,"x_min":73,"x_max":783,"o":"m 245 781 q 306 937 252 887 q 467 986 360 986 q 628 936 574 986 q 690 781 683 886 l 563 781 q 466 859 557 859 q 373 781 377 859 l 245 781 m 437 120 q 579 182 534 120 q 623 348 623 244 q 576 516 623 454 q 433 577 529 577 q 290 515 340 577 q 240 349 240 454 q 290 182 240 245 q 437 120 340 120 m 416 -16 q 264 15 331 -16 q 156 96 197 45 q 94 210 115 147 q 73 340 73 272 q 95 478 73 413 q 158 597 117 544 q 269 682 200 650 q 424 713 337 713 q 618 622 550 713 l 618 696 l 783 696 l 783 0 l 614 0 l 614 95 q 416 -16 538 -16 z "},"Ȅ":{"ha":847,"x_min":62,"x_max":772,"o":"m 404 1073 l 262 1306 l 62 1306 l 277 1073 l 404 1073 m 633 1073 l 530 1306 l 351 1306 l 512 1073 l 633 1073 m 129 0 l 129 987 l 752 987 l 752 840 l 301 840 l 301 576 l 728 576 l 728 427 l 303 427 l 303 148 l 772 148 l 772 0 l 129 0 z "},"ȅ":{"ha":818,"x_min":37,"x_max":743,"o":"m 380 781 l 238 1015 l 37 1015 l 253 781 l 380 781 m 609 781 l 505 1015 l 326 1015 l 488 781 l 609 781 m 253 431 l 599 431 q 544 545 587 505 q 439 584 501 584 q 318 543 367 584 q 253 431 269 503 m 452 -16 q 175 85 276 -16 q 73 347 73 185 q 98 486 73 420 q 166 603 122 552 q 279 684 211 654 q 430 713 347 713 q 574 685 513 713 q 672 605 636 656 q 725 490 708 554 q 743 349 743 427 q 739 319 743 330 l 251 319 q 313 169 255 218 q 467 120 371 120 q 687 195 580 120 l 732 73 q 600 6 667 27 q 452 -16 533 -16 z "},"Ȇ":{"ha":847,"x_min":129,"x_max":772,"o":"m 229 1072 q 290 1228 236 1179 q 452 1278 345 1278 q 613 1228 558 1278 q 674 1072 667 1178 l 547 1072 q 450 1151 541 1151 q 357 1072 361 1151 l 229 1072 m 129 0 l 129 987 l 752 987 l 752 840 l 301 840 l 301 576 l 728 576 l 728 427 l 303 427 l 303 148 l 772 148 l 772 0 l 129 0 z "},"ȇ":{"ha":818,"x_min":73,"x_max":743,"o":"m 205 781 q 266 937 212 887 q 427 986 320 986 q 588 936 534 986 q 650 781 643 886 l 523 781 q 426 859 517 859 q 333 781 337 859 l 205 781 m 253 431 l 599 431 q 544 545 587 505 q 439 584 501 584 q 318 543 367 584 q 253 431 269 503 m 452 -16 q 175 85 276 -16 q 73 347 73 185 q 98 486 73 420 q 166 603 122 552 q 279 684 211 654 q 430 713 347 713 q 574 685 513 713 q 672 605 636 656 q 725 490 708 554 q 743 349 743 427 q 739 319 743 330 l 251 319 q 313 169 255 218 q 467 120 371 120 q 687 195 580 120 l 732 73 q 600 6 667 27 q 452 -16 533 -16 z "},"Ȉ":{"ha":397,"x_min":-198,"x_max":374,"o":"m 144 1073 l 3 1306 l -198 1306 l 18 1073 l 144 1073 m 374 1073 l 270 1306 l 91 1306 l 252 1073 l 374 1073 m 109 0 l 109 987 l 281 987 l 281 0 l 109 0 z "},"ȉ":{"ha":329,"x_min":-238,"x_max":334,"o":"m 104 781 l -37 1015 l -238 1015 l -22 781 l 104 781 m 334 781 l 230 1015 l 51 1015 l 212 781 l 334 781 m 70 0 l 70 696 l 239 696 l 239 0 l 70 0 z "},"Ȋ":{"ha":397,"x_min":-31,"x_max":414,"o":"m -31 1072 q 31 1228 -24 1179 q 192 1278 85 1278 q 353 1228 298 1278 q 414 1072 408 1178 l 288 1072 q 191 1151 281 1151 q 98 1072 102 1151 l -31 1072 m 109 0 l 109 987 l 281 987 l 281 0 l 109 0 z "},"ȋ":{"ha":329,"x_min":-71,"x_max":374,"o":"m -71 781 q -9 937 -64 887 q 152 986 45 986 q 313 936 258 986 q 374 781 368 886 l 248 781 q 151 859 241 859 q 58 781 62 859 l -71 781 m 70 0 l 70 696 l 239 696 l 239 0 l 70 0 z "},"Ȍ":{"ha":1133,"x_min":72,"x_max":1061,"o":"m 518 1073 l 376 1306 l 176 1306 l 391 1073 l 518 1073 m 747 1073 l 644 1306 l 465 1306 l 626 1073 l 747 1073 m 570 -16 q 205 124 338 -16 q 72 498 72 263 q 206 867 72 728 q 572 1006 340 1006 q 929 867 796 1006 q 1061 498 1061 728 q 930 123 1061 262 q 570 -16 800 -16 m 566 132 q 795 227 717 132 q 874 498 874 322 q 795 764 874 669 q 568 859 717 859 q 338 764 418 859 q 258 498 258 669 q 336 227 258 321 q 566 132 414 132 z "},"ȍ":{"ha":872,"x_min":45,"x_max":799,"o":"m 388 781 l 246 1015 l 45 1015 l 261 781 l 388 781 m 617 781 l 513 1015 l 334 1015 l 496 781 l 617 781 m 439 -16 q 277 14 349 -16 q 162 94 206 43 q 96 209 119 144 q 73 348 73 274 q 96 489 73 423 q 164 605 119 554 q 279 684 208 655 q 439 713 350 713 q 600 685 530 713 q 713 605 671 656 q 778 489 756 555 q 799 347 799 424 q 777 210 799 274 q 711 95 754 146 q 598 14 668 44 q 439 -16 528 -16 m 436 120 q 523 139 486 120 q 582 190 560 157 q 613 263 603 223 q 624 350 624 303 q 577 513 624 450 q 437 577 530 577 q 330 546 374 577 q 268 464 287 514 q 248 350 248 414 q 266 237 248 287 q 328 153 284 186 q 436 120 372 120 z "},"Ȏ":{"ha":1133,"x_min":72,"x_max":1061,"o":"m 343 1072 q 404 1228 350 1179 q 566 1278 458 1278 q 727 1228 672 1278 q 788 1072 781 1178 l 661 1072 q 564 1151 655 1151 q 471 1072 475 1151 l 343 1072 m 570 -16 q 205 124 338 -16 q 72 498 72 263 q 206 867 72 728 q 572 1006 340 1006 q 929 867 796 1006 q 1061 498 1061 728 q 930 123 1061 262 q 570 -16 800 -16 m 566 132 q 795 227 717 132 q 874 498 874 322 q 795 764 874 669 q 568 859 717 859 q 338 764 418 859 q 258 498 258 669 q 336 227 258 321 q 566 132 414 132 z "},"ȏ":{"ha":872,"x_min":73,"x_max":799,"o":"m 213 781 q 274 937 220 887 q 435 986 328 986 q 596 936 542 986 q 658 781 651 886 l 531 781 q 434 859 525 859 q 341 781 345 859 l 213 781 m 439 -16 q 277 14 349 -16 q 162 94 206 43 q 96 209 119 144 q 73 348 73 274 q 96 489 73 423 q 164 605 119 554 q 279 684 208 655 q 439 713 350 713 q 600 685 530 713 q 713 605 671 656 q 778 489 756 555 q 799 347 799 424 q 777 210 799 274 q 711 95 754 146 q 598 14 668 44 q 439 -16 528 -16 m 436 120 q 523 139 486 120 q 582 190 560 157 q 613 263 603 223 q 624 350 624 303 q 577 513 624 450 q 437 577 530 577 q 330 546 374 577 q 268 464 287 514 q 248 350 248 414 q 266 237 248 287 q 328 153 284 186 q 436 120 372 120 z "},"Ȑ":{"ha":941,"x_min":56,"x_max":896,"o":"m 399 1073 l 257 1306 l 56 1306 l 272 1073 l 399 1073 m 628 1073 l 524 1306 l 345 1306 l 507 1073 l 628 1073 m 299 564 l 464 564 q 648 707 648 564 q 610 812 648 785 q 482 840 571 840 l 299 840 l 299 564 m 129 0 l 129 987 l 485 987 q 626 975 566 987 q 733 933 685 963 q 806 849 781 904 q 830 715 830 795 q 781 567 830 631 q 631 481 731 503 q 762 326 720 431 l 896 0 l 709 0 l 596 294 q 536 392 568 366 q 437 418 503 418 l 301 418 l 301 0 l 129 0 z "},"ȑ":{"ha":529,"x_min":-95,"x_max":519,"o":"m 248 781 l 106 1015 l -95 1015 l 121 781 l 248 781 m 477 781 l 373 1015 l 194 1015 l 355 781 l 477 781 m 110 0 l 110 519 q 106 604 110 560 q 100 672 103 648 l 96 696 l 275 696 l 275 604 q 358 686 317 659 q 450 713 399 713 q 519 703 481 713 l 519 556 q 435 571 474 571 q 321 526 366 571 q 277 394 277 480 l 277 0 l 110 0 z "},"Ȓ":{"ha":941,"x_min":129,"x_max":896,"o":"m 224 1072 q 285 1228 231 1179 q 446 1278 339 1278 q 607 1228 553 1278 q 669 1072 662 1178 l 542 1072 q 445 1151 536 1151 q 352 1072 356 1151 l 224 1072 m 299 564 l 464 564 q 648 707 648 564 q 610 812 648 785 q 482 840 571 840 l 299 840 l 299 564 m 129 0 l 129 987 l 485 987 q 626 975 566 987 q 733 933 685 963 q 806 849 781 904 q 830 715 830 795 q 781 567 830 631 q 631 481 731 503 q 762 326 720 431 l 896 0 l 709 0 l 596 294 q 536 392 568 366 q 437 418 503 418 l 301 418 l 301 0 l 129 0 z "},"ȓ":{"ha":529,"x_min":73,"x_max":519,"o":"m 73 781 q 134 937 79 887 q 295 986 188 986 q 456 936 401 986 q 517 781 511 886 l 391 781 q 294 859 385 859 q 201 781 205 859 l 73 781 m 110 0 l 110 519 q 106 604 110 560 q 100 672 103 648 l 96 696 l 275 696 l 275 604 q 358 686 317 659 q 450 713 399 713 q 519 703 481 713 l 519 556 q 435 571 474 571 q 321 526 366 571 q 277 394 277 480 l 277 0 l 110 0 z "},"Ȕ":{"ha":1023,"x_min":111,"x_max":912,"o":"m 456 1073 l 314 1306 l 113 1306 l 329 1073 l 456 1073 m 685 1073 l 581 1306 l 402 1306 l 564 1073 l 685 1073 m 512 -16 q 345 7 417 -16 q 230 68 273 31 q 159 162 186 106 q 121 276 132 218 q 111 406 111 334 l 111 987 l 283 987 l 283 399 q 295 291 283 338 q 327 214 307 244 q 376 165 347 184 q 438 139 406 146 q 511 132 471 132 q 603 144 563 132 q 674 187 642 157 q 723 270 706 216 q 740 399 740 323 l 740 987 l 912 987 l 912 406 q 903 277 912 334 q 866 163 893 219 q 796 68 840 106 q 681 7 753 31 q 512 -16 608 -16 z "},"ȕ":{"ha":804,"x_min":16,"x_max":714,"o":"m 358 781 l 216 1015 l 16 1015 l 231 781 l 358 781 m 587 781 l 484 1015 l 304 1015 l 466 781 l 587 781 m 355 -16 q 159 57 229 -16 q 88 255 88 129 l 88 696 l 255 696 l 255 258 q 291 154 255 189 q 390 120 327 120 q 502 158 465 120 q 538 279 538 195 l 538 696 l 706 696 l 706 187 l 714 0 l 541 0 l 538 103 q 523 70 534 88 q 490 32 511 52 q 434 -2 469 12 q 355 -16 398 -16 z "},"Ȗ":{"ha":1023,"x_min":111,"x_max":912,"o":"m 281 1072 q 342 1228 288 1179 q 503 1278 396 1278 q 664 1228 610 1278 q 726 1072 719 1178 l 599 1072 q 502 1151 593 1151 q 409 1072 413 1151 l 281 1072 m 512 -16 q 345 7 417 -16 q 230 68 273 31 q 159 162 186 106 q 121 276 132 218 q 111 406 111 334 l 111 987 l 283 987 l 283 399 q 295 291 283 338 q 327 214 307 244 q 376 165 347 184 q 438 139 406 146 q 511 132 471 132 q 603 144 563 132 q 674 187 642 157 q 723 270 706 216 q 740 399 740 323 l 740 987 l 912 987 l 912 406 q 903 277 912 334 q 866 163 893 219 q 796 68 840 106 q 681 7 753 31 q 512 -16 608 -16 z "},"ȗ":{"ha":804,"x_min":88,"x_max":714,"o":"m 183 781 q 244 937 190 887 q 406 986 298 986 q 567 936 512 986 q 628 781 621 886 l 501 781 q 404 859 495 859 q 311 781 315 859 l 183 781 m 355 -16 q 159 57 229 -16 q 88 255 88 129 l 88 696 l 255 696 l 255 258 q 291 154 255 189 q 390 120 327 120 q 502 158 465 120 q 538 279 538 195 l 538 696 l 706 696 l 706 187 l 714 0 l 541 0 l 538 103 q 523 70 534 88 q 490 32 511 52 q 434 -2 469 12 q 355 -16 398 -16 z "},"Ș":{"ha":852,"x_min":78,"x_max":774,"o":"m 271 -439 l 348 -96 l 537 -96 l 415 -439 l 271 -439 m 422 -16 q 227 14 321 -16 q 78 97 132 44 l 151 220 q 276 157 199 183 q 412 132 353 132 q 547 165 503 132 q 591 269 591 199 q 587 312 591 296 q 568 347 583 329 q 526 380 554 365 q 450 412 498 395 q 381 435 430 419 q 311 458 333 450 q 134 567 189 505 q 79 737 79 630 q 124 886 79 824 q 246 977 170 947 q 420 1006 322 1006 q 625 980 552 1006 q 764 892 699 954 l 675 778 q 444 857 592 857 q 313 829 363 857 q 262 745 262 802 q 267 699 262 717 q 287 664 272 681 q 331 632 302 646 q 407 600 359 617 q 478 577 424 594 q 558 549 532 559 q 726 439 679 501 q 774 265 774 376 q 745 135 774 191 q 665 47 715 79 q 554 0 615 16 q 422 -16 493 -16 z "},"ș":{"ha":670,"x_min":72,"x_max":615,"o":"m 195 -439 l 272 -96 l 461 -96 l 339 -439 l 195 -439 m 362 -16 q 194 10 271 -16 q 72 72 117 36 l 114 193 q 222 138 157 159 q 347 117 287 117 q 432 136 404 117 q 461 197 461 155 l 461 210 q 444 247 461 231 q 366 281 427 262 l 267 313 q 204 336 229 326 q 153 363 179 347 q 112 398 127 379 q 89 446 98 418 q 79 511 79 474 q 100 604 79 564 q 157 667 121 644 q 239 701 194 690 q 337 712 283 712 q 470 695 404 712 q 587 645 536 678 l 543 530 q 448 566 503 551 q 349 581 393 581 q 266 567 292 581 q 240 520 240 553 q 248 486 240 498 q 282 461 256 474 q 365 429 308 448 l 455 399 q 542 359 509 380 q 595 297 575 337 q 615 197 615 257 q 600 113 615 151 q 560 52 585 76 q 502 13 535 28 q 433 -9 468 -3 q 362 -16 399 -16 z "},"Ț":{"ha":801,"x_min":7,"x_max":793,"o":"m 245 -439 l 321 -96 l 511 -96 l 389 -439 l 245 -439 m 312 0 l 312 840 l 7 840 l 7 987 l 793 987 l 793 840 l 484 840 l 484 0 l 312 0 z "},"ț":{"ha":545,"x_min":1,"x_max":500,"o":"m 141 -439 l 218 -96 l 407 -96 l 285 -439 l 141 -439 m 500 1 l 433 1 q 362 3 392 1 q 301 12 332 5 q 247 30 269 18 q 205 60 225 41 q 172 105 184 79 q 153 170 160 132 q 146 255 146 207 l 146 583 l 1 583 l 1 696 l 153 696 l 153 859 l 313 908 l 313 696 l 495 696 l 495 583 l 313 583 l 313 245 q 318 192 313 212 q 334 159 323 172 q 368 140 344 146 q 420 132 392 134 q 500 130 449 130 l 500 1 z "},"Ȟ":{"ha":1066,"x_min":129,"x_max":937,"o":"m 443 1095 l 252 1344 l 425 1344 l 505 1246 l 589 1344 l 769 1344 l 580 1095 l 443 1095 m 129 0 l 129 987 l 301 987 l 301 581 l 764 581 l 764 987 l 937 987 l 937 0 l 768 0 l 768 432 l 304 432 l 304 0 l 129 0 z "},"ȟ":{"ha":827,"x_min":98,"x_max":782,"o":"m 98 0 l 98 988 l 266 988 l 266 606 q 354 684 291 654 q 474 713 417 713 q 562 702 522 713 q 629 671 602 690 q 676 625 656 652 q 708 569 696 597 q 727 507 720 541 q 736 446 734 473 q 739 387 739 418 l 739 0 l 570 0 l 570 393 q 540 534 570 491 q 448 577 509 577 q 322 529 379 577 q 266 419 266 481 l 266 0 l 98 0 m 456 804 l 265 1053 l 437 1053 l 518 954 l 602 1053 l 782 1053 l 593 804 l 456 804 z "},"Ȧ":{"ha":989,"x_min":8,"x_max":980,"o":"m 418 1082 l 418 1237 l 585 1237 l 585 1082 l 418 1082 m 355 401 l 620 401 q 489 786 542 633 q 355 401 445 658 m 8 0 l 405 987 l 580 987 l 980 0 l 785 0 l 690 241 l 291 241 l 197 0 l 8 0 z "},"ȧ":{"ha":876,"x_min":73,"x_max":783,"o":"m 392 791 l 392 945 l 559 945 l 559 791 l 392 791 m 437 120 q 579 182 534 120 q 623 348 623 244 q 576 516 623 454 q 433 577 529 577 q 290 515 340 577 q 240 349 240 454 q 290 182 240 245 q 437 120 340 120 m 416 -16 q 264 15 331 -16 q 156 96 197 45 q 94 210 115 147 q 73 340 73 272 q 95 478 73 413 q 158 597 117 544 q 269 682 200 650 q 424 713 337 713 q 618 622 550 713 l 618 696 l 783 696 l 783 0 l 614 0 l 614 95 q 416 -16 538 -16 z "},"Ȩ":{"ha":847,"x_min":129,"x_max":772,"o":"m 309 -289 l 316 -199 q 372 -217 338 -209 q 434 -225 405 -225 q 503 -176 503 -225 q 399 -95 503 -111 l 379 -92 l 400 26 l 484 26 l 473 -51 q 585 -97 546 -56 q 623 -192 623 -138 q 619 -230 623 -212 q 606 -261 614 -248 q 587 -287 598 -275 q 561 -306 575 -298 q 531 -319 547 -313 q 497 -327 514 -324 q 460 -329 479 -329 q 309 -289 379 -329 m 129 0 l 129 987 l 752 987 l 752 840 l 301 840 l 301 576 l 728 576 l 728 427 l 303 427 l 303 148 l 772 148 l 772 0 l 129 0 z "},"ȩ":{"ha":818,"x_min":73,"x_max":743,"o":"m 253 431 l 599 431 q 544 545 587 505 q 439 584 501 584 q 318 543 367 584 q 253 431 269 503 m 452 -16 q 175 85 276 -16 q 73 347 73 185 q 98 486 73 420 q 166 603 122 552 q 279 684 211 654 q 430 713 347 713 q 574 685 513 713 q 672 605 636 656 q 725 490 708 554 q 743 349 743 427 q 739 319 743 330 l 251 319 q 313 169 255 218 q 467 120 371 120 q 687 195 580 120 l 732 73 q 600 6 667 27 q 452 -16 533 -16 m 315 -289 l 323 -199 q 378 -217 345 -209 q 441 -225 412 -225 q 509 -176 509 -225 q 406 -95 509 -111 l 386 -92 l 407 26 l 491 26 l 479 -51 q 591 -97 553 -56 q 630 -192 630 -138 q 626 -230 630 -212 q 613 -261 621 -248 q 593 -287 605 -275 q 568 -306 582 -298 q 537 -319 554 -313 q 504 -327 521 -324 q 467 -329 486 -329 q 315 -289 386 -329 z "},"Ȯ":{"ha":1133,"x_min":72,"x_max":1061,"o":"m 490 1082 l 490 1237 l 657 1237 l 657 1082 l 490 1082 m 570 -16 q 205 124 338 -16 q 72 498 72 263 q 206 867 72 728 q 572 1006 340 1006 q 929 867 796 1006 q 1061 498 1061 728 q 930 123 1061 262 q 570 -16 800 -16 m 566 132 q 795 227 717 132 q 874 498 874 322 q 795 764 874 669 q 568 859 717 859 q 338 764 418 859 q 258 498 258 669 q 336 227 258 321 q 566 132 414 132 z "},"ȯ":{"ha":872,"x_min":73,"x_max":799,"o":"m 439 -16 q 277 14 349 -16 q 162 94 206 43 q 96 209 119 144 q 73 348 73 274 q 96 489 73 423 q 164 605 119 554 q 279 684 208 655 q 439 713 350 713 q 600 685 530 713 q 713 605 671 656 q 778 489 756 555 q 799 347 799 424 q 777 210 799 274 q 711 95 754 146 q 598 14 668 44 q 439 -16 528 -16 m 436 120 q 523 139 486 120 q 582 190 560 157 q 613 263 603 223 q 624 350 624 303 q 577 513 624 450 q 437 577 530 577 q 330 546 374 577 q 268 464 287 514 q 248 350 248 414 q 266 237 248 287 q 328 153 284 186 q 436 120 372 120 m 360 791 l 360 945 l 527 945 l 527 791 l 360 791 z "},"Ȳ":{"ha":868,"x_min":-9,"x_max":875,"o":"m 211 1069 l 211 1175 l 634 1175 l 634 1069 l 211 1069 m 342 0 l 342 382 l -9 987 l 186 987 l 431 535 l 674 987 l 875 987 l 515 382 l 515 0 l 342 0 z "},"ȳ":{"ha":755,"x_min":20,"x_max":742,"o":"m 172 -302 l 102 -188 q 243 -112 196 -151 q 307 -18 290 -73 l 316 16 l 20 696 l 195 696 l 397 197 l 570 696 l 742 696 l 460 -38 q 383 -165 431 -110 q 284 -252 336 -220 q 172 -302 233 -283 m 169 777 l 169 884 l 592 884 l 592 777 l 169 777 z "},"ȷ":{"ha":407,"x_min":-58,"x_max":319,"o":"m 68 -245 q -1 -241 31 -245 q -45 -232 -33 -236 l -58 -227 l -39 -112 q 58 -125 3 -125 q 98 -120 83 -125 q 125 -102 113 -116 q 142 -60 137 -87 q 148 14 148 -32 l 148 696 l 319 696 l 319 -6 q 308 -109 319 -67 q 270 -183 297 -151 q 192 -230 242 -215 q 68 -245 142 -245 m -39 -112 l -41 -111 l -39 -111 l -39 -112 z "},"ʼ":{"ha":407,"x_min":43,"x_max":300,"o":"m 43 832 l 110 1232 l 300 1232 l 167 832 l 43 832 z "},"ˆ":{"ha":474,"x_min":-25,"x_max":500,"o":"m -25 804 l 149 1055 l 320 1055 l 500 804 l 332 804 l 240 937 l 146 804 l -25 804 z "},"ˇ":{"ha":474,"x_min":-21,"x_max":496,"o":"m 170 804 l -21 1053 l 151 1053 l 232 954 l 315 1053 l 496 1053 l 307 804 l 170 804 z "},"ˉ":{"ha":407,"x_min":-34,"x_max":431,"o":"m -34 908 l 431 908 l 431 1021 l -34 1021 l -34 908 z "},"˘":{"ha":475,"x_min":20,"x_max":455,"o":"m 239 787 q 20 987 34 787 l 138 987 q 149 944 140 962 q 173 919 158 927 q 203 908 189 911 q 239 905 218 905 q 307 921 281 905 q 338 987 333 938 l 455 987 q 393 835 448 883 q 239 787 338 787 z "},"˙":{"ha":355,"x_min":87,"x_max":254,"o":"m 87 791 l 87 945 l 254 945 l 254 791 l 87 791 z "},"˚":{"ha":475,"x_min":80,"x_max":379,"o":"m 229 782 q 123 823 167 782 q 80 926 80 865 q 123 1030 80 989 q 229 1071 166 1071 q 335 1030 292 1071 q 379 926 379 989 q 335 823 379 865 q 229 782 292 782 m 230 852 q 281 874 260 852 q 302 926 302 896 q 281 978 302 957 q 230 1000 260 1000 q 179 978 200 1000 q 158 926 158 957 q 179 874 158 896 q 230 852 200 852 z "},"˛":{"ha":345,"x_min":15,"x_max":331,"o":"m 159 -241 q 53 -220 92 -241 q 15 -154 15 -198 q 20 -119 15 -136 q 33 -90 26 -102 q 54 -63 41 -77 q 78 -42 68 -50 q 106 -24 89 -34 q 133 -9 123 -14 q 159 4 142 -4 q 180 14 176 12 l 272 16 q 198 -45 225 -11 q 171 -106 171 -80 q 214 -138 171 -138 q 331 -113 248 -138 l 331 -214 q 159 -241 239 -241 z "},"˜":{"ha":501,"x_min":-1,"x_max":502,"o":"m 349 796 l 349 796 q 280 814 320 796 q 205 851 240 833 q 153 869 170 869 q 124 852 138 869 q 107 800 111 835 l -1 800 q 40 942 -1 886 q 146 997 81 997 q 221 980 181 997 q 293 945 260 963 q 340 924 326 926 q 345 924 342 924 q 350 924 349 924 q 381 939 370 924 q 392 997 393 954 l 502 997 q 461 847 502 897 q 349 796 420 797 z "},"˝":{"ha":657,"x_min":47,"x_max":618,"o":"m 276 781 l 418 1015 l 618 1015 l 403 781 l 276 781 m 47 781 l 151 1015 l 330 1015 l 168 781 l 47 781 z "},"̇":{"ha":355,"x_min":92,"x_max":263,"o":"m 92 782 l 92 940 l 263 940 l 263 782 l 92 782 z "},"̏":{"ha":657,"x_min":38,"x_max":610,"o":"m 380 781 l 239 1015 l 38 1015 l 254 781 l 380 781 m 610 781 l 506 1015 l 327 1015 l 488 781 l 610 781 z "},"̑":{"ha":427,"x_min":-9,"x_max":435,"o":"m -9 781 q 52 937 -3 887 q 213 986 106 986 q 374 936 319 986 q 435 781 429 886 l 309 781 q 212 859 302 859 q 119 781 123 859 l -9 781 z "},"̒":{"ha":407,"x_min":130,"x_max":395,"o":"m 395 1177 l 319 840 l 130 840 l 252 1177 l 395 1177 z "},"̦":{"ha":366,"x_min":50,"x_max":316,"o":"m 50 -439 l 127 -96 l 316 -96 l 194 -439 l 50 -439 z "},"͘":{"ha":355,"x_min":92,"x_max":263,"o":"m 92 782 l 92 940 l 263 940 l 263 782 l 92 782 z "},"Δ":{"ha":1019,"x_min":41,"x_max":974,"o":"m 218 147 l 761 147 l 481 786 l 218 147 m 41 0 l 41 149 l 414 987 l 598 987 l 974 159 l 974 0 l 41 0 z "},"Σ":{"ha":856,"x_min":56,"x_max":822,"o":"m 56 -181 l 56 -91 l 408 410 l 71 901 l 71 987 l 793 987 l 793 849 l 323 849 l 614 411 l 315 -37 l 822 -37 l 822 -181 l 56 -181 z "},"Ω":{"ha":1087,"x_min":33,"x_max":1062,"o":"m 47 0 l 33 143 l 248 141 q 104 316 146 219 q 62 550 62 412 q 124 789 62 686 q 295 948 186 893 q 540 1003 403 1003 q 730 972 642 1003 q 883 884 818 941 q 986 742 949 827 q 1023 552 1023 656 q 983 316 1023 413 q 840 141 943 219 l 1062 143 l 1045 0 l 621 0 l 621 115 q 782 283 721 178 q 843 522 843 389 q 840 574 843 547 q 829 636 838 602 q 807 702 821 671 q 770 763 793 732 q 715 815 746 793 q 640 850 685 837 q 541 864 595 864 q 440 850 486 864 q 364 814 395 836 q 311 760 334 791 q 275 699 288 729 q 255 633 262 668 q 245 572 248 597 q 243 521 243 546 q 304 284 243 389 q 467 115 366 180 l 467 0 l 47 0 z "},"μ":{"ha":834,"x_min":86,"x_max":751,"o":"m 543 193 q 406 122 490 122 q 320 163 347 122 q 294 298 294 203 l 294 734 l 86 734 l 86 -214 l 294 -214 l 294 -10 q 341 -14 316 -14 q 562 103 488 -14 l 572 0 l 751 0 l 751 734 l 543 734 l 543 193 z "},"π":{"ha":1002,"x_min":117,"x_max":930,"o":"m 778 -9 q 898 30 858 -9 l 898 117 q 831 106 869 106 q 778 118 797 106 q 758 161 758 130 q 770 584 758 405 l 930 584 l 930 734 l 328 734 q 165 673 214 734 q 117 495 117 612 l 182 495 q 271 584 196 583 l 328 584 l 284 263 q 265 188 279 221 q 234 134 251 154 q 197 99 217 113 q 159 80 176 85 q 125 75 141 75 l 125 3 q 268 15 212 3 q 355 56 323 27 q 399 122 387 85 q 414 219 412 159 l 432 584 l 660 584 q 627 349 642 486 q 613 143 613 213 q 656 25 613 58 q 778 -9 700 -9 z "},"Ḃ":{"ha":927,"x_min":129,"x_max":852,"o":"m 361 1082 l 361 1237 l 528 1237 l 528 1082 l 361 1082 m 301 578 l 448 578 q 512 584 483 578 q 567 606 541 591 q 608 648 593 621 q 623 713 623 675 q 572 813 623 786 q 412 840 522 840 l 301 840 l 301 578 m 303 147 l 458 147 q 667 286 667 147 q 620 406 667 373 q 454 438 574 438 l 303 438 l 303 147 m 129 0 l 129 987 l 402 987 q 479 986 445 987 q 556 978 513 984 q 633 962 600 972 q 701 932 667 951 q 756 887 734 913 q 792 822 779 861 q 806 734 806 783 q 675 524 806 588 q 808 434 764 500 q 852 279 852 369 q 829 173 852 222 q 764 85 807 124 q 649 23 720 45 q 489 0 578 0 l 129 0 z "},"ḃ":{"ha":876,"x_min":96,"x_max":802,"o":"m 435 791 l 435 945 l 602 945 l 602 791 l 435 791 m 446 120 q 529 139 493 120 q 585 190 564 157 q 616 262 606 222 q 627 347 627 301 q 582 512 627 447 q 452 577 537 577 q 311 512 363 577 q 258 349 258 446 q 278 237 258 288 q 342 153 298 186 q 446 120 385 120 m 477 -16 q 350 15 408 -16 q 268 86 293 45 l 268 0 l 96 0 q 98 82 97 46 q 100 133 100 118 q 101 160 101 149 q 102 175 102 171 q 102 184 102 179 l 102 988 l 269 988 l 269 598 q 286 628 272 610 q 324 666 299 646 q 392 700 349 686 q 486 713 435 713 q 718 612 633 713 q 802 351 802 511 q 776 202 802 271 q 706 85 750 133 q 603 11 662 38 q 477 -16 543 -16 z "},"Ḋ":{"ha":1065,"x_min":129,"x_max":994,"o":"m 423 1082 l 423 1237 l 590 1237 l 590 1082 l 423 1082 m 129 0 l 129 987 l 404 987 q 847 862 701 987 q 994 500 994 736 q 850 127 994 255 q 432 0 707 0 l 129 0 m 301 148 l 441 148 q 715 237 620 148 q 811 500 811 327 q 714 752 811 665 q 420 840 618 840 l 301 840 l 301 148 z "},"ḋ":{"ha":859,"x_min":73,"x_max":768,"o":"m 310 791 l 310 945 l 477 945 l 477 791 l 310 791 m 425 120 q 506 139 471 120 q 561 190 541 157 q 590 262 581 223 q 600 347 600 302 q 556 513 600 449 q 424 577 512 577 q 325 545 365 577 q 267 464 284 513 q 250 350 250 414 q 259 263 250 303 q 289 190 269 223 q 344 139 309 157 q 425 120 379 120 m 391 -16 q 164 83 256 -16 q 73 345 73 182 q 94 484 73 418 q 155 602 115 550 q 259 683 195 653 q 404 713 323 713 q 525 684 475 713 q 595 623 575 654 l 595 988 l 762 988 l 762 186 q 768 0 762 182 l 595 0 l 594 89 q 574 57 588 73 q 536 23 559 41 q 474 -5 512 6 q 391 -16 436 -16 z "},"Ḟ":{"ha":777,"x_min":129,"x_max":732,"o":"m 361 1082 l 361 1237 l 528 1237 l 528 1082 l 361 1082 m 129 0 l 129 987 l 732 987 l 732 840 l 301 840 l 301 570 l 707 570 l 707 422 l 301 422 l 301 0 l 129 0 z "},"ḟ":{"ha":556,"x_min":47,"x_max":506,"o":"m 177 0 l 177 583 l 47 583 l 47 696 l 177 696 l 177 723 q 179 802 177 770 q 188 866 181 833 q 207 919 195 899 q 241 957 220 939 q 294 986 262 976 q 369 1001 325 996 q 470 1007 412 1007 l 506 1007 l 500 876 q 438 875 461 876 q 396 867 416 873 q 368 852 377 861 q 353 824 359 844 q 346 784 347 805 q 345 725 345 762 l 345 696 l 501 696 l 501 583 l 345 583 l 345 0 l 177 0 m 175 1082 l 175 1237 l 342 1237 l 342 1082 l 175 1082 z "},"Ṁ":{"ha":1348,"x_min":129,"x_max":1219,"o":"m 593 1082 l 593 1237 l 760 1237 l 760 1082 l 593 1082 m 129 0 l 129 987 l 331 987 q 480 656 352 941 q 676 221 608 371 q 784 459 728 334 q 911 748 839 583 q 1017 987 983 913 l 1219 987 l 1219 0 l 1057 0 l 1057 705 q 739 0 1021 627 l 612 0 q 513 219 577 77 q 397 477 450 361 q 295 694 344 593 l 295 0 l 129 0 z "},"ṁ":{"ha":1247,"x_min":96,"x_max":1157,"o":"m 109 0 l 109 472 q 102 620 109 544 l 96 696 l 273 696 l 273 605 q 352 683 298 652 q 467 713 405 713 q 590 681 534 713 q 675 585 646 648 q 901 713 765 713 q 1093 637 1029 713 q 1157 427 1157 560 l 1157 0 l 989 0 l 989 416 q 984 470 989 444 q 969 521 979 496 q 938 562 958 547 q 888 577 917 577 q 766 520 814 577 q 718 394 718 463 l 718 0 l 549 0 l 549 425 q 547 464 549 446 q 538 504 545 483 q 520 541 531 526 q 489 567 509 557 q 443 577 469 577 q 324 531 372 577 q 277 422 277 484 l 277 0 l 109 0 m 576 791 l 576 945 l 743 945 l 743 791 l 576 791 z "},"Ṗ":{"ha":881,"x_min":129,"x_max":835,"o":"m 377 1082 l 377 1237 l 544 1237 l 544 1082 l 377 1082 m 301 573 l 449 573 q 533 578 498 573 q 596 598 568 584 q 640 638 625 612 q 654 705 654 665 q 650 744 654 726 q 641 775 646 762 q 624 798 635 788 q 603 815 612 808 q 574 826 593 821 q 542 832 555 830 q 504 836 530 835 q 463 837 478 837 q 417 838 448 838 l 301 838 l 301 573 m 129 0 l 129 987 l 410 987 q 496 986 460 987 q 575 980 532 985 q 648 967 617 976 q 710 944 678 958 q 763 909 741 930 q 801 860 784 888 q 827 793 819 831 q 835 706 835 754 q 809 572 835 627 q 733 485 784 517 q 613 440 682 454 q 452 426 545 426 l 301 426 l 301 0 l 129 0 z "},"ṗ":{"ha":863,"x_min":96,"x_max":792,"o":"m 441 120 q 523 139 488 120 q 577 190 557 157 q 607 262 597 222 q 617 349 617 302 q 600 463 617 413 q 541 545 582 513 q 440 577 500 577 q 340 546 381 577 q 282 465 300 514 q 264 352 264 416 q 274 264 264 304 q 304 191 284 224 q 360 139 325 158 q 441 120 395 120 m 109 -268 l 109 462 q 96 696 109 522 l 274 696 l 274 596 q 342 674 282 634 q 489 713 402 713 q 651 663 581 713 q 756 532 721 612 q 792 356 792 451 q 771 219 792 285 q 711 100 750 153 q 612 16 673 47 q 479 -16 552 -16 q 340 23 397 -16 q 274 96 282 62 l 274 -268 l 109 -268 m 390 791 l 390 945 l 557 945 l 557 791 l 390 791 z "},"Ṡ":{"ha":852,"x_min":78,"x_max":774,"o":"m 335 1082 l 335 1237 l 502 1237 l 502 1082 l 335 1082 m 422 -16 q 227 14 321 -16 q 78 97 132 44 l 151 220 q 276 157 199 183 q 412 132 353 132 q 547 165 503 132 q 591 269 591 199 q 587 312 591 296 q 568 347 583 329 q 526 380 554 365 q 450 412 498 395 q 381 435 430 419 q 311 458 333 450 q 134 567 189 505 q 79 737 79 630 q 124 886 79 824 q 246 977 170 947 q 420 1006 322 1006 q 625 980 552 1006 q 764 892 699 954 l 675 778 q 444 857 592 857 q 313 829 363 857 q 262 745 262 802 q 267 699 262 717 q 287 664 272 681 q 331 632 302 646 q 407 600 359 617 q 478 577 424 594 q 558 549 532 559 q 726 439 679 501 q 774 265 774 376 q 745 135 774 191 q 665 47 715 79 q 554 0 615 16 q 422 -16 493 -16 z "},"ṡ":{"ha":670,"x_min":72,"x_max":615,"o":"m 362 -16 q 194 10 271 -16 q 72 72 117 36 l 114 193 q 222 138 157 159 q 347 117 287 117 q 432 136 404 117 q 461 197 461 155 l 461 210 q 444 247 461 231 q 366 281 427 262 l 267 313 q 204 336 229 326 q 153 363 179 347 q 112 398 127 379 q 89 446 98 418 q 79 511 79 474 q 100 604 79 564 q 157 667 121 644 q 239 701 194 690 q 337 712 283 712 q 470 695 404 712 q 587 645 536 678 l 543 530 q 448 566 503 551 q 349 581 393 581 q 266 567 292 581 q 240 520 240 553 q 248 486 240 498 q 282 461 256 474 q 365 429 308 448 l 455 399 q 542 359 509 380 q 595 297 575 337 q 615 197 615 257 q 600 113 615 151 q 560 52 585 76 q 502 13 535 28 q 433 -9 468 -3 q 362 -16 399 -16 m 262 791 l 262 945 l 429 945 l 429 791 l 262 791 z "},"Ṫ":{"ha":801,"x_min":7,"x_max":793,"o":"m 330 1082 l 330 1237 l 496 1237 l 496 1082 l 330 1082 m 312 0 l 312 840 l 7 840 l 7 987 l 793 987 l 793 840 l 484 840 l 484 0 l 312 0 z "},"ṫ":{"ha":545,"x_min":1,"x_max":500,"o":"m 500 1 l 433 1 q 362 3 392 1 q 301 12 332 5 q 247 30 269 18 q 205 60 225 41 q 172 105 184 79 q 153 170 160 132 q 146 255 146 207 l 146 583 l 1 583 l 1 696 l 153 696 l 153 859 l 313 908 l 313 696 l 495 696 l 495 583 l 313 583 l 313 245 q 318 192 313 212 q 334 159 323 172 q 368 140 344 146 q 420 132 392 134 q 500 130 449 130 l 500 1 m 167 958 l 167 1112 l 334 1112 l 334 958 l 167 958 z "},"Ẁ":{"ha":1421,"x_min":8,"x_max":1413,"o":"m 640 1082 l 401 1278 l 617 1278 l 795 1082 l 640 1082 m 290 0 l 8 987 l 191 987 q 256 746 210 916 q 334 451 301 576 q 395 208 366 326 q 465 453 427 328 q 557 748 503 579 q 633 987 611 916 l 797 987 l 973 435 l 1041 204 q 1100 450 1069 323 q 1174 745 1132 576 q 1236 987 1217 913 l 1413 987 l 1138 0 l 941 0 l 710 749 l 485 0 l 290 0 z "},"ẁ":{"ha":1143,"x_min":9,"x_max":1133,"o":"m 262 0 l 9 696 l 189 696 q 347 207 294 370 q 511 696 374 289 l 658 696 q 707 542 675 642 q 765 360 739 441 q 814 205 791 278 q 977 696 834 267 l 1133 696 l 869 0 l 729 0 q 571 473 586 428 q 403 0 545 398 l 262 0 m 513 791 l 275 987 l 490 987 l 668 791 l 513 791 z "},"Ẃ":{"ha":1421,"x_min":8,"x_max":1413,"o":"m 635 1082 l 814 1279 l 1029 1279 l 789 1082 l 635 1082 m 290 0 l 8 987 l 191 987 q 256 746 210 916 q 334 451 301 576 q 395 208 366 326 q 465 453 427 328 q 557 748 503 579 q 633 987 611 916 l 797 987 l 973 435 l 1041 204 q 1100 450 1069 323 q 1174 745 1132 576 q 1236 987 1217 913 l 1413 987 l 1138 0 l 941 0 l 710 749 l 485 0 l 290 0 z "},"ẃ":{"ha":1143,"x_min":9,"x_max":1133,"o":"m 262 0 l 9 696 l 189 696 q 347 207 294 370 q 511 696 374 289 l 658 696 q 707 542 675 642 q 765 360 739 441 q 814 205 791 278 q 977 696 834 267 l 1133 696 l 869 0 l 729 0 q 571 473 586 428 q 403 0 545 398 l 262 0 m 509 791 l 688 987 l 903 987 l 663 791 l 509 791 z "},"Ẅ":{"ha":1421,"x_min":8,"x_max":1413,"o":"m 777 1072 l 777 1225 l 943 1225 l 943 1072 l 777 1072 m 467 1072 l 467 1225 l 634 1225 l 634 1072 l 467 1072 m 290 0 l 8 987 l 191 987 q 256 746 210 916 q 334 451 301 576 q 395 208 366 326 q 465 453 427 328 q 557 748 503 579 q 633 987 611 916 l 797 987 l 973 435 l 1041 204 q 1100 450 1069 323 q 1174 745 1132 576 q 1236 987 1217 913 l 1413 987 l 1138 0 l 941 0 l 710 749 l 485 0 l 290 0 z "},"ẅ":{"ha":1143,"x_min":9,"x_max":1133,"o":"m 262 0 l 9 696 l 189 696 q 347 207 294 370 q 511 696 374 289 l 658 696 q 707 542 675 642 q 765 360 739 441 q 814 205 791 278 q 977 696 834 267 l 1133 696 l 869 0 l 729 0 q 571 473 586 428 q 403 0 545 398 l 262 0 m 651 781 l 651 933 l 817 933 l 817 781 l 651 781 m 340 781 l 340 933 l 508 933 l 508 781 l 340 781 z "},"Ẽ":{"ha":847,"x_min":129,"x_max":772,"o":"m 495 1088 l 494 1088 q 426 1106 466 1088 q 351 1142 386 1124 q 299 1160 315 1160 q 270 1143 284 1160 q 253 1091 256 1126 l 144 1091 q 185 1233 144 1178 q 292 1289 227 1289 q 367 1272 327 1289 q 439 1236 406 1255 q 486 1216 472 1218 q 491 1216 488 1216 q 496 1215 494 1215 q 527 1231 516 1215 q 538 1289 538 1246 l 648 1289 q 607 1138 648 1188 q 495 1088 566 1088 m 129 0 l 129 987 l 752 987 l 752 840 l 301 840 l 301 576 l 728 576 l 728 427 l 303 427 l 303 148 l 772 148 l 772 0 l 129 0 z "},"ẽ":{"ha":818,"x_min":73,"x_max":743,"o":"m 501 796 l 500 796 q 432 814 472 796 q 357 851 392 833 q 305 869 321 869 q 276 852 290 869 q 259 800 262 835 l 151 800 q 192 942 151 886 q 298 997 233 997 q 373 980 333 997 q 445 945 412 963 q 492 924 478 926 q 497 924 494 924 q 502 924 500 924 q 533 939 522 924 q 544 997 545 954 l 654 997 q 613 847 654 897 q 501 796 572 797 m 253 431 l 599 431 q 544 545 587 505 q 439 584 501 584 q 318 543 367 584 q 253 431 269 503 m 452 -16 q 175 85 276 -16 q 73 347 73 185 q 98 486 73 420 q 166 603 122 552 q 279 684 211 654 q 430 713 347 713 q 574 685 513 713 q 672 605 636 656 q 725 490 708 554 q 743 349 743 427 q 739 319 743 330 l 251 319 q 313 169 255 218 q 467 120 371 120 q 687 195 580 120 l 732 73 q 600 6 667 27 q 452 -16 533 -16 z "},"Ỳ":{"ha":869,"x_min":-9,"x_max":875,"o":"m 374 1082 l 136 1278 l 351 1278 l 529 1082 l 374 1082 m 342 0 l 342 382 l -9 987 l 186 987 l 431 535 l 674 987 l 875 987 l 515 382 l 515 0 l 342 0 z "},"ỳ":{"ha":755,"x_min":20,"x_max":742,"o":"m 172 -302 l 102 -188 q 243 -112 196 -151 q 307 -18 290 -73 l 316 16 l 20 696 l 195 696 l 397 197 l 570 696 l 742 696 l 460 -38 q 383 -165 431 -110 q 284 -252 336 -220 q 172 -302 233 -283 m 332 791 l 94 987 l 309 987 l 487 791 l 332 791 z "},"Ỹ":{"ha":869,"x_min":-9,"x_max":875,"o":"m 486 1088 l 485 1088 q 416 1106 456 1088 q 341 1142 376 1124 q 290 1160 306 1160 q 261 1143 275 1160 q 243 1091 247 1126 l 135 1091 q 176 1233 135 1178 q 283 1289 217 1289 q 357 1272 317 1289 q 430 1236 397 1255 q 476 1216 463 1218 q 481 1216 478 1216 q 486 1215 485 1215 q 518 1231 507 1215 q 528 1289 529 1246 l 638 1289 q 597 1138 638 1188 q 486 1088 557 1088 m 342 0 l 342 382 l -9 987 l 186 987 l 431 535 l 674 987 l 875 987 l 515 382 l 515 0 l 342 0 z "},"ỹ":{"ha":755,"x_min":20,"x_max":742,"o":"m 172 -302 l 102 -188 q 243 -112 196 -151 q 307 -18 290 -73 l 316 16 l 20 696 l 195 696 l 397 197 l 570 696 l 742 696 l 460 -38 q 383 -165 431 -110 q 284 -252 336 -220 q 172 -302 233 -283 m 444 796 l 443 796 q 374 814 414 796 q 299 851 334 833 q 248 869 264 869 q 219 852 233 869 q 201 800 205 835 l 93 800 q 134 942 93 886 q 241 997 175 997 q 315 980 275 997 q 388 945 355 963 q 434 924 420 926 q 439 924 436 924 q 444 924 443 924 q 476 939 465 924 q 486 997 487 954 l 596 997 q 555 847 596 897 q 444 796 515 797 z "},"–":{"ha":728,"x_min":-10,"x_max":739,"o":"m -10 304 l -10 446 l 739 446 l 739 304 l -10 304 z "},"—":{"ha":1472,"x_min":20,"x_max":1452,"o":"m 20 307 l 20 446 l 1452 446 l 1452 307 l 20 307 z "},"―":{"ha":2777,"x_min":37,"x_max":2740,"o":"m 37 307 l 37 435 l 2740 435 l 2740 307 l 37 307 z "},"‘":{"ha":391,"x_min":96,"x_max":315,"o":"m 209 587 l 96 987 l 289 987 l 315 587 l 209 587 z "},"’":{"ha":429,"x_min":76,"x_max":332,"o":"m 76 587 l 142 987 l 332 987 l 199 587 l 76 587 z "},"‚":{"ha":472,"x_min":108,"x_max":372,"o":"m 108 -220 l 186 178 l 372 178 l 257 -220 l 108 -220 z "},"“":{"ha":694,"x_min":88,"x_max":665,"o":"m 401 587 l 523 987 l 665 987 l 589 587 l 401 587 m 88 587 l 218 987 l 359 987 l 282 587 l 88 587 z "},"”":{"ha":694,"x_min":119,"x_max":663,"o":"m 401 587 l 479 987 l 663 987 l 547 587 l 401 587 m 119 587 l 194 987 l 381 987 l 267 587 l 119 587 z "},"„":{"ha":694,"x_min":59,"x_max":591,"o":"m 330 -149 l 406 178 l 591 178 l 477 -149 l 330 -149 m 59 -149 l 134 178 l 319 178 l 210 -149 l 59 -149 z "},"†":{"ha":693,"x_min":37,"x_max":615,"o":"m 258 0 l 258 611 l 37 611 l 37 732 l 258 732 l 258 958 l 392 958 l 392 732 l 615 732 l 615 611 l 394 611 l 394 0 l 258 0 z "},"‡":{"ha":796,"x_min":97,"x_max":699,"o":"m 100 734 l 329 734 l 329 987 l 478 987 l 478 734 l 699 734 l 699 607 l 478 607 l 478 361 l 692 361 l 692 239 l 478 239 l 478 -76 l 329 -76 l 329 239 l 97 239 l 97 361 l 329 361 l 329 607 l 100 607 l 100 734 z "},"•":{"ha":671,"x_min":101,"x_max":564,"o":"m 332 243 q 165 308 230 243 q 101 463 101 372 q 169 619 101 553 q 332 685 236 685 q 497 620 431 685 q 564 463 564 554 q 496 308 564 373 q 332 243 429 243 z "},"…":{"ha":1099,"x_min":78,"x_max":987,"o":"m 785 -7 l 785 176 l 987 176 l 987 -7 l 785 -7 m 431 -7 l 431 176 l 635 176 l 636 -7 l 431 -7 m 78 -7 l 78 176 l 282 176 l 283 -7 l 78 -7 z "},"‰":{"ha":1868,"x_min":66,"x_max":1802,"o":"m 1553 -14 q 1372 59 1440 -14 q 1303 243 1303 132 q 1372 428 1303 353 q 1552 502 1440 502 q 1733 427 1664 502 q 1802 243 1802 353 q 1734 59 1802 131 q 1553 -14 1666 -14 m 1553 92 q 1633 128 1607 92 q 1659 243 1659 164 q 1634 357 1659 319 q 1552 395 1608 395 q 1471 358 1497 395 q 1446 244 1446 321 q 1473 129 1446 165 q 1553 92 1499 92 m 972 -14 q 791 59 860 -14 q 723 243 723 132 q 791 428 723 353 q 972 502 860 502 q 1153 427 1084 502 q 1222 243 1222 353 q 1154 59 1222 131 q 972 -14 1085 -14 m 972 92 q 1052 128 1025 92 q 1079 243 1079 164 q 1053 357 1079 319 q 972 395 1027 395 q 891 358 917 395 q 865 244 865 321 q 892 129 865 165 q 972 92 918 92 m 262 0 l 893 987 l 1031 987 l 399 0 l 262 0 m 315 485 q 133 553 200 485 q 66 742 66 621 q 133 930 66 861 q 315 1000 200 1000 q 497 930 430 1000 q 565 742 565 860 q 498 553 565 621 q 315 485 431 485 m 315 591 q 395 626 369 591 q 422 741 422 662 q 396 856 422 818 q 315 894 371 894 q 234 856 260 894 q 209 742 209 819 q 235 627 209 663 q 315 591 262 591 z "},"‹":{"ha":492,"x_min":94,"x_max":421,"o":"m 281 107 l 94 367 l 286 625 l 421 625 l 260 366 l 416 107 l 281 107 z "},"›":{"ha":492,"x_min":62,"x_max":390,"o":"m 62 106 l 223 366 l 67 625 l 201 625 l 390 365 l 197 106 l 62 106 z "},"⁄":{"ha":769,"x_min":-8,"x_max":761,"o":"m -8 0 l 592 987 l 761 987 l 161 0 l -8 0 z "},"⁴":{"ha":517,"x_min":35,"x_max":489,"o":"m 160 660 l 282 660 l 282 833 l 160 660 m 283 435 l 283 568 l 35 568 l 35 646 l 284 987 l 410 987 l 410 660 l 489 660 l 489 568 l 410 568 l 410 435 l 283 435 z "},"€":{"ha":990,"x_min":93,"x_max":1034,"o":"m 94 342 l 97 418 l 201 418 q 197 493 197 454 q 201 559 197 524 l 93 559 l 96 639 l 214 639 q 265 771 231 711 q 345 875 300 832 q 446 947 391 918 q 559 991 500 977 q 678 1006 618 1006 q 1008 899 872 1006 l 941 779 q 692 857 828 857 q 515 799 595 857 q 401 639 436 741 l 716 639 l 711 559 l 382 559 q 378 495 378 528 q 384 418 378 454 l 692 418 l 687 342 l 404 342 q 520 189 440 244 q 703 134 600 134 q 976 233 852 134 l 1034 97 q 692 -15 890 -15 q 487 25 583 -15 q 318 147 391 65 q 216 342 245 229 l 94 342 z "},"ℓ":{"ha":357,"x_min":96,"x_max":262,"o":"m 96 0 l 96 988 l 262 988 l 262 0 l 96 0 z "},"™":{"ha":1267,"x_min":50,"x_max":1161,"o":"m 196 426 l 196 842 l 50 842 l 50 958 l 479 958 l 479 842 l 328 842 l 328 426 l 196 426 m 546 426 l 546 958 l 701 958 l 854 625 l 1006 958 l 1161 958 l 1161 426 l 1027 426 l 1027 729 l 895 426 l 812 426 l 677 722 l 677 426 l 546 426 z "},"Ω":{"ha":1087,"x_min":33,"x_max":1062,"o":"m 47 0 l 33 143 l 248 141 q 104 316 146 219 q 62 550 62 412 q 124 789 62 686 q 295 948 186 893 q 540 1003 403 1003 q 730 972 642 1003 q 883 884 818 941 q 986 742 949 827 q 1023 552 1023 656 q 983 316 1023 413 q 840 141 943 219 l 1062 143 l 1045 0 l 621 0 l 621 115 q 782 283 721 178 q 843 522 843 389 q 840 574 843 547 q 829 636 838 602 q 807 702 821 671 q 770 763 793 732 q 715 815 746 793 q 640 850 685 837 q 541 864 595 864 q 440 850 486 864 q 364 814 395 836 q 311 760 334 791 q 275 699 288 729 q 255 633 262 668 q 245 572 248 597 q 243 521 243 546 q 304 284 243 389 q 467 115 366 180 l 467 0 l 47 0 z "},"℮":{"ha":808,"x_min":65,"x_max":728,"o":"m 242 484 l 586 484 q 572 621 586 563 q 532 712 557 680 q 478 759 507 744 q 413 774 448 774 q 349 759 378 774 q 295 711 319 744 q 256 621 270 679 q 242 484 242 563 m 425 77 q 288 101 352 77 q 173 168 223 124 q 94 283 123 212 q 65 442 65 354 q 85 584 65 521 q 139 690 105 648 q 218 760 172 732 q 312 801 263 789 q 414 813 361 813 q 508 803 464 813 q 594 767 553 792 q 664 704 635 742 q 711 607 693 666 q 728 475 728 549 q 725 444 728 458 l 238 444 q 298 202 239 284 q 463 119 358 119 q 698 203 569 119 l 716 168 q 425 77 578 77 z "},"∂":{"ha":788,"x_min":32,"x_max":720,"o":"m 324 121 q 381 130 355 121 q 431 161 406 139 q 475 219 456 183 q 510 309 494 254 q 537 437 526 364 q 478 514 517 481 q 397 547 440 547 q 259 470 315 547 q 203 288 203 393 q 236 166 203 212 q 324 121 268 121 m 324 -16 q 108 69 184 -16 q 32 290 32 155 q 80 487 32 397 q 210 628 128 576 q 388 680 292 680 q 491 656 446 680 q 547 601 535 633 q 547 659 547 650 q 493 820 541 760 q 370 880 445 880 q 338 878 354 880 q 308 874 323 877 q 281 868 293 871 q 254 860 269 865 q 232 852 240 855 q 210 844 223 850 q 193 836 197 838 q 177 827 189 833 q 165 821 165 821 l 155 943 q 260 995 200 976 q 380 1014 320 1014 q 632 902 543 1014 q 720 559 720 789 q 705 390 720 472 q 658 234 690 308 q 581 104 626 159 q 469 16 535 49 q 324 -16 403 -16 z "},"∅":{"ha":1138,"x_min":56,"x_max":1073,"o":"m 56 497 q 98 703 56 605 q 211 869 140 800 q 374 979 281 938 q 564 1019 467 1019 q 679 1005 622 1019 q 787 964 736 991 q 882 901 838 938 l 1002 1035 l 1059 990 l 935 851 q 1036 689 1000 780 q 1073 497 1073 598 q 1030 292 1073 389 q 918 125 988 194 q 755 16 848 56 q 564 -25 662 -25 q 400 5 480 -25 q 252 88 319 35 l 121 -58 l 70 -11 l 201 136 q 94 301 132 208 q 56 497 56 393 m 299 140 q 564 45 420 45 q 728 81 648 45 q 869 176 808 116 q 966 320 929 235 q 1003 497 1003 404 q 972 660 1003 583 q 887 799 942 737 l 299 140 m 248 189 l 836 848 q 707 923 777 897 q 564 949 637 949 q 400 913 480 949 q 260 819 320 878 q 162 674 199 759 q 125 497 125 590 q 158 330 125 409 q 248 189 191 250 z "},"∆":{"ha":1019,"x_min":41,"x_max":974,"o":"m 218 147 l 761 147 l 481 786 l 218 147 m 41 0 l 41 149 l 414 987 l 598 987 l 974 159 l 974 0 l 41 0 z "},"∏":{"ha":1063,"x_min":26,"x_max":987,"o":"m 132 -68 l 132 851 l 26 851 l 26 987 l 985 987 l 987 851 l 902 851 l 902 -68 l 709 -68 l 709 851 l 320 851 l 320 -68 l 132 -68 z "},"∑":{"ha":856,"x_min":56,"x_max":822,"o":"m 56 -181 l 56 -91 l 408 410 l 71 901 l 71 987 l 793 987 l 793 849 l 323 849 l 614 411 l 315 -37 l 822 -37 l 822 -181 l 56 -181 z "},"−":{"ha":1017,"x_min":136,"x_max":880,"o":"m 136 193 l 136 330 l 880 330 l 880 193 l 136 193 z "},"∕":{"ha":283,"x_min":-55,"x_max":532,"o":"m -55 -161 l 382 987 l 532 987 l 91 -161 l -55 -161 z "},"∙":{"ha":431,"x_min":135,"x_max":302,"o":"m 135 353 l 135 508 l 302 508 l 302 353 l 135 353 z "},"√":{"ha":891,"x_min":3,"x_max":795,"o":"m 349 -96 l 142 431 l 34 410 l 3 532 l 254 572 l 403 178 l 640 1054 l 795 1054 l 488 -96 l 349 -96 z "},"∞":{"ha":1181,"x_min":65,"x_max":1117,"o":"m 868 261 q 971 306 939 261 q 1004 425 1004 351 q 966 518 1004 480 q 865 556 928 556 q 649 409 755 556 q 762 296 713 332 q 868 261 811 261 m 328 261 q 543 408 433 261 q 321 556 437 556 q 217 514 254 556 q 180 409 180 472 q 221 305 180 349 q 328 261 261 261 m 317 157 q 136 235 207 157 q 65 425 65 313 q 139 591 65 522 q 313 661 214 661 q 594 488 467 661 q 721 616 655 572 q 869 661 786 661 q 1049 591 981 661 q 1117 412 1117 522 q 1044 229 1117 301 q 868 157 970 157 q 726 198 791 157 q 593 330 661 239 q 317 157 463 157 z "},"∫":{"ha":556,"x_min":18,"x_max":522,"o":"m 135 -220 q 73 -215 102 -220 q 31 -205 44 -210 l 18 -201 l 18 -74 q 111 -85 68 -85 q 164 -59 151 -85 q 177 27 177 -33 l 177 785 q 234 975 177 903 q 403 1046 291 1046 q 460 1041 431 1046 q 506 1032 490 1037 l 522 1028 l 522 896 q 429 911 468 911 q 369 884 386 911 q 353 800 353 857 l 353 40 q 300 -150 353 -79 q 135 -220 247 -220 z "},"≈":{"ha":916,"x_min":45,"x_max":810,"o":"m 149 71 l 45 130 q 83 231 63 191 q 129 290 104 270 q 180 317 155 310 q 240 323 205 323 q 442 281 316 323 q 616 245 542 245 q 670 264 654 245 q 697 351 686 283 l 809 298 q 776 195 793 235 q 736 134 759 155 q 690 104 714 112 q 632 96 667 96 q 415 138 566 96 q 255 174 294 174 q 192 155 212 174 q 149 71 172 136 m 149 472 l 46 533 q 84 633 64 594 q 131 692 105 673 q 181 719 156 712 q 241 726 205 726 q 445 684 305 726 q 617 648 562 648 q 670 667 654 648 q 698 753 686 686 l 810 700 q 763 572 789 616 q 708 513 737 528 q 633 498 679 498 q 416 541 574 498 q 256 576 293 576 q 192 556 212 576 q 149 472 171 537 z "},"≠":{"ha":941,"x_min":105,"x_max":830,"o":"m 342 24 l 210 45 l 286 203 l 105 203 l 105 331 l 351 331 l 416 456 l 105 456 l 105 585 l 477 585 l 564 761 l 700 741 l 623 585 l 830 585 l 830 456 l 562 456 l 494 331 l 830 331 l 830 203 l 431 203 l 342 24 z "},"≤":{"ha":916,"x_min":68,"x_max":795,"o":"m 68 0 l 68 128 l 795 128 l 795 0 l 68 0 m 782 178 l 71 499 l 71 576 l 785 910 l 785 755 l 293 540 l 782 330 l 782 178 z "},"≥":{"ha":916,"x_min":65,"x_max":791,"o":"m 65 0 l 65 128 l 791 128 l 791 0 l 65 0 m 70 177 l 70 332 l 562 547 l 73 758 l 73 909 l 784 588 l 784 510 l 70 177 z "},"◊":{"ha":846,"x_min":48,"x_max":761,"o":"m 402 153 l 594 473 l 406 783 l 214 473 l 402 153 m 346 -27 l 48 473 l 350 974 l 460 974 l 761 473 l 456 -27 l 346 -27 z "},"ﬀ":{"ha":1147,"x_min":47,"x_max":1095,"o":"m 934 580 l 934 0 l 762 0 l 762 580 l 349 580 l 349 0 l 178 0 l 178 580 l 47 580 l 47 696 l 178 696 l 178 720 q 180 800 178 768 q 188 864 182 831 q 208 918 195 897 q 242 957 220 938 q 295 986 263 976 q 371 1001 327 996 q 473 1007 414 1007 l 510 1007 l 503 873 q 443 871 465 873 q 401 864 420 870 q 373 849 382 858 q 358 821 365 840 q 351 781 352 802 q 349 721 349 759 l 349 696 l 762 696 l 762 720 q 764 800 762 768 q 773 864 766 831 q 792 918 779 897 q 826 957 805 938 q 880 986 848 976 q 955 1001 911 996 q 1058 1007 999 1007 l 1095 1007 l 1088 873 q 1027 871 1050 873 q 986 864 1005 870 q 958 849 966 858 q 943 821 949 840 q 935 781 937 802 q 934 721 934 759 l 934 696 l 1090 696 l 1090 580 l 934 580 z "},"ﬁ":{"ha":876,"x_min":47,"x_max":774,"o":"m 178 0 l 178 580 l 47 580 l 47 696 l 178 696 l 178 720 q 180 800 178 768 q 188 864 182 831 q 208 918 195 897 q 242 957 220 938 q 295 986 263 976 q 371 1001 327 996 q 473 1007 414 1007 l 510 1007 l 503 873 q 443 871 465 873 q 401 864 420 870 q 373 849 382 858 q 358 821 365 840 q 351 781 352 802 q 349 721 349 759 l 349 696 l 627 696 l 627 580 l 349 580 l 349 0 l 178 0 m 612 840 l 612 987 l 774 987 l 774 840 l 612 840 m 612 0 l 612 696 l 774 696 l 774 0 l 612 0 z "},"ﬂ":{"ha":857,"x_min":47,"x_max":766,"o":"m 174 0 l 174 580 l 47 580 l 47 696 l 174 696 l 174 703 q 185 833 174 782 q 228 921 197 884 q 314 975 258 959 q 455 991 369 991 l 766 991 l 766 0 l 595 0 l 595 859 l 493 859 q 376 833 406 859 q 346 741 346 808 l 346 696 l 502 696 l 502 580 l 346 580 l 346 0 l 174 0 z "},"ﬃ":{"ha":1516,"x_min":47,"x_max":1422,"o":"m 1422 836 l 1256 836 l 1256 987 l 1422 987 l 1422 836 m 1422 0 l 1256 0 l 1256 580 l 940 580 l 940 0 l 768 0 l 768 580 l 349 580 l 349 0 l 178 0 l 178 580 l 47 580 l 47 696 l 178 696 l 178 720 q 180 800 178 768 q 188 864 182 831 q 208 918 195 897 q 242 957 220 938 q 295 986 263 976 q 371 1001 327 996 q 473 1007 414 1007 l 510 1007 l 503 873 q 443 872 465 873 q 401 865 420 871 q 373 850 382 859 q 358 822 365 841 q 351 781 352 803 q 349 722 349 760 l 349 696 l 768 696 l 768 720 q 770 800 768 768 q 779 864 772 831 q 798 918 785 897 q 832 957 811 938 q 886 986 854 976 q 961 1001 918 996 q 1064 1007 1005 1007 l 1101 1007 l 1094 873 q 1034 872 1056 873 q 992 865 1011 871 q 964 850 972 859 q 949 822 956 841 q 941 781 943 803 q 940 722 940 760 l 940 696 l 1422 696 l 1422 0 z "},"ﬄ":{"ha":1497,"x_min":47,"x_max":1266,"o":"m 177 0 l 177 580 l 47 580 l 47 696 l 177 696 l 177 723 q 179 802 177 770 q 188 866 181 833 q 207 919 195 899 q 241 957 220 939 q 294 986 262 976 q 369 1001 325 996 q 470 1007 412 1007 l 506 1007 l 500 876 q 438 875 461 876 q 396 867 416 873 q 368 852 377 861 q 353 824 359 844 q 346 784 347 805 q 345 725 345 762 l 345 696 l 617 696 l 617 580 l 345 580 l 345 0 l 177 0 m 673 0 l 673 580 l 547 580 l 547 696 l 673 696 l 673 703 q 685 833 673 782 q 727 921 696 884 q 813 975 758 959 q 955 991 869 991 l 1266 991 l 1266 0 l 1095 0 l 1095 859 l 993 859 q 876 833 905 859 q 846 741 846 808 l 846 696 l 1002 696 l 1002 580 l 846 580 l 846 0 l 673 0 z "}}}
